M48
; DRILL file KiCad 10.0.1 date 2026-09-29T21:39:19
; FORMAT={-:-/ absolute / metric / decimal}
; #@! TF.CreationDate,2026-09-29T21:39:19+02:00
; #@! TF.GenerationSoftware,Kicad,Pcbnew,10.0.1
; #@! TF.FileFunction,Plated,1,2,PTH
FMAT,2
METRIC
; #@! TA.AperFunction,Plated,PTH,ViaDrill
T1C0.300
; #@! TA.AperFunction,Plated,PTH,ViaDrill
T2C0.800
; #@! TA.AperFunction,Plated,PTH,ComponentDrill
T3C0.890
; #@! TA.AperFunction,Plated,PTH,ComponentDrill
T4C1.020
; #@! TA.AperFunction,Plated,PTH,ComponentDrill
T5C1.630
%
G90
G05
T1
X121.607Y-105.816
X140.022Y-117.04
X141.01Y-96.291
X142.835Y-96.291
X144.149Y-111.214
X145.102Y-111.849
X145.879Y-89.306
X146.372Y-109.891
X147.0Y-94.0
X147.007Y-102.091
X152.087Y-111.214
X152.2Y-106.641
X152.722Y-109.891
X152.929Y-77.876
X152.929Y-93.641
X153.357Y-111.849
X153.959Y-88.036
X153.959Y-101.371
X154.644Y-86.766
X154.644Y-100.101
X155.262Y-108.591
X155.329Y-85.496
X155.329Y-98.831
X155.38Y-110.579
X156.014Y-84.226
X156.014Y-97.561
X156.532Y-111.531
X156.699Y-82.956
X156.699Y-96.291
X157.384Y-81.686
X157.384Y-95.0
X158.069Y-80.415
X158.069Y-93.751
X158.119Y-107.291
X158.754Y-79.145
X158.754Y-92.481
X159.707Y-107.941
X162.882Y-74.384
X163.199Y-77.241
X163.199Y-79.781
X163.199Y-82.321
X163.199Y-84.861
X163.199Y-104.6
X163.199Y-106.6
X163.199Y-108.6
X163.199Y-110.6
X163.834Y-105.499
X164.152Y-94.6
T2
X121.61Y-118.835
X121.924Y-72.479
X121.924Y-81.039
X121.924Y-89.6
X129.86Y-118.835
X133.035Y-114.07
X134.9Y-93.5
X135.5Y-108.1
X139.069Y-95.6
X143.3Y-108.1
X144.149Y-72.479
X145.1Y-95.6
X152.725Y-118.835
X155.579Y-72.479
X160.66Y-89.94
X162.56Y-93.75
X162.885Y-118.835
T3
X134.3Y-75.96
X134.3Y-78.5
X134.3Y-81.04
X134.3Y-83.58
X136.84Y-77.22
X136.84Y-79.76
X136.84Y-82.3
X136.84Y-84.84
T4
X123.04Y-73.775
X123.04Y-76.315
X123.04Y-84.485
X123.04Y-87.025
T5
X130.99Y-72.655
X130.99Y-88.145
M30
