%TF.GenerationSoftware,KiCad,Pcbnew,10.0.1*%
%TF.CreationDate,2026-09-29T21:39:22+02:00*%
%TF.ProjectId,ReHydra,52654879-6472-4612-9e6b-696361645f70,rev?*%
%TF.SameCoordinates,Original*%
%TF.FileFunction,Soldermask,Top*%
%TF.FilePolarity,Negative*%
%FSLAX46Y46*%
G04 Gerber Fmt 4.6, Leading zero omitted, Abs format (unit mm)*
G04 Created by KiCad (PCBNEW 10.0.1) date 2026-09-29 21:39:22*
%MOMM*%
%LPD*%
G01*
G04 APERTURE LIST*
G04 Aperture macros list*
%AMRoundRect*
0 Rectangle with rounded corners*
0 $1 Rounding radius*
0 $2 $3 $4 $5 $6 $7 $8 $9 X,Y pos of 4 corners*
0 Add a 4 corners polygon primitive as box body*
4,1,4,$2,$3,$4,$5,$6,$7,$8,$9,$2,$3,0*
0 Add four circle primitives for the rounded corners*
1,1,$1+$1,$2,$3*
1,1,$1+$1,$4,$5*
1,1,$1+$1,$6,$7*
1,1,$1+$1,$8,$9*
0 Add four rect primitives between the rounded corners*
20,1,$1+$1,$2,$3,$4,$5,0*
20,1,$1+$1,$4,$5,$6,$7,0*
20,1,$1+$1,$6,$7,$8,$9,0*
20,1,$1+$1,$8,$9,$2,$3,0*%
G04 Aperture macros list end*
%ADD10C,0.700020*%
%ADD11RoundRect,0.250000X-0.512652X-0.159099X-0.159099X-0.512652X0.512652X0.159099X0.159099X0.512652X0*%
%ADD12RoundRect,0.250000X0.262500X0.450000X-0.262500X0.450000X-0.262500X-0.450000X0.262500X-0.450000X0*%
%ADD13RoundRect,0.150000X-0.825000X-0.150000X0.825000X-0.150000X0.825000X0.150000X-0.825000X0.150000X0*%
%ADD14RoundRect,0.250000X-3.750000X0.350000X-3.750000X-0.350000X3.750000X-0.350000X3.750000X0.350000X0*%
%ADD15RoundRect,0.162500X-0.672500X-0.162500X0.672500X-0.162500X0.672500X0.162500X-0.672500X0.162500X0*%
%ADD16RoundRect,0.087500X1.012500X0.087500X-1.012500X0.087500X-1.012500X-0.087500X1.012500X-0.087500X0*%
%ADD17RoundRect,0.087500X0.087500X1.012500X-0.087500X1.012500X-0.087500X-1.012500X0.087500X-1.012500X0*%
%ADD18C,3.250000*%
%ADD19RoundRect,0.250500X-0.499500X0.499500X-0.499500X-0.499500X0.499500X-0.499500X0.499500X0.499500X0*%
%ADD20C,1.500000*%
%ADD21C,2.500000*%
%ADD22RoundRect,0.243750X0.243750X0.456250X-0.243750X0.456250X-0.243750X-0.456250X0.243750X-0.456250X0*%
%ADD23RoundRect,0.250000X-0.475000X0.250000X-0.475000X-0.250000X0.475000X-0.250000X0.475000X0.250000X0*%
%ADD24RoundRect,0.250000X-0.503814X-0.132583X-0.132583X-0.503814X0.503814X0.132583X0.132583X0.503814X0*%
%ADD25RoundRect,0.250000X0.132583X-0.503814X0.503814X-0.132583X-0.132583X0.503814X-0.503814X0.132583X0*%
%ADD26RoundRect,0.250000X0.475000X-0.250000X0.475000X0.250000X-0.475000X0.250000X-0.475000X-0.250000X0*%
%ADD27RoundRect,0.250000X-0.250000X-0.475000X0.250000X-0.475000X0.250000X0.475000X-0.250000X0.475000X0*%
%ADD28RoundRect,0.250000X0.750000X-2.000000X0.750000X2.000000X-0.750000X2.000000X-0.750000X-2.000000X0*%
G04 APERTURE END LIST*
D10*
X122274210Y-81686330D02*
G75*
G02*
X121574190Y-81686330I-350010J0D01*
G01*
X121574190Y-81686330D02*
G75*
G02*
X122274210Y-81686330I350010J0D01*
G01*
D11*
%TO.C,C8*%
X149509778Y-90220000D03*
X150853280Y-91563502D03*
%TD*%
D12*
%TO.C,R5*%
X127790000Y-114950000D03*
X125965000Y-114950000D03*
%TD*%
D13*
%TO.C,U3*%
X155380000Y-113725000D03*
X155380000Y-114995000D03*
X155380000Y-116265000D03*
X155380000Y-117535000D03*
X160330000Y-117535000D03*
X160330000Y-116265000D03*
X160330000Y-114995000D03*
X160330000Y-113725000D03*
%TD*%
D14*
%TO.C,J1*%
X169100000Y-76600000D03*
X169100000Y-78600000D03*
X169100000Y-80600000D03*
X169100000Y-82600000D03*
X169100000Y-84600000D03*
X169100000Y-86600000D03*
X169100000Y-88600000D03*
X169100000Y-90600000D03*
X169100000Y-92600000D03*
X169100000Y-94600000D03*
X169100000Y-96600000D03*
X169100000Y-98600000D03*
X169100000Y-100600000D03*
X169100000Y-102600000D03*
X169100000Y-104600000D03*
X169100000Y-106600000D03*
X169100000Y-108600000D03*
X169100000Y-110600000D03*
X169100000Y-112600000D03*
X169100000Y-114600000D03*
%TD*%
D15*
%TO.C,U1*%
X150870000Y-76605000D03*
X150870000Y-77875000D03*
X150870000Y-79145000D03*
X150870000Y-80415000D03*
X150870000Y-81685000D03*
X150870000Y-82955000D03*
X150870000Y-84225000D03*
X150870000Y-85495000D03*
X150870000Y-86765000D03*
X150870000Y-88035000D03*
X160600000Y-88035000D03*
X160600000Y-86765000D03*
X160600000Y-85495000D03*
X160600000Y-84225000D03*
X160600000Y-82955000D03*
X160600000Y-81685000D03*
X160600000Y-80415000D03*
X160600000Y-79145000D03*
X160600000Y-77875000D03*
X160600000Y-76605000D03*
%TD*%
D16*
%TO.C,U2*%
X149969000Y-112491000D03*
X149969000Y-111841000D03*
X149969000Y-111191000D03*
X149969000Y-110541000D03*
X149969000Y-109891000D03*
X149969000Y-109241000D03*
X149969000Y-108591000D03*
X149969000Y-107941000D03*
X149969000Y-107291000D03*
X149969000Y-106641000D03*
X149969000Y-105991000D03*
X149969000Y-105341000D03*
X149969000Y-104691000D03*
X149969000Y-104041000D03*
X149969000Y-103391000D03*
X149969000Y-102741000D03*
X149969000Y-102091000D03*
X149969000Y-101441000D03*
X149969000Y-100791000D03*
X149969000Y-100141000D03*
X149969000Y-99491000D03*
X149969000Y-98841000D03*
X149969000Y-98191000D03*
X149969000Y-97541000D03*
X149969000Y-96891000D03*
X149969000Y-96241000D03*
X149969000Y-95591000D03*
X149969000Y-94941000D03*
X149969000Y-94291000D03*
X149969000Y-93641000D03*
D17*
X147179000Y-91101000D03*
X146529000Y-91101000D03*
X145879000Y-91101000D03*
X145229000Y-91101000D03*
X144579000Y-91101000D03*
X143929000Y-91101000D03*
X143279000Y-91101000D03*
X142629000Y-91101000D03*
X141979000Y-91101000D03*
X141329000Y-91101000D03*
X140679000Y-91101000D03*
X140029000Y-91101000D03*
X139379000Y-91101000D03*
X138729000Y-91101000D03*
X138079000Y-91101000D03*
X137429000Y-91101000D03*
X136779000Y-91101000D03*
X136129000Y-91101000D03*
X135479000Y-91101000D03*
X134829000Y-91101000D03*
D16*
X132039000Y-93641000D03*
X132039000Y-94291000D03*
X132039000Y-94941000D03*
X132039000Y-95591000D03*
X132039000Y-96241000D03*
X132039000Y-96891000D03*
X132039000Y-97541000D03*
X132039000Y-98191000D03*
X132039000Y-98841000D03*
X132039000Y-99491000D03*
X132039000Y-100141000D03*
X132039000Y-100791000D03*
X132039000Y-101441000D03*
X132039000Y-102091000D03*
X132039000Y-102741000D03*
X132039000Y-103391000D03*
X132039000Y-104041000D03*
X132039000Y-104691000D03*
X132039000Y-105341000D03*
X132039000Y-105991000D03*
X132039000Y-106641000D03*
X132039000Y-107291000D03*
X132039000Y-107941000D03*
X132039000Y-108591000D03*
X132039000Y-109241000D03*
X132039000Y-109891000D03*
X132039000Y-110541000D03*
X132039000Y-111191000D03*
X132039000Y-111841000D03*
X132039000Y-112491000D03*
D17*
X134829000Y-115031000D03*
X135479000Y-115031000D03*
X136129000Y-115031000D03*
X136779000Y-115031000D03*
X137429000Y-115031000D03*
X138079000Y-115031000D03*
X138729000Y-115031000D03*
X139379000Y-115031000D03*
X140029000Y-115031000D03*
X140679000Y-115031000D03*
X141329000Y-115031000D03*
X141979000Y-115031000D03*
X142629000Y-115031000D03*
X143279000Y-115031000D03*
X143929000Y-115031000D03*
X144579000Y-115031000D03*
X145229000Y-115031000D03*
X145879000Y-115031000D03*
X146529000Y-115031000D03*
X147179000Y-115031000D03*
%TD*%
D12*
%TO.C,R3*%
X127790000Y-107540000D03*
X125965000Y-107540000D03*
%TD*%
D18*
%TO.C,CN1*%
X127940000Y-74685000D03*
X127940000Y-86115000D03*
D19*
X134300000Y-75960000D03*
D20*
X136840000Y-77220000D03*
X134300000Y-78500000D03*
X136840000Y-79760000D03*
X134300000Y-81040000D03*
X136840000Y-82300000D03*
X134300000Y-83580000D03*
X136840000Y-84840000D03*
X123040000Y-73775000D03*
X123040000Y-76315000D03*
X123040000Y-84485000D03*
X123040000Y-87025000D03*
D21*
X130990000Y-72655000D03*
X130990000Y-88145000D03*
%TD*%
D22*
%TO.C,LED1*%
X123481700Y-114950000D03*
X121606700Y-114950000D03*
%TD*%
D23*
%TO.C,C4*%
X127100000Y-91101000D03*
X127100000Y-93001000D03*
%TD*%
D12*
%TO.C,R4*%
X127790000Y-111245000D03*
X125965000Y-111245000D03*
%TD*%
D24*
%TO.C,JP1*%
X130900000Y-115750000D03*
X132190470Y-117040470D03*
%TD*%
D22*
%TO.C,LED3*%
X123481700Y-107585000D03*
X121606700Y-107585000D03*
%TD*%
D25*
%TO.C,R6*%
X149199530Y-117040470D03*
X150490000Y-115750000D03*
%TD*%
D26*
%TO.C,C5*%
X127100000Y-97700000D03*
X127100000Y-95800000D03*
%TD*%
D27*
%TO.C,C1*%
X158700000Y-74380000D03*
X160600000Y-74380000D03*
%TD*%
D28*
%TO.C,Q1*%
X123200000Y-102250000D03*
X123200000Y-93750000D03*
%TD*%
D27*
%TO.C,C7*%
X158760000Y-111530000D03*
X160660000Y-111530000D03*
%TD*%
D22*
%TO.C,LED2*%
X123481700Y-111267500D03*
X121606700Y-111267500D03*
%TD*%
M02*
