G75*
%MOIN*%
%OFA0B0*%
%FSLAX25Y25*%
%IPPOS*%
%LPD*%
%AMOC8*
5,1,8,0,0,1.08239X$1,22.5*
%
%ADD10R,0.08661X0.01378*%
%ADD11R,0.01378X0.08661*%
%ADD12R,0.08000X0.02600*%
%ADD13R,0.05118X0.06299*%
%ADD14R,0.05118X0.05906*%
%ADD15R,0.05906X0.05118*%
%ADD16R,0.04724X0.04724*%
%ADD17R,0.07000X0.20000*%
%ADD18R,0.08661X0.02362*%
%ADD19R,0.31496X0.04724*%
D10*
X0048823Y0035850D03*
X0048823Y0038409D03*
X0048823Y0040968D03*
X0048823Y0043527D03*
X0048823Y0046087D03*
X0048823Y0048646D03*
X0048823Y0051205D03*
X0048823Y0053764D03*
X0048823Y0056323D03*
X0048823Y0058882D03*
X0048823Y0061441D03*
X0048823Y0064000D03*
X0048823Y0066559D03*
X0048823Y0069118D03*
X0048823Y0071677D03*
X0048823Y0074236D03*
X0048823Y0076795D03*
X0048823Y0079354D03*
X0048823Y0081913D03*
X0048823Y0084472D03*
X0048823Y0087031D03*
X0048823Y0089590D03*
X0048823Y0092150D03*
X0048823Y0094709D03*
X0048823Y0097268D03*
X0048823Y0099827D03*
X0048823Y0102386D03*
X0048823Y0104945D03*
X0048823Y0107504D03*
X0048823Y0110063D03*
X0119413Y0110063D03*
X0119413Y0107504D03*
X0119413Y0104945D03*
X0119413Y0102386D03*
X0119413Y0099827D03*
X0119413Y0097268D03*
X0119413Y0094709D03*
X0119413Y0092150D03*
X0119413Y0089590D03*
X0119413Y0087031D03*
X0119413Y0084472D03*
X0119413Y0081913D03*
X0119413Y0079354D03*
X0119413Y0076795D03*
X0119413Y0074236D03*
X0119413Y0071677D03*
X0119413Y0069118D03*
X0119413Y0066559D03*
X0119413Y0064000D03*
X0119413Y0061441D03*
X0119413Y0058882D03*
X0119413Y0056323D03*
X0119413Y0053764D03*
X0119413Y0051205D03*
X0119413Y0048646D03*
X0119413Y0046087D03*
X0119413Y0043527D03*
X0119413Y0040968D03*
X0119413Y0038409D03*
X0119413Y0035850D03*
D11*
X0108429Y0025850D03*
X0105870Y0025850D03*
X0103311Y0025850D03*
X0100752Y0025850D03*
X0098193Y0025850D03*
X0095634Y0025850D03*
X0093075Y0025850D03*
X0090516Y0025850D03*
X0087957Y0025850D03*
X0085398Y0025850D03*
X0082839Y0025850D03*
X0080280Y0025850D03*
X0077720Y0025850D03*
X0075161Y0025850D03*
X0072602Y0025850D03*
X0070043Y0025850D03*
X0067484Y0025850D03*
X0064925Y0025850D03*
X0062366Y0025850D03*
X0059807Y0025850D03*
X0059807Y0120063D03*
X0062366Y0120063D03*
X0064925Y0120063D03*
X0067484Y0120063D03*
X0070043Y0120063D03*
X0072602Y0120063D03*
X0075161Y0120063D03*
X0077720Y0120063D03*
X0080280Y0120063D03*
X0082839Y0120063D03*
X0085398Y0120063D03*
X0087957Y0120063D03*
X0090516Y0120063D03*
X0093075Y0120063D03*
X0095634Y0120063D03*
X0098193Y0120063D03*
X0100752Y0120063D03*
X0103311Y0120063D03*
X0105870Y0120063D03*
X0108429Y0120063D03*
D12*
X0122310Y0132130D03*
X0122310Y0137130D03*
X0122310Y0142130D03*
X0122310Y0147130D03*
X0122310Y0152130D03*
X0122310Y0157130D03*
X0122310Y0162130D03*
X0122310Y0167130D03*
X0122310Y0172130D03*
X0122310Y0177130D03*
X0161910Y0177130D03*
X0161910Y0172130D03*
X0161910Y0167130D03*
X0161910Y0162130D03*
X0161910Y0157130D03*
X0161910Y0152130D03*
X0161910Y0147130D03*
X0161910Y0142130D03*
X0161910Y0137130D03*
X0161910Y0132130D03*
D13*
G36*
X0125564Y0022732D02*
X0121945Y0019113D01*
X0117492Y0023566D01*
X0121111Y0027185D01*
X0125564Y0022732D01*
G37*
G36*
X0120274Y0017442D02*
X0116655Y0013823D01*
X0112202Y0018276D01*
X0115821Y0021895D01*
X0120274Y0017442D01*
G37*
X0032248Y0025693D03*
X0024768Y0025693D03*
X0024807Y0040585D03*
X0032287Y0040585D03*
X0032287Y0055378D03*
X0024807Y0055378D03*
D14*
G36*
X0043943Y0018743D02*
X0040324Y0022362D01*
X0044499Y0026537D01*
X0048118Y0022918D01*
X0043943Y0018743D01*
G37*
G36*
X0049232Y0013454D02*
X0045613Y0017073D01*
X0049788Y0021248D01*
X0053407Y0017629D01*
X0049232Y0013454D01*
G37*
X0154404Y0039630D03*
X0161096Y0039630D03*
G36*
X0122338Y0114617D02*
X0118719Y0118236D01*
X0122894Y0122411D01*
X0126513Y0118792D01*
X0122338Y0114617D01*
G37*
G36*
X0117606Y0119349D02*
X0113987Y0122968D01*
X0118162Y0127143D01*
X0121781Y0123524D01*
X0117606Y0119349D01*
G37*
X0155654Y0185880D03*
X0162346Y0185880D03*
D15*
X0081500Y0182976D03*
X0081500Y0176283D03*
X0081500Y0165476D03*
X0081500Y0158783D03*
X0041343Y0126155D03*
X0041343Y0119463D03*
X0036864Y0110102D03*
X0036864Y0103409D03*
D16*
X0008163Y0026155D03*
X0016431Y0026155D03*
X0016431Y0040378D03*
X0008163Y0040378D03*
X0008163Y0055585D03*
X0016431Y0055585D03*
D17*
X0019305Y0082067D03*
X0019305Y0120067D03*
D18*
X0140211Y0030988D03*
X0140211Y0025988D03*
X0140211Y0020988D03*
X0140211Y0015988D03*
X0160683Y0015988D03*
X0160683Y0020988D03*
X0160683Y0025988D03*
X0160683Y0030988D03*
D19*
X0194748Y0027504D03*
X0194748Y0035378D03*
X0194748Y0043252D03*
X0194748Y0051126D03*
X0194748Y0059000D03*
X0194748Y0066874D03*
X0194748Y0074748D03*
X0194748Y0082622D03*
X0194748Y0090496D03*
X0194748Y0098370D03*
X0194748Y0106244D03*
X0194748Y0114118D03*
X0194748Y0121992D03*
X0194748Y0129866D03*
X0194748Y0137740D03*
X0194748Y0145614D03*
X0194748Y0153488D03*
X0194748Y0161363D03*
X0194748Y0169237D03*
X0194748Y0177111D03*
M02*
