G75*
%MOIN*%
%OFA0B0*%
%FSLAX25Y25*%
%IPPOS*%
%LPD*%
%AMOC8*
5,1,8,0,0,1.08239X$1,22.5*
%
%ADD10C,0.00400*%
%ADD11C,0.00500*%
%ADD12C,0.00200*%
%ADD13C,0.00700*%
%ADD14C,0.00600*%
%ADD15R,0.01181X0.00591*%
%ADD16R,0.01181X0.01181*%
%ADD17C,0.00800*%
%ADD18R,0.05000X0.07500*%
%ADD19C,0.00185*%
%ADD20C,0.00570*%
D10*
X0004997Y0016355D02*
X0008067Y0016355D01*
X0009601Y0016355D02*
X0012670Y0016355D01*
X0014205Y0016355D02*
X0016507Y0016355D01*
X0017274Y0017123D01*
X0017274Y0020192D01*
X0016507Y0020959D01*
X0014205Y0020959D01*
X0014205Y0016355D01*
X0011136Y0018657D02*
X0009601Y0018657D01*
X0009601Y0020959D02*
X0009601Y0016355D01*
X0004997Y0016355D02*
X0004997Y0020959D01*
X0009601Y0020959D02*
X0012670Y0020959D01*
X0018809Y0019425D02*
X0020344Y0020959D01*
X0020344Y0016355D01*
X0021878Y0016355D02*
X0018809Y0016355D01*
X0027208Y0015848D02*
X0027208Y0020451D01*
X0029510Y0020451D01*
X0030277Y0019684D01*
X0030277Y0018150D01*
X0029510Y0017382D01*
X0027208Y0017382D01*
X0028743Y0017382D02*
X0030277Y0015848D01*
X0031812Y0016615D02*
X0032579Y0015848D01*
X0034114Y0015848D01*
X0034881Y0016615D01*
X0034881Y0018150D01*
X0034114Y0018917D01*
X0033346Y0018917D01*
X0031812Y0018150D01*
X0031812Y0020451D01*
X0034881Y0020451D01*
X0034195Y0030535D02*
X0034195Y0035138D01*
X0031893Y0032837D01*
X0034963Y0032837D01*
X0030359Y0032837D02*
X0029591Y0032069D01*
X0027289Y0032069D01*
X0027289Y0030535D02*
X0027289Y0035138D01*
X0029591Y0035138D01*
X0030359Y0034371D01*
X0030359Y0032837D01*
X0028824Y0032069D02*
X0030359Y0030535D01*
X0021878Y0030578D02*
X0018809Y0030578D01*
X0021878Y0033647D01*
X0021878Y0034414D01*
X0021111Y0035182D01*
X0019576Y0035182D01*
X0018809Y0034414D01*
X0017274Y0034414D02*
X0016507Y0035182D01*
X0014205Y0035182D01*
X0014205Y0030578D01*
X0016507Y0030578D01*
X0017274Y0031345D01*
X0017274Y0034414D01*
X0012670Y0035182D02*
X0009601Y0035182D01*
X0009601Y0030578D01*
X0012670Y0030578D01*
X0011136Y0032880D02*
X0009601Y0032880D01*
X0008067Y0030578D02*
X0004997Y0030578D01*
X0004997Y0035182D01*
X0004997Y0045785D02*
X0008067Y0045785D01*
X0009601Y0045785D02*
X0012670Y0045785D01*
X0014205Y0045785D02*
X0016507Y0045785D01*
X0017274Y0046552D01*
X0017274Y0049621D01*
X0016507Y0050388D01*
X0014205Y0050388D01*
X0014205Y0045785D01*
X0011136Y0048087D02*
X0009601Y0048087D01*
X0009601Y0050388D02*
X0009601Y0045785D01*
X0009601Y0050388D02*
X0012670Y0050388D01*
X0018809Y0049621D02*
X0019576Y0050388D01*
X0021111Y0050388D01*
X0021878Y0049621D01*
X0021878Y0048854D01*
X0021111Y0048087D01*
X0021878Y0047319D01*
X0021878Y0046552D01*
X0021111Y0045785D01*
X0019576Y0045785D01*
X0018809Y0046552D01*
X0020344Y0048087D02*
X0021111Y0048087D01*
X0027289Y0046862D02*
X0029591Y0046862D01*
X0030359Y0047630D01*
X0030359Y0049164D01*
X0029591Y0049932D01*
X0027289Y0049932D01*
X0027289Y0045328D01*
X0028824Y0046862D02*
X0030359Y0045328D01*
X0031893Y0046095D02*
X0032661Y0045328D01*
X0034195Y0045328D01*
X0034963Y0046095D01*
X0034963Y0046862D01*
X0034195Y0047630D01*
X0033428Y0047630D01*
X0034195Y0047630D02*
X0034963Y0048397D01*
X0034963Y0049164D01*
X0034195Y0049932D01*
X0032661Y0049932D01*
X0031893Y0049164D01*
X0004997Y0050388D02*
X0004997Y0045785D01*
X0034341Y0092944D02*
X0035876Y0092944D01*
X0036643Y0093711D01*
X0038178Y0093711D02*
X0038945Y0092944D01*
X0040480Y0092944D01*
X0041247Y0093711D01*
X0041247Y0095246D01*
X0040480Y0096013D01*
X0039713Y0096013D01*
X0038178Y0095246D01*
X0038178Y0097548D01*
X0041247Y0097548D01*
X0036643Y0096781D02*
X0035876Y0097548D01*
X0034341Y0097548D01*
X0033574Y0096781D01*
X0033574Y0093711D01*
X0034341Y0092944D01*
X0047330Y0123172D02*
X0048865Y0123172D01*
X0049632Y0123940D01*
X0051167Y0125474D02*
X0054236Y0125474D01*
X0053469Y0123172D02*
X0053469Y0127776D01*
X0051167Y0125474D01*
X0049632Y0127009D02*
X0048865Y0127776D01*
X0047330Y0127776D01*
X0046563Y0127009D01*
X0046563Y0123940D01*
X0047330Y0123172D01*
X0087242Y0160347D02*
X0088009Y0159580D01*
X0089544Y0159580D01*
X0090311Y0160347D01*
X0091846Y0160347D02*
X0092613Y0159580D01*
X0094148Y0159580D01*
X0094915Y0160347D01*
X0094915Y0161114D01*
X0094148Y0161882D01*
X0093381Y0161882D01*
X0094148Y0161882D02*
X0094915Y0162649D01*
X0094915Y0163416D01*
X0094148Y0164184D01*
X0092613Y0164184D01*
X0091846Y0163416D01*
X0090311Y0163416D02*
X0089544Y0164184D01*
X0088009Y0164184D01*
X0087242Y0163416D01*
X0087242Y0160347D01*
X0088009Y0177080D02*
X0087242Y0177847D01*
X0087242Y0180916D01*
X0088009Y0181684D01*
X0089544Y0181684D01*
X0090311Y0180916D01*
X0091846Y0180916D02*
X0092613Y0181684D01*
X0094148Y0181684D01*
X0094915Y0180916D01*
X0094915Y0180149D01*
X0091846Y0177080D01*
X0094915Y0177080D01*
X0090311Y0177847D02*
X0089544Y0177080D01*
X0088009Y0177080D01*
X0113233Y0119780D02*
X0111063Y0117609D01*
X0111063Y0116524D01*
X0112148Y0115439D01*
X0113233Y0115439D01*
X0114318Y0114354D02*
X0114861Y0114897D01*
X0115946Y0114897D01*
X0117031Y0113811D01*
X0117031Y0112726D01*
X0116489Y0112184D01*
X0115403Y0112184D01*
X0114318Y0113269D01*
X0114318Y0114354D01*
X0115946Y0114897D02*
X0115946Y0115982D01*
X0116489Y0116524D01*
X0117574Y0116524D01*
X0118659Y0115439D01*
X0118659Y0114354D01*
X0118116Y0113811D01*
X0117031Y0113811D01*
X0115403Y0117609D02*
X0115403Y0118695D01*
X0114318Y0119780D01*
X0113233Y0119780D01*
X0153967Y0191330D02*
X0155502Y0191330D01*
X0156269Y0192097D01*
X0157804Y0191330D02*
X0160873Y0191330D01*
X0159339Y0191330D02*
X0159339Y0195934D01*
X0157804Y0194399D01*
X0156269Y0195166D02*
X0155502Y0195934D01*
X0153967Y0195934D01*
X0153200Y0195166D01*
X0153200Y0192097D01*
X0153967Y0191330D01*
X0167717Y0040934D02*
X0166950Y0040166D01*
X0166950Y0037097D01*
X0167717Y0036330D01*
X0169252Y0036330D01*
X0170019Y0037097D01*
X0171554Y0037097D02*
X0171554Y0036330D01*
X0171554Y0037097D02*
X0174623Y0040166D01*
X0174623Y0040934D01*
X0171554Y0040934D01*
X0170019Y0040166D02*
X0169252Y0040934D01*
X0167717Y0040934D01*
X0153606Y0013184D02*
X0154373Y0012416D01*
X0154373Y0011649D01*
X0153606Y0010882D01*
X0154373Y0010114D01*
X0154373Y0009347D01*
X0153606Y0008580D01*
X0152071Y0008580D01*
X0151304Y0009347D01*
X0149769Y0009347D02*
X0149769Y0013184D01*
X0151304Y0012416D02*
X0152071Y0013184D01*
X0153606Y0013184D01*
X0153606Y0010882D02*
X0152839Y0010882D01*
X0149769Y0009347D02*
X0149002Y0008580D01*
X0147467Y0008580D01*
X0146700Y0009347D01*
X0146700Y0013184D01*
X0127932Y0016554D02*
X0126847Y0015469D01*
X0125762Y0015469D01*
X0124677Y0016554D01*
X0126305Y0018181D01*
X0127390Y0018181D01*
X0127932Y0017639D01*
X0127932Y0016554D01*
X0124677Y0016554D02*
X0124677Y0018724D01*
X0125220Y0020352D01*
X0122507Y0016554D02*
X0121421Y0016554D01*
X0119794Y0014926D01*
X0123049Y0011671D01*
X0121964Y0012756D02*
X0123592Y0014383D01*
X0123592Y0015469D01*
X0122507Y0016554D01*
X0123049Y0013841D02*
X0125220Y0013841D01*
D11*
X0110004Y0033587D02*
X0108724Y0033587D01*
X0059512Y0033587D01*
X0058232Y0033587D01*
X0056559Y0035260D01*
X0056559Y0037524D01*
X0056559Y0109374D01*
X0056559Y0110653D01*
X0058232Y0112327D01*
X0059512Y0112327D01*
X0108724Y0112327D01*
X0110004Y0112327D01*
X0111677Y0110653D01*
X0111677Y0109374D01*
X0111677Y0036539D01*
X0111677Y0035260D01*
X0110004Y0033587D01*
X0094354Y0044846D02*
X0094356Y0044999D01*
X0094362Y0045153D01*
X0094372Y0045306D01*
X0094386Y0045458D01*
X0094404Y0045611D01*
X0094426Y0045762D01*
X0094451Y0045913D01*
X0094481Y0046064D01*
X0094515Y0046214D01*
X0094552Y0046362D01*
X0094593Y0046510D01*
X0094638Y0046656D01*
X0094687Y0046802D01*
X0094740Y0046946D01*
X0094796Y0047088D01*
X0094856Y0047229D01*
X0094920Y0047369D01*
X0094987Y0047507D01*
X0095058Y0047643D01*
X0095133Y0047777D01*
X0095210Y0047909D01*
X0095292Y0048039D01*
X0095376Y0048167D01*
X0095464Y0048293D01*
X0095555Y0048416D01*
X0095649Y0048537D01*
X0095747Y0048655D01*
X0095847Y0048771D01*
X0095951Y0048884D01*
X0096057Y0048995D01*
X0096166Y0049103D01*
X0096278Y0049208D01*
X0096392Y0049309D01*
X0096510Y0049408D01*
X0096629Y0049504D01*
X0096751Y0049597D01*
X0096876Y0049686D01*
X0097003Y0049773D01*
X0097132Y0049855D01*
X0097263Y0049935D01*
X0097396Y0050011D01*
X0097531Y0050084D01*
X0097668Y0050153D01*
X0097807Y0050218D01*
X0097947Y0050280D01*
X0098089Y0050338D01*
X0098232Y0050393D01*
X0098377Y0050444D01*
X0098523Y0050491D01*
X0098670Y0050534D01*
X0098818Y0050573D01*
X0098967Y0050609D01*
X0099117Y0050640D01*
X0099268Y0050668D01*
X0099419Y0050692D01*
X0099572Y0050712D01*
X0099724Y0050728D01*
X0099877Y0050740D01*
X0100030Y0050748D01*
X0100183Y0050752D01*
X0100337Y0050752D01*
X0100490Y0050748D01*
X0100643Y0050740D01*
X0100796Y0050728D01*
X0100948Y0050712D01*
X0101101Y0050692D01*
X0101252Y0050668D01*
X0101403Y0050640D01*
X0101553Y0050609D01*
X0101702Y0050573D01*
X0101850Y0050534D01*
X0101997Y0050491D01*
X0102143Y0050444D01*
X0102288Y0050393D01*
X0102431Y0050338D01*
X0102573Y0050280D01*
X0102713Y0050218D01*
X0102852Y0050153D01*
X0102989Y0050084D01*
X0103124Y0050011D01*
X0103257Y0049935D01*
X0103388Y0049855D01*
X0103517Y0049773D01*
X0103644Y0049686D01*
X0103769Y0049597D01*
X0103891Y0049504D01*
X0104010Y0049408D01*
X0104128Y0049309D01*
X0104242Y0049208D01*
X0104354Y0049103D01*
X0104463Y0048995D01*
X0104569Y0048884D01*
X0104673Y0048771D01*
X0104773Y0048655D01*
X0104871Y0048537D01*
X0104965Y0048416D01*
X0105056Y0048293D01*
X0105144Y0048167D01*
X0105228Y0048039D01*
X0105310Y0047909D01*
X0105387Y0047777D01*
X0105462Y0047643D01*
X0105533Y0047507D01*
X0105600Y0047369D01*
X0105664Y0047229D01*
X0105724Y0047088D01*
X0105780Y0046946D01*
X0105833Y0046802D01*
X0105882Y0046656D01*
X0105927Y0046510D01*
X0105968Y0046362D01*
X0106005Y0046214D01*
X0106039Y0046064D01*
X0106069Y0045913D01*
X0106094Y0045762D01*
X0106116Y0045611D01*
X0106134Y0045458D01*
X0106148Y0045306D01*
X0106158Y0045153D01*
X0106164Y0044999D01*
X0106166Y0044846D01*
X0106164Y0044693D01*
X0106158Y0044539D01*
X0106148Y0044386D01*
X0106134Y0044234D01*
X0106116Y0044081D01*
X0106094Y0043930D01*
X0106069Y0043779D01*
X0106039Y0043628D01*
X0106005Y0043478D01*
X0105968Y0043330D01*
X0105927Y0043182D01*
X0105882Y0043036D01*
X0105833Y0042890D01*
X0105780Y0042746D01*
X0105724Y0042604D01*
X0105664Y0042463D01*
X0105600Y0042323D01*
X0105533Y0042185D01*
X0105462Y0042049D01*
X0105387Y0041915D01*
X0105310Y0041783D01*
X0105228Y0041653D01*
X0105144Y0041525D01*
X0105056Y0041399D01*
X0104965Y0041276D01*
X0104871Y0041155D01*
X0104773Y0041037D01*
X0104673Y0040921D01*
X0104569Y0040808D01*
X0104463Y0040697D01*
X0104354Y0040589D01*
X0104242Y0040484D01*
X0104128Y0040383D01*
X0104010Y0040284D01*
X0103891Y0040188D01*
X0103769Y0040095D01*
X0103644Y0040006D01*
X0103517Y0039919D01*
X0103388Y0039837D01*
X0103257Y0039757D01*
X0103124Y0039681D01*
X0102989Y0039608D01*
X0102852Y0039539D01*
X0102713Y0039474D01*
X0102573Y0039412D01*
X0102431Y0039354D01*
X0102288Y0039299D01*
X0102143Y0039248D01*
X0101997Y0039201D01*
X0101850Y0039158D01*
X0101702Y0039119D01*
X0101553Y0039083D01*
X0101403Y0039052D01*
X0101252Y0039024D01*
X0101101Y0039000D01*
X0100948Y0038980D01*
X0100796Y0038964D01*
X0100643Y0038952D01*
X0100490Y0038944D01*
X0100337Y0038940D01*
X0100183Y0038940D01*
X0100030Y0038944D01*
X0099877Y0038952D01*
X0099724Y0038964D01*
X0099572Y0038980D01*
X0099419Y0039000D01*
X0099268Y0039024D01*
X0099117Y0039052D01*
X0098967Y0039083D01*
X0098818Y0039119D01*
X0098670Y0039158D01*
X0098523Y0039201D01*
X0098377Y0039248D01*
X0098232Y0039299D01*
X0098089Y0039354D01*
X0097947Y0039412D01*
X0097807Y0039474D01*
X0097668Y0039539D01*
X0097531Y0039608D01*
X0097396Y0039681D01*
X0097263Y0039757D01*
X0097132Y0039837D01*
X0097003Y0039919D01*
X0096876Y0040006D01*
X0096751Y0040095D01*
X0096629Y0040188D01*
X0096510Y0040284D01*
X0096392Y0040383D01*
X0096278Y0040484D01*
X0096166Y0040589D01*
X0096057Y0040697D01*
X0095951Y0040808D01*
X0095847Y0040921D01*
X0095747Y0041037D01*
X0095649Y0041155D01*
X0095555Y0041276D01*
X0095464Y0041399D01*
X0095376Y0041525D01*
X0095292Y0041653D01*
X0095210Y0041783D01*
X0095133Y0041915D01*
X0095058Y0042049D01*
X0094987Y0042185D01*
X0094920Y0042323D01*
X0094856Y0042463D01*
X0094796Y0042604D01*
X0094740Y0042746D01*
X0094687Y0042890D01*
X0094638Y0043036D01*
X0094593Y0043182D01*
X0094552Y0043330D01*
X0094515Y0043478D01*
X0094481Y0043628D01*
X0094451Y0043779D01*
X0094426Y0043930D01*
X0094404Y0044081D01*
X0094386Y0044234D01*
X0094372Y0044386D01*
X0094362Y0044539D01*
X0094356Y0044693D01*
X0094354Y0044846D01*
X0056936Y0021742D02*
X0056936Y0020681D01*
X0055874Y0019619D01*
X0054813Y0019619D01*
X0053220Y0021212D01*
X0052159Y0020150D02*
X0055343Y0023335D01*
X0056936Y0021742D01*
X0054211Y0024467D02*
X0053149Y0025529D01*
X0053680Y0024998D02*
X0051026Y0022344D01*
X0049965Y0022344D01*
X0049434Y0022875D01*
X0049434Y0023936D01*
X0013712Y0128435D02*
X0010709Y0128435D01*
X0012210Y0128435D02*
X0012210Y0132939D01*
X0010709Y0131438D01*
X0009108Y0132188D02*
X0009108Y0129186D01*
X0008357Y0128435D01*
X0006856Y0128435D01*
X0006105Y0129186D01*
X0006105Y0132188D01*
X0006856Y0132939D01*
X0008357Y0132939D01*
X0009108Y0132188D01*
X0007606Y0129936D02*
X0009108Y0128435D01*
X0129860Y0182630D02*
X0130611Y0181880D01*
X0132112Y0181880D01*
X0132863Y0182630D01*
X0132863Y0186384D01*
X0134464Y0184882D02*
X0135965Y0186384D01*
X0135965Y0181880D01*
X0134464Y0181880D02*
X0137467Y0181880D01*
X0129860Y0182630D02*
X0129860Y0186384D01*
X0176500Y0184630D02*
X0210250Y0184630D01*
X0212750Y0182130D01*
X0212750Y0022130D01*
X0210250Y0019630D01*
X0176500Y0019630D01*
D12*
X0111677Y0036539D02*
X0109709Y0036539D01*
X0108724Y0035555D01*
X0108724Y0033587D01*
X0108724Y0035555D02*
X0059512Y0035555D01*
X0059512Y0033587D01*
X0059512Y0035555D02*
X0058528Y0036539D01*
X0058528Y0037524D01*
X0056559Y0037524D01*
X0058528Y0037524D02*
X0058528Y0109374D01*
X0056559Y0109374D01*
X0058528Y0109374D02*
X0059512Y0110358D01*
X0059512Y0112327D01*
X0059512Y0110358D02*
X0108724Y0110358D01*
X0108724Y0112327D01*
X0108724Y0110358D02*
X0109709Y0109374D01*
X0111677Y0109374D01*
X0109709Y0109374D02*
X0109709Y0036539D01*
X0027305Y0087567D02*
X0027305Y0114567D01*
X0024305Y0114567D02*
X0024305Y0087567D01*
X0024303Y0087434D01*
X0024298Y0087302D01*
X0024289Y0087170D01*
X0024277Y0087037D01*
X0024261Y0086906D01*
X0024242Y0086774D01*
X0024219Y0086644D01*
X0024193Y0086514D01*
X0024163Y0086384D01*
X0024130Y0086256D01*
X0024094Y0086128D01*
X0024054Y0086002D01*
X0024011Y0085876D01*
X0023964Y0085752D01*
X0023914Y0085629D01*
X0023861Y0085508D01*
X0023805Y0085388D01*
X0027305Y0087567D02*
X0027303Y0087373D01*
X0027296Y0087178D01*
X0027284Y0086984D01*
X0027267Y0086790D01*
X0027246Y0086596D01*
X0027220Y0086403D01*
X0027189Y0086211D01*
X0027154Y0086020D01*
X0027114Y0085829D01*
X0027069Y0085640D01*
X0027020Y0085451D01*
X0026966Y0085264D01*
X0026908Y0085078D01*
X0026845Y0084894D01*
X0026778Y0084711D01*
X0026706Y0084530D01*
X0026630Y0084351D01*
X0026550Y0084174D01*
X0026465Y0083999D01*
X0026376Y0083825D01*
X0026283Y0083654D01*
X0026186Y0083486D01*
X0026084Y0083320D01*
X0025979Y0083156D01*
X0025870Y0082995D01*
X0025756Y0082836D01*
X0025639Y0082681D01*
X0025519Y0082528D01*
X0025394Y0082378D01*
X0025266Y0082232D01*
X0025135Y0082088D01*
X0025000Y0081948D01*
X0024861Y0081811D01*
X0024719Y0081678D01*
X0024575Y0081548D01*
X0024427Y0081421D01*
X0024275Y0081298D01*
X0024121Y0081179D01*
X0023965Y0081064D01*
X0023805Y0080953D01*
X0014805Y0085388D02*
X0014749Y0085508D01*
X0014696Y0085629D01*
X0014646Y0085752D01*
X0014599Y0085876D01*
X0014556Y0086002D01*
X0014516Y0086128D01*
X0014480Y0086256D01*
X0014447Y0086384D01*
X0014417Y0086514D01*
X0014391Y0086644D01*
X0014368Y0086774D01*
X0014349Y0086906D01*
X0014333Y0087037D01*
X0014321Y0087170D01*
X0014312Y0087302D01*
X0014307Y0087434D01*
X0014305Y0087567D01*
X0014305Y0114567D01*
X0011305Y0114567D02*
X0011305Y0087567D01*
X0011307Y0087372D01*
X0011314Y0087178D01*
X0011326Y0086983D01*
X0011343Y0086789D01*
X0011364Y0086596D01*
X0011390Y0086403D01*
X0011421Y0086211D01*
X0011456Y0086019D01*
X0011496Y0085829D01*
X0011541Y0085639D01*
X0011590Y0085451D01*
X0011644Y0085264D01*
X0011702Y0085078D01*
X0011765Y0084894D01*
X0011832Y0084711D01*
X0011904Y0084530D01*
X0011980Y0084351D01*
X0012060Y0084174D01*
X0012145Y0083998D01*
X0012234Y0083825D01*
X0012327Y0083654D01*
X0012424Y0083486D01*
X0012526Y0083319D01*
X0012631Y0083156D01*
X0012741Y0082995D01*
X0012854Y0082836D01*
X0012971Y0082681D01*
X0013092Y0082528D01*
X0013216Y0082378D01*
X0013344Y0082232D01*
X0013476Y0082088D01*
X0013611Y0081948D01*
X0013749Y0081811D01*
X0013891Y0081678D01*
X0014036Y0081548D01*
X0014184Y0081421D01*
X0014335Y0081298D01*
X0014489Y0081179D01*
X0014646Y0081064D01*
X0014805Y0080952D01*
X0019305Y0096567D02*
X0019305Y0098567D01*
X0019305Y0103567D02*
X0019305Y0105567D01*
X0027305Y0114566D02*
X0027303Y0114761D01*
X0027296Y0114956D01*
X0027284Y0115150D01*
X0027267Y0115344D01*
X0027246Y0115537D01*
X0027220Y0115730D01*
X0027189Y0115923D01*
X0027154Y0116114D01*
X0027114Y0116305D01*
X0027069Y0116494D01*
X0027020Y0116682D01*
X0026966Y0116870D01*
X0026908Y0117055D01*
X0026845Y0117240D01*
X0026778Y0117422D01*
X0026706Y0117603D01*
X0026630Y0117782D01*
X0026550Y0117960D01*
X0026465Y0118135D01*
X0026376Y0118308D01*
X0026283Y0118479D01*
X0026185Y0118648D01*
X0026084Y0118814D01*
X0025979Y0118978D01*
X0025869Y0119139D01*
X0025756Y0119297D01*
X0025639Y0119453D01*
X0025518Y0119605D01*
X0025394Y0119755D01*
X0025266Y0119902D01*
X0025134Y0120045D01*
X0024999Y0120185D01*
X0024861Y0120322D01*
X0024719Y0120456D01*
X0024574Y0120586D01*
X0024426Y0120712D01*
X0024275Y0120835D01*
X0024121Y0120954D01*
X0023964Y0121069D01*
X0023805Y0121181D01*
X0014805Y0121181D02*
X0014645Y0121070D01*
X0014489Y0120955D01*
X0014335Y0120836D01*
X0014183Y0120713D01*
X0014035Y0120586D01*
X0013891Y0120456D01*
X0013749Y0120323D01*
X0013610Y0120186D01*
X0013475Y0120046D01*
X0013344Y0119902D01*
X0013216Y0119756D01*
X0013091Y0119606D01*
X0012971Y0119453D01*
X0012854Y0119298D01*
X0012740Y0119139D01*
X0012631Y0118978D01*
X0012526Y0118814D01*
X0012424Y0118648D01*
X0012327Y0118480D01*
X0012234Y0118309D01*
X0012145Y0118135D01*
X0012060Y0117960D01*
X0011980Y0117783D01*
X0011904Y0117604D01*
X0011832Y0117423D01*
X0011765Y0117240D01*
X0011702Y0117056D01*
X0011644Y0116870D01*
X0011590Y0116683D01*
X0011541Y0116494D01*
X0011496Y0116305D01*
X0011456Y0116114D01*
X0011421Y0115923D01*
X0011390Y0115731D01*
X0011364Y0115538D01*
X0011343Y0115344D01*
X0011326Y0115150D01*
X0011314Y0114956D01*
X0011307Y0114761D01*
X0011305Y0114567D01*
X0014305Y0114567D02*
X0014307Y0114700D01*
X0014312Y0114832D01*
X0014321Y0114964D01*
X0014333Y0115097D01*
X0014349Y0115228D01*
X0014368Y0115360D01*
X0014391Y0115490D01*
X0014417Y0115620D01*
X0014447Y0115750D01*
X0014480Y0115878D01*
X0014516Y0116006D01*
X0014556Y0116132D01*
X0014599Y0116258D01*
X0014646Y0116382D01*
X0014696Y0116505D01*
X0014749Y0116626D01*
X0014805Y0116746D01*
X0023805Y0116746D02*
X0023861Y0116626D01*
X0023914Y0116505D01*
X0023964Y0116382D01*
X0024011Y0116258D01*
X0024054Y0116132D01*
X0024094Y0116006D01*
X0024130Y0115878D01*
X0024163Y0115750D01*
X0024193Y0115620D01*
X0024219Y0115490D01*
X0024242Y0115360D01*
X0024261Y0115228D01*
X0024277Y0115097D01*
X0024289Y0114964D01*
X0024298Y0114832D01*
X0024303Y0114700D01*
X0024305Y0114567D01*
X0128810Y0129130D02*
X0128810Y0180130D01*
D13*
X0087730Y0133903D02*
X0085629Y0133903D01*
X0084578Y0132852D01*
X0082336Y0133903D02*
X0082336Y0128649D01*
X0081285Y0127598D01*
X0079183Y0127598D01*
X0078132Y0128649D01*
X0078132Y0133903D01*
X0084578Y0127598D02*
X0088781Y0131802D01*
X0088781Y0132852D01*
X0087730Y0133903D01*
X0088781Y0127598D02*
X0084578Y0127598D01*
D14*
X0128910Y0129030D02*
X0155310Y0129030D01*
X0155386Y0129032D01*
X0155462Y0129038D01*
X0155537Y0129047D01*
X0155612Y0129061D01*
X0155686Y0129078D01*
X0155759Y0129099D01*
X0155831Y0129123D01*
X0155902Y0129152D01*
X0155971Y0129183D01*
X0156038Y0129218D01*
X0156103Y0129257D01*
X0156167Y0129299D01*
X0156228Y0129344D01*
X0156287Y0129392D01*
X0156343Y0129443D01*
X0156397Y0129497D01*
X0156448Y0129553D01*
X0156496Y0129612D01*
X0156541Y0129673D01*
X0156583Y0129737D01*
X0156622Y0129802D01*
X0156657Y0129869D01*
X0156688Y0129938D01*
X0156717Y0130009D01*
X0156741Y0130081D01*
X0156762Y0130154D01*
X0156779Y0130228D01*
X0156793Y0130303D01*
X0156802Y0130378D01*
X0156808Y0130454D01*
X0156810Y0130530D01*
X0128910Y0129030D02*
X0128834Y0129032D01*
X0128758Y0129038D01*
X0128683Y0129047D01*
X0128608Y0129061D01*
X0128534Y0129078D01*
X0128461Y0129099D01*
X0128389Y0129123D01*
X0128318Y0129152D01*
X0128249Y0129183D01*
X0128182Y0129218D01*
X0128117Y0129257D01*
X0128053Y0129299D01*
X0127992Y0129344D01*
X0127933Y0129392D01*
X0127877Y0129443D01*
X0127823Y0129497D01*
X0127772Y0129553D01*
X0127724Y0129612D01*
X0127679Y0129673D01*
X0127637Y0129737D01*
X0127598Y0129802D01*
X0127563Y0129869D01*
X0127532Y0129938D01*
X0127503Y0130009D01*
X0127479Y0130081D01*
X0127458Y0130154D01*
X0127441Y0130228D01*
X0127427Y0130303D01*
X0127418Y0130378D01*
X0127412Y0130454D01*
X0127410Y0130530D01*
X0127410Y0178730D02*
X0127412Y0178806D01*
X0127418Y0178882D01*
X0127427Y0178957D01*
X0127441Y0179032D01*
X0127458Y0179106D01*
X0127479Y0179179D01*
X0127503Y0179251D01*
X0127532Y0179322D01*
X0127563Y0179391D01*
X0127598Y0179458D01*
X0127637Y0179523D01*
X0127679Y0179587D01*
X0127724Y0179648D01*
X0127772Y0179707D01*
X0127823Y0179763D01*
X0127877Y0179817D01*
X0127933Y0179868D01*
X0127992Y0179916D01*
X0128053Y0179961D01*
X0128117Y0180003D01*
X0128182Y0180042D01*
X0128249Y0180077D01*
X0128318Y0180108D01*
X0128389Y0180137D01*
X0128461Y0180161D01*
X0128534Y0180182D01*
X0128608Y0180199D01*
X0128683Y0180213D01*
X0128758Y0180222D01*
X0128834Y0180228D01*
X0128910Y0180230D01*
X0137110Y0180230D01*
X0147110Y0180230D01*
X0155310Y0180230D01*
X0155386Y0180228D01*
X0155462Y0180222D01*
X0155537Y0180213D01*
X0155612Y0180199D01*
X0155686Y0180182D01*
X0155759Y0180161D01*
X0155831Y0180137D01*
X0155902Y0180108D01*
X0155971Y0180077D01*
X0156038Y0180042D01*
X0156103Y0180003D01*
X0156167Y0179961D01*
X0156228Y0179916D01*
X0156287Y0179868D01*
X0156343Y0179817D01*
X0156397Y0179763D01*
X0156448Y0179707D01*
X0156496Y0179648D01*
X0156541Y0179587D01*
X0156583Y0179523D01*
X0156622Y0179458D01*
X0156657Y0179391D01*
X0156688Y0179322D01*
X0156717Y0179251D01*
X0156741Y0179179D01*
X0156762Y0179106D01*
X0156779Y0179032D01*
X0156793Y0178957D01*
X0156802Y0178882D01*
X0156808Y0178806D01*
X0156810Y0178730D01*
X0147110Y0180230D02*
X0147108Y0180090D01*
X0147102Y0179950D01*
X0147092Y0179810D01*
X0147079Y0179670D01*
X0147061Y0179531D01*
X0147039Y0179392D01*
X0147014Y0179255D01*
X0146985Y0179117D01*
X0146952Y0178981D01*
X0146915Y0178846D01*
X0146874Y0178712D01*
X0146829Y0178579D01*
X0146781Y0178447D01*
X0146729Y0178317D01*
X0146674Y0178188D01*
X0146615Y0178061D01*
X0146552Y0177935D01*
X0146486Y0177811D01*
X0146417Y0177690D01*
X0146344Y0177570D01*
X0146267Y0177452D01*
X0146188Y0177337D01*
X0146105Y0177223D01*
X0146019Y0177113D01*
X0145930Y0177004D01*
X0145838Y0176898D01*
X0145743Y0176795D01*
X0145646Y0176694D01*
X0145545Y0176597D01*
X0145442Y0176502D01*
X0145336Y0176410D01*
X0145227Y0176321D01*
X0145117Y0176235D01*
X0145003Y0176152D01*
X0144888Y0176073D01*
X0144770Y0175996D01*
X0144650Y0175923D01*
X0144529Y0175854D01*
X0144405Y0175788D01*
X0144279Y0175725D01*
X0144152Y0175666D01*
X0144023Y0175611D01*
X0143893Y0175559D01*
X0143761Y0175511D01*
X0143628Y0175466D01*
X0143494Y0175425D01*
X0143359Y0175388D01*
X0143223Y0175355D01*
X0143085Y0175326D01*
X0142948Y0175301D01*
X0142809Y0175279D01*
X0142670Y0175261D01*
X0142530Y0175248D01*
X0142390Y0175238D01*
X0142250Y0175232D01*
X0142110Y0175230D01*
X0141970Y0175232D01*
X0141830Y0175238D01*
X0141690Y0175248D01*
X0141550Y0175261D01*
X0141411Y0175279D01*
X0141272Y0175301D01*
X0141135Y0175326D01*
X0140997Y0175355D01*
X0140861Y0175388D01*
X0140726Y0175425D01*
X0140592Y0175466D01*
X0140459Y0175511D01*
X0140327Y0175559D01*
X0140197Y0175611D01*
X0140068Y0175666D01*
X0139941Y0175725D01*
X0139815Y0175788D01*
X0139691Y0175854D01*
X0139570Y0175923D01*
X0139450Y0175996D01*
X0139332Y0176073D01*
X0139217Y0176152D01*
X0139103Y0176235D01*
X0138993Y0176321D01*
X0138884Y0176410D01*
X0138778Y0176502D01*
X0138675Y0176597D01*
X0138574Y0176694D01*
X0138477Y0176795D01*
X0138382Y0176898D01*
X0138290Y0177004D01*
X0138201Y0177113D01*
X0138115Y0177223D01*
X0138032Y0177337D01*
X0137953Y0177452D01*
X0137876Y0177570D01*
X0137803Y0177690D01*
X0137734Y0177811D01*
X0137668Y0177935D01*
X0137605Y0178061D01*
X0137546Y0178188D01*
X0137491Y0178317D01*
X0137439Y0178447D01*
X0137391Y0178579D01*
X0137346Y0178712D01*
X0137305Y0178846D01*
X0137268Y0178981D01*
X0137235Y0179117D01*
X0137206Y0179255D01*
X0137181Y0179392D01*
X0137159Y0179531D01*
X0137141Y0179670D01*
X0137128Y0179810D01*
X0137118Y0179950D01*
X0137112Y0180090D01*
X0137110Y0180230D01*
X0028805Y0122567D02*
X0028805Y0079567D01*
X0028803Y0079507D01*
X0028798Y0079446D01*
X0028789Y0079387D01*
X0028776Y0079328D01*
X0028760Y0079269D01*
X0028740Y0079212D01*
X0028717Y0079157D01*
X0028690Y0079102D01*
X0028661Y0079050D01*
X0028628Y0078999D01*
X0028592Y0078950D01*
X0028554Y0078904D01*
X0028512Y0078860D01*
X0028468Y0078818D01*
X0028422Y0078780D01*
X0028373Y0078744D01*
X0028322Y0078711D01*
X0028270Y0078682D01*
X0028215Y0078655D01*
X0028160Y0078632D01*
X0028103Y0078612D01*
X0028044Y0078596D01*
X0027985Y0078583D01*
X0027926Y0078574D01*
X0027865Y0078569D01*
X0027805Y0078567D01*
X0023805Y0078567D01*
X0014805Y0078567D02*
X0010805Y0078567D01*
X0010745Y0078569D01*
X0010684Y0078574D01*
X0010625Y0078583D01*
X0010566Y0078596D01*
X0010507Y0078612D01*
X0010450Y0078632D01*
X0010395Y0078655D01*
X0010340Y0078682D01*
X0010288Y0078711D01*
X0010237Y0078744D01*
X0010188Y0078780D01*
X0010142Y0078818D01*
X0010098Y0078860D01*
X0010056Y0078904D01*
X0010018Y0078950D01*
X0009982Y0078999D01*
X0009949Y0079050D01*
X0009920Y0079102D01*
X0009893Y0079157D01*
X0009870Y0079212D01*
X0009850Y0079269D01*
X0009834Y0079328D01*
X0009821Y0079387D01*
X0009812Y0079446D01*
X0009807Y0079507D01*
X0009805Y0079567D01*
X0009805Y0122567D01*
X0009807Y0122627D01*
X0009812Y0122688D01*
X0009821Y0122747D01*
X0009834Y0122806D01*
X0009850Y0122865D01*
X0009870Y0122922D01*
X0009893Y0122977D01*
X0009920Y0123032D01*
X0009949Y0123084D01*
X0009982Y0123135D01*
X0010018Y0123184D01*
X0010056Y0123230D01*
X0010098Y0123274D01*
X0010142Y0123316D01*
X0010188Y0123354D01*
X0010237Y0123390D01*
X0010288Y0123423D01*
X0010340Y0123452D01*
X0010395Y0123479D01*
X0010450Y0123502D01*
X0010507Y0123522D01*
X0010566Y0123538D01*
X0010625Y0123551D01*
X0010684Y0123560D01*
X0010745Y0123565D01*
X0010805Y0123567D01*
X0014805Y0123567D01*
X0023805Y0123567D02*
X0027805Y0123567D01*
X0027865Y0123565D01*
X0027926Y0123560D01*
X0027985Y0123551D01*
X0028044Y0123538D01*
X0028103Y0123522D01*
X0028160Y0123502D01*
X0028215Y0123479D01*
X0028270Y0123452D01*
X0028322Y0123423D01*
X0028373Y0123390D01*
X0028422Y0123354D01*
X0028468Y0123316D01*
X0028512Y0123274D01*
X0028554Y0123230D01*
X0028592Y0123184D01*
X0028628Y0123135D01*
X0028661Y0123084D01*
X0028690Y0123032D01*
X0028717Y0122977D01*
X0028740Y0122922D01*
X0028760Y0122865D01*
X0028776Y0122806D01*
X0028789Y0122747D01*
X0028798Y0122688D01*
X0028803Y0122627D01*
X0028805Y0122567D01*
X0021805Y0103567D02*
X0019305Y0103567D01*
X0016805Y0103567D01*
X0016805Y0102067D02*
X0016805Y0100067D01*
X0021805Y0100067D01*
X0021805Y0102067D01*
X0016805Y0102067D01*
X0016805Y0098567D02*
X0019305Y0098567D01*
X0021805Y0098567D01*
X0021016Y0162930D02*
X0021016Y0169335D01*
X0023191Y0167200D02*
X0025326Y0169335D01*
X0025326Y0162930D01*
X0023191Y0162930D02*
X0027461Y0162930D01*
X0021016Y0162930D02*
X0016745Y0169335D01*
X0016745Y0162930D01*
X0014570Y0163997D02*
X0013503Y0162930D01*
X0011368Y0162930D01*
X0010300Y0163997D01*
X0010300Y0168268D01*
X0011368Y0169335D01*
X0013503Y0169335D01*
X0014570Y0168268D01*
D15*
X0012888Y0057947D03*
X0012888Y0053222D03*
X0012888Y0042740D03*
X0012888Y0038016D03*
X0012888Y0028518D03*
X0012888Y0023793D03*
D16*
X0012888Y0026155D03*
X0012888Y0040378D03*
X0012888Y0055585D03*
D17*
X0003949Y0137295D02*
X0073480Y0137295D01*
X0073480Y0143130D01*
X0073520Y0143130D01*
X0073480Y0143130D02*
X0071500Y0143130D01*
X0065000Y0148630D02*
X0065000Y0185630D01*
X0063000Y0185630D01*
X0065000Y0185630D02*
X0071500Y0185630D01*
X0071520Y0185630D02*
X0071500Y0191130D01*
X0073520Y0191130D01*
X0073520Y0196964D01*
X0073480Y0196964D02*
X0003949Y0196964D01*
X0003500Y0196630D02*
X0003500Y0137630D01*
X0050000Y0148630D02*
X0065000Y0148630D01*
X0050000Y0148630D02*
X0050000Y0185630D01*
X0055000Y0185630D01*
D18*
X0006000Y0145880D03*
D19*
X0132722Y0064674D02*
X0145528Y0072098D01*
X0145899Y0072098D01*
X0147569Y0063189D01*
X0147755Y0063004D01*
X0151281Y0059106D01*
X0151281Y0058735D01*
X0149425Y0055023D01*
X0132722Y0064674D01*
X0132762Y0064651D02*
X0147295Y0064651D01*
X0147261Y0064834D02*
X0132998Y0064834D01*
X0133315Y0065018D02*
X0147226Y0065018D01*
X0147192Y0065202D02*
X0133631Y0065202D01*
X0133948Y0065385D02*
X0147158Y0065385D01*
X0147123Y0065569D02*
X0134264Y0065569D01*
X0134581Y0065752D02*
X0147089Y0065752D01*
X0147054Y0065936D02*
X0134898Y0065936D01*
X0135214Y0066119D02*
X0147020Y0066119D01*
X0146985Y0066303D02*
X0135531Y0066303D01*
X0135848Y0066486D02*
X0146951Y0066486D01*
X0146917Y0066670D02*
X0136164Y0066670D01*
X0136481Y0066854D02*
X0146882Y0066854D01*
X0146848Y0067037D02*
X0136797Y0067037D01*
X0137114Y0067221D02*
X0146813Y0067221D01*
X0146779Y0067404D02*
X0137431Y0067404D01*
X0137747Y0067588D02*
X0146745Y0067588D01*
X0146710Y0067771D02*
X0138064Y0067771D01*
X0138381Y0067955D02*
X0146676Y0067955D01*
X0146641Y0068138D02*
X0138697Y0068138D01*
X0139014Y0068322D02*
X0146607Y0068322D01*
X0146572Y0068505D02*
X0139330Y0068505D01*
X0139647Y0068689D02*
X0146538Y0068689D01*
X0146504Y0068873D02*
X0139964Y0068873D01*
X0140280Y0069056D02*
X0146469Y0069056D01*
X0146435Y0069240D02*
X0140597Y0069240D01*
X0140914Y0069423D02*
X0146400Y0069423D01*
X0146366Y0069607D02*
X0141230Y0069607D01*
X0141547Y0069790D02*
X0146332Y0069790D01*
X0146297Y0069974D02*
X0141863Y0069974D01*
X0142180Y0070157D02*
X0146263Y0070157D01*
X0146228Y0070341D02*
X0142497Y0070341D01*
X0142813Y0070525D02*
X0146194Y0070525D01*
X0146159Y0070708D02*
X0143130Y0070708D01*
X0143447Y0070892D02*
X0146125Y0070892D01*
X0146091Y0071075D02*
X0143763Y0071075D01*
X0144080Y0071259D02*
X0146056Y0071259D01*
X0146022Y0071442D02*
X0144397Y0071442D01*
X0144713Y0071626D02*
X0145987Y0071626D01*
X0145953Y0071809D02*
X0145030Y0071809D01*
X0145346Y0071993D02*
X0145919Y0071993D01*
X0152580Y0075996D02*
X0161674Y0081192D01*
X0157220Y0071913D01*
X0157035Y0071913D01*
X0152580Y0075996D01*
X0152642Y0076031D02*
X0159197Y0076031D01*
X0159109Y0075848D02*
X0152742Y0075848D01*
X0152942Y0075664D02*
X0159021Y0075664D01*
X0158933Y0075480D02*
X0153142Y0075480D01*
X0153343Y0075297D02*
X0158845Y0075297D01*
X0158757Y0075113D02*
X0153543Y0075113D01*
X0153743Y0074930D02*
X0158668Y0074930D01*
X0158580Y0074746D02*
X0153943Y0074746D01*
X0154144Y0074563D02*
X0158492Y0074563D01*
X0158404Y0074379D02*
X0154344Y0074379D01*
X0154544Y0074196D02*
X0158316Y0074196D01*
X0158228Y0074012D02*
X0154744Y0074012D01*
X0154945Y0073828D02*
X0158140Y0073828D01*
X0158052Y0073645D02*
X0155145Y0073645D01*
X0155345Y0073461D02*
X0157964Y0073461D01*
X0157875Y0073278D02*
X0155545Y0073278D01*
X0155745Y0073094D02*
X0157787Y0073094D01*
X0157699Y0072911D02*
X0155946Y0072911D01*
X0156146Y0072727D02*
X0157611Y0072727D01*
X0157523Y0072544D02*
X0156346Y0072544D01*
X0156546Y0072360D02*
X0157435Y0072360D01*
X0157347Y0072176D02*
X0156747Y0072176D01*
X0156947Y0071993D02*
X0157259Y0071993D01*
X0159682Y0070892D02*
X0166129Y0070892D01*
X0166129Y0071075D02*
X0159766Y0071075D01*
X0159850Y0071259D02*
X0166129Y0071259D01*
X0166129Y0071442D02*
X0159934Y0071442D01*
X0160018Y0071626D02*
X0166129Y0071626D01*
X0166129Y0071809D02*
X0160102Y0071809D01*
X0160186Y0071993D02*
X0166129Y0071993D01*
X0166129Y0072176D02*
X0160270Y0072176D01*
X0160354Y0072360D02*
X0166129Y0072360D01*
X0166129Y0072544D02*
X0160438Y0072544D01*
X0160523Y0072727D02*
X0166129Y0072727D01*
X0166129Y0072911D02*
X0160607Y0072911D01*
X0160691Y0073094D02*
X0166129Y0073094D01*
X0166129Y0073278D02*
X0160775Y0073278D01*
X0160859Y0073461D02*
X0166129Y0073461D01*
X0166129Y0073645D02*
X0160943Y0073645D01*
X0161027Y0073828D02*
X0166129Y0073828D01*
X0166129Y0074012D02*
X0161111Y0074012D01*
X0161195Y0074196D02*
X0166129Y0074196D01*
X0166129Y0074379D02*
X0161279Y0074379D01*
X0161363Y0074563D02*
X0166129Y0074563D01*
X0166129Y0074746D02*
X0161447Y0074746D01*
X0161531Y0074930D02*
X0166129Y0074930D01*
X0166129Y0075113D02*
X0161615Y0075113D01*
X0161699Y0075297D02*
X0166129Y0075297D01*
X0166129Y0075480D02*
X0161783Y0075480D01*
X0161867Y0075664D02*
X0166129Y0075664D01*
X0166129Y0075848D02*
X0161951Y0075848D01*
X0162035Y0076031D02*
X0166129Y0076031D01*
X0166129Y0076215D02*
X0162119Y0076215D01*
X0162203Y0076398D02*
X0166129Y0076398D01*
X0166129Y0076582D02*
X0162287Y0076582D01*
X0162371Y0076765D02*
X0166129Y0076765D01*
X0166129Y0076949D02*
X0162455Y0076949D01*
X0162539Y0077132D02*
X0166129Y0077132D01*
X0166129Y0077316D02*
X0162623Y0077316D01*
X0162707Y0077499D02*
X0166129Y0077499D01*
X0166129Y0077683D02*
X0162791Y0077683D01*
X0162875Y0077867D02*
X0166129Y0077867D01*
X0166129Y0078050D02*
X0162959Y0078050D01*
X0163044Y0078234D02*
X0166129Y0078234D01*
X0166129Y0078417D02*
X0163128Y0078417D01*
X0163212Y0078601D02*
X0166129Y0078601D01*
X0166129Y0078784D02*
X0163296Y0078784D01*
X0163380Y0078968D02*
X0166129Y0078968D01*
X0166129Y0079151D02*
X0163464Y0079151D01*
X0163548Y0079335D02*
X0166129Y0079335D01*
X0166129Y0079519D02*
X0163632Y0079519D01*
X0163716Y0079702D02*
X0166129Y0079702D01*
X0166129Y0079886D02*
X0163800Y0079886D01*
X0163884Y0080069D02*
X0166129Y0080069D01*
X0166129Y0080253D02*
X0163968Y0080253D01*
X0164052Y0080436D02*
X0166129Y0080436D01*
X0166129Y0080620D02*
X0164136Y0080620D01*
X0164220Y0080803D02*
X0166129Y0080803D01*
X0166129Y0080987D02*
X0164304Y0080987D01*
X0164388Y0081170D02*
X0166129Y0081170D01*
X0166129Y0081354D02*
X0164472Y0081354D01*
X0164556Y0081538D02*
X0166129Y0081538D01*
X0166129Y0081721D02*
X0164640Y0081721D01*
X0164724Y0081905D02*
X0166129Y0081905D01*
X0166129Y0082088D02*
X0164808Y0082088D01*
X0164892Y0082272D02*
X0166129Y0082272D01*
X0166129Y0082455D02*
X0164976Y0082455D01*
X0165060Y0082639D02*
X0166129Y0082639D01*
X0166129Y0082822D02*
X0165144Y0082822D01*
X0165228Y0083006D02*
X0166129Y0083006D01*
X0166129Y0083190D02*
X0165312Y0083190D01*
X0165396Y0083373D02*
X0166129Y0083373D01*
X0166129Y0083557D02*
X0165480Y0083557D01*
X0165564Y0083740D02*
X0166129Y0083740D01*
X0166129Y0083924D02*
X0165649Y0083924D01*
X0165733Y0084107D02*
X0166129Y0084107D01*
X0166129Y0084162D02*
X0166129Y0045001D01*
X0151467Y0053353D01*
X0153137Y0056879D01*
X0154065Y0056322D01*
X0154436Y0056137D01*
X0155921Y0056137D01*
X0163345Y0056694D01*
X0163345Y0057065D01*
X0162974Y0057622D01*
X0162231Y0057993D01*
X0161118Y0058364D01*
X0159447Y0058550D01*
X0155921Y0058550D01*
X0154622Y0059477D01*
X0154622Y0060034D01*
X0157035Y0065045D01*
X0157220Y0065045D01*
X0160375Y0061519D01*
X0161489Y0060777D01*
X0162231Y0060405D01*
X0162788Y0060405D01*
X0163159Y0060591D01*
X0163345Y0060777D01*
X0163345Y0061148D01*
X0162602Y0062447D01*
X0161674Y0063932D01*
X0160746Y0065231D01*
X0159633Y0066901D01*
X0158705Y0068386D01*
X0158705Y0068757D01*
X0165757Y0084162D01*
X0166129Y0084162D01*
X0161664Y0081170D02*
X0161637Y0081170D01*
X0161576Y0080987D02*
X0161315Y0080987D01*
X0161488Y0080803D02*
X0160994Y0080803D01*
X0160673Y0080620D02*
X0161400Y0080620D01*
X0161312Y0080436D02*
X0160352Y0080436D01*
X0160031Y0080253D02*
X0161224Y0080253D01*
X0161135Y0080069D02*
X0159709Y0080069D01*
X0159388Y0079886D02*
X0161047Y0079886D01*
X0160959Y0079702D02*
X0159067Y0079702D01*
X0158746Y0079519D02*
X0160871Y0079519D01*
X0160783Y0079335D02*
X0158424Y0079335D01*
X0158103Y0079151D02*
X0160695Y0079151D01*
X0160607Y0078968D02*
X0157782Y0078968D01*
X0157461Y0078784D02*
X0160519Y0078784D01*
X0160431Y0078601D02*
X0157140Y0078601D01*
X0156818Y0078417D02*
X0160342Y0078417D01*
X0160254Y0078234D02*
X0156497Y0078234D01*
X0156176Y0078050D02*
X0160166Y0078050D01*
X0160078Y0077867D02*
X0155855Y0077867D01*
X0155533Y0077683D02*
X0159990Y0077683D01*
X0159902Y0077499D02*
X0155212Y0077499D01*
X0154891Y0077316D02*
X0159814Y0077316D01*
X0159726Y0077132D02*
X0154570Y0077132D01*
X0154248Y0076949D02*
X0159638Y0076949D01*
X0159549Y0076765D02*
X0153927Y0076765D01*
X0153606Y0076582D02*
X0159461Y0076582D01*
X0159373Y0076398D02*
X0153285Y0076398D01*
X0152964Y0076215D02*
X0159285Y0076215D01*
X0159598Y0070708D02*
X0166129Y0070708D01*
X0166129Y0070525D02*
X0159514Y0070525D01*
X0159430Y0070341D02*
X0166129Y0070341D01*
X0166129Y0070157D02*
X0159346Y0070157D01*
X0159262Y0069974D02*
X0166129Y0069974D01*
X0166129Y0069790D02*
X0159178Y0069790D01*
X0159094Y0069607D02*
X0166129Y0069607D01*
X0166129Y0069423D02*
X0159010Y0069423D01*
X0158926Y0069240D02*
X0166129Y0069240D01*
X0166129Y0069056D02*
X0158842Y0069056D01*
X0158758Y0068873D02*
X0166129Y0068873D01*
X0166129Y0068689D02*
X0158705Y0068689D01*
X0158705Y0068505D02*
X0166129Y0068505D01*
X0166129Y0068322D02*
X0158745Y0068322D01*
X0158860Y0068138D02*
X0166129Y0068138D01*
X0166129Y0067955D02*
X0158975Y0067955D01*
X0159089Y0067771D02*
X0166129Y0067771D01*
X0166129Y0067588D02*
X0159204Y0067588D01*
X0159319Y0067404D02*
X0166129Y0067404D01*
X0166129Y0067221D02*
X0159434Y0067221D01*
X0159548Y0067037D02*
X0166129Y0067037D01*
X0166129Y0066854D02*
X0159665Y0066854D01*
X0159787Y0066670D02*
X0166129Y0066670D01*
X0166129Y0066486D02*
X0159910Y0066486D01*
X0160032Y0066303D02*
X0166129Y0066303D01*
X0166129Y0066119D02*
X0160154Y0066119D01*
X0160277Y0065936D02*
X0166129Y0065936D01*
X0166129Y0065752D02*
X0160399Y0065752D01*
X0160521Y0065569D02*
X0166129Y0065569D01*
X0166129Y0065385D02*
X0160644Y0065385D01*
X0160767Y0065202D02*
X0166129Y0065202D01*
X0166129Y0065018D02*
X0160899Y0065018D01*
X0161030Y0064834D02*
X0166129Y0064834D01*
X0166129Y0064651D02*
X0161161Y0064651D01*
X0161292Y0064467D02*
X0166129Y0064467D01*
X0166129Y0064284D02*
X0161423Y0064284D01*
X0161554Y0064100D02*
X0166129Y0064100D01*
X0166129Y0063917D02*
X0161684Y0063917D01*
X0161799Y0063733D02*
X0166129Y0063733D01*
X0166129Y0063550D02*
X0161913Y0063550D01*
X0162028Y0063366D02*
X0166129Y0063366D01*
X0166129Y0063183D02*
X0162143Y0063183D01*
X0162257Y0062999D02*
X0166129Y0062999D01*
X0166129Y0062815D02*
X0162372Y0062815D01*
X0162487Y0062632D02*
X0166129Y0062632D01*
X0166129Y0062448D02*
X0162602Y0062448D01*
X0162707Y0062265D02*
X0166129Y0062265D01*
X0166129Y0062081D02*
X0162812Y0062081D01*
X0162916Y0061898D02*
X0166129Y0061898D01*
X0166129Y0061714D02*
X0163021Y0061714D01*
X0163126Y0061531D02*
X0166129Y0061531D01*
X0166129Y0061347D02*
X0163231Y0061347D01*
X0163336Y0061163D02*
X0166129Y0061163D01*
X0166129Y0060980D02*
X0163345Y0060980D01*
X0163345Y0060796D02*
X0166129Y0060796D01*
X0166129Y0060613D02*
X0163181Y0060613D01*
X0162836Y0060429D02*
X0166129Y0060429D01*
X0166129Y0060246D02*
X0154724Y0060246D01*
X0154812Y0060429D02*
X0162183Y0060429D01*
X0161817Y0060613D02*
X0154901Y0060613D01*
X0154989Y0060796D02*
X0161459Y0060796D01*
X0161184Y0060980D02*
X0155077Y0060980D01*
X0155166Y0061163D02*
X0160909Y0061163D01*
X0160634Y0061347D02*
X0155254Y0061347D01*
X0155342Y0061531D02*
X0160365Y0061531D01*
X0160201Y0061714D02*
X0155431Y0061714D01*
X0155519Y0061898D02*
X0160037Y0061898D01*
X0159872Y0062081D02*
X0155608Y0062081D01*
X0155696Y0062265D02*
X0159708Y0062265D01*
X0159544Y0062448D02*
X0155784Y0062448D01*
X0155873Y0062632D02*
X0159380Y0062632D01*
X0159215Y0062815D02*
X0155961Y0062815D01*
X0156049Y0062999D02*
X0159051Y0062999D01*
X0158887Y0063183D02*
X0156138Y0063183D01*
X0156226Y0063366D02*
X0158723Y0063366D01*
X0158558Y0063550D02*
X0156315Y0063550D01*
X0156403Y0063733D02*
X0158394Y0063733D01*
X0158230Y0063917D02*
X0156491Y0063917D01*
X0156580Y0064100D02*
X0158066Y0064100D01*
X0157901Y0064284D02*
X0156668Y0064284D01*
X0156756Y0064467D02*
X0157737Y0064467D01*
X0157573Y0064651D02*
X0156845Y0064651D01*
X0156933Y0064834D02*
X0157409Y0064834D01*
X0157244Y0065018D02*
X0157022Y0065018D01*
X0154886Y0066119D02*
X0152863Y0066119D01*
X0152766Y0065974D02*
X0153137Y0066530D01*
X0153694Y0066901D01*
X0154436Y0066716D01*
X0154993Y0066344D01*
X0153137Y0062447D01*
X0152209Y0063746D01*
X0152209Y0064117D01*
X0152766Y0065974D01*
X0152754Y0065936D02*
X0154798Y0065936D01*
X0154711Y0065752D02*
X0152699Y0065752D01*
X0152644Y0065569D02*
X0154624Y0065569D01*
X0154536Y0065385D02*
X0152589Y0065385D01*
X0152534Y0065202D02*
X0154449Y0065202D01*
X0154361Y0065018D02*
X0152479Y0065018D01*
X0152424Y0064834D02*
X0154274Y0064834D01*
X0154186Y0064651D02*
X0152369Y0064651D01*
X0152314Y0064467D02*
X0154099Y0064467D01*
X0154012Y0064284D02*
X0152259Y0064284D01*
X0152209Y0064100D02*
X0153924Y0064100D01*
X0153837Y0063917D02*
X0152209Y0063917D01*
X0152219Y0063733D02*
X0153749Y0063733D01*
X0153662Y0063550D02*
X0152350Y0063550D01*
X0152481Y0063366D02*
X0153575Y0063366D01*
X0153487Y0063183D02*
X0152612Y0063183D01*
X0152743Y0062999D02*
X0153400Y0062999D01*
X0153312Y0062815D02*
X0152874Y0062815D01*
X0153005Y0062632D02*
X0153225Y0062632D01*
X0153138Y0062448D02*
X0153136Y0062448D01*
X0154636Y0060062D02*
X0166129Y0060062D01*
X0166129Y0059879D02*
X0154622Y0059879D01*
X0154622Y0059695D02*
X0166129Y0059695D01*
X0166129Y0059511D02*
X0154622Y0059511D01*
X0154831Y0059328D02*
X0166129Y0059328D01*
X0166129Y0059144D02*
X0155088Y0059144D01*
X0155345Y0058961D02*
X0166129Y0058961D01*
X0166129Y0058777D02*
X0155602Y0058777D01*
X0155859Y0058594D02*
X0166129Y0058594D01*
X0166129Y0058410D02*
X0160702Y0058410D01*
X0161530Y0058227D02*
X0166129Y0058227D01*
X0166129Y0058043D02*
X0162080Y0058043D01*
X0162498Y0057860D02*
X0166129Y0057860D01*
X0166129Y0057676D02*
X0162865Y0057676D01*
X0163060Y0057492D02*
X0166129Y0057492D01*
X0166129Y0057309D02*
X0163182Y0057309D01*
X0163305Y0057125D02*
X0166129Y0057125D01*
X0166129Y0056942D02*
X0163345Y0056942D01*
X0163345Y0056758D02*
X0166129Y0056758D01*
X0166129Y0056575D02*
X0161759Y0056575D01*
X0159311Y0056391D02*
X0166129Y0056391D01*
X0166129Y0056208D02*
X0156863Y0056208D01*
X0154295Y0056208D02*
X0152819Y0056208D01*
X0152906Y0056391D02*
X0153950Y0056391D01*
X0153644Y0056575D02*
X0152993Y0056575D01*
X0153080Y0056758D02*
X0153338Y0056758D01*
X0152732Y0056024D02*
X0166129Y0056024D01*
X0166129Y0055840D02*
X0152645Y0055840D01*
X0152558Y0055657D02*
X0166129Y0055657D01*
X0166129Y0055473D02*
X0152471Y0055473D01*
X0152384Y0055290D02*
X0166129Y0055290D01*
X0166129Y0055106D02*
X0152297Y0055106D01*
X0152210Y0054923D02*
X0166129Y0054923D01*
X0166129Y0054739D02*
X0152124Y0054739D01*
X0152037Y0054556D02*
X0166129Y0054556D01*
X0166129Y0054372D02*
X0151950Y0054372D01*
X0151863Y0054189D02*
X0166129Y0054189D01*
X0166129Y0054005D02*
X0151776Y0054005D01*
X0151689Y0053821D02*
X0166129Y0053821D01*
X0166129Y0053638D02*
X0151602Y0053638D01*
X0151515Y0053454D02*
X0166129Y0053454D01*
X0166129Y0053271D02*
X0151611Y0053271D01*
X0151933Y0053087D02*
X0166129Y0053087D01*
X0166129Y0052904D02*
X0152255Y0052904D01*
X0152577Y0052720D02*
X0166129Y0052720D01*
X0166129Y0052537D02*
X0152900Y0052537D01*
X0153222Y0052353D02*
X0166129Y0052353D01*
X0166129Y0052169D02*
X0153544Y0052169D01*
X0153866Y0051986D02*
X0166129Y0051986D01*
X0166129Y0051802D02*
X0154189Y0051802D01*
X0154511Y0051619D02*
X0166129Y0051619D01*
X0166129Y0051435D02*
X0154833Y0051435D01*
X0155155Y0051252D02*
X0166129Y0051252D01*
X0166129Y0051068D02*
X0155478Y0051068D01*
X0155800Y0050885D02*
X0166129Y0050885D01*
X0166129Y0050701D02*
X0156122Y0050701D01*
X0156444Y0050518D02*
X0166129Y0050518D01*
X0166129Y0050334D02*
X0156767Y0050334D01*
X0157089Y0050150D02*
X0166129Y0050150D01*
X0166129Y0049967D02*
X0157411Y0049967D01*
X0157733Y0049783D02*
X0166129Y0049783D01*
X0166129Y0049600D02*
X0158055Y0049600D01*
X0158378Y0049416D02*
X0166129Y0049416D01*
X0166129Y0049233D02*
X0158700Y0049233D01*
X0159022Y0049049D02*
X0166129Y0049049D01*
X0166129Y0048866D02*
X0159344Y0048866D01*
X0159667Y0048682D02*
X0166129Y0048682D01*
X0166129Y0048498D02*
X0159989Y0048498D01*
X0160311Y0048315D02*
X0166129Y0048315D01*
X0166129Y0048131D02*
X0160633Y0048131D01*
X0160956Y0047948D02*
X0166129Y0047948D01*
X0166129Y0047764D02*
X0161278Y0047764D01*
X0161600Y0047581D02*
X0166129Y0047581D01*
X0166129Y0047397D02*
X0161922Y0047397D01*
X0162245Y0047214D02*
X0166129Y0047214D01*
X0166129Y0047030D02*
X0162567Y0047030D01*
X0162889Y0046846D02*
X0166129Y0046846D01*
X0166129Y0046663D02*
X0163211Y0046663D01*
X0163533Y0046479D02*
X0166129Y0046479D01*
X0166129Y0046296D02*
X0163856Y0046296D01*
X0164178Y0046112D02*
X0166129Y0046112D01*
X0166129Y0045929D02*
X0164500Y0045929D01*
X0164822Y0045745D02*
X0166129Y0045745D01*
X0166129Y0045562D02*
X0165145Y0045562D01*
X0165467Y0045378D02*
X0166129Y0045378D01*
X0166129Y0045195D02*
X0165789Y0045195D01*
X0166111Y0045011D02*
X0166129Y0045011D01*
X0149834Y0055840D02*
X0148011Y0055840D01*
X0148328Y0055657D02*
X0149742Y0055657D01*
X0149650Y0055473D02*
X0148646Y0055473D01*
X0148964Y0055290D02*
X0149559Y0055290D01*
X0149467Y0055106D02*
X0149281Y0055106D01*
X0149926Y0056024D02*
X0147693Y0056024D01*
X0147375Y0056208D02*
X0150017Y0056208D01*
X0150109Y0056391D02*
X0147058Y0056391D01*
X0146740Y0056575D02*
X0150201Y0056575D01*
X0150293Y0056758D02*
X0146422Y0056758D01*
X0146105Y0056942D02*
X0150385Y0056942D01*
X0150476Y0057125D02*
X0145787Y0057125D01*
X0145469Y0057309D02*
X0150568Y0057309D01*
X0150660Y0057492D02*
X0145152Y0057492D01*
X0144834Y0057676D02*
X0150752Y0057676D01*
X0150843Y0057860D02*
X0144516Y0057860D01*
X0144199Y0058043D02*
X0150935Y0058043D01*
X0151027Y0058227D02*
X0143881Y0058227D01*
X0143563Y0058410D02*
X0151119Y0058410D01*
X0151210Y0058594D02*
X0143245Y0058594D01*
X0142928Y0058777D02*
X0151281Y0058777D01*
X0151281Y0058961D02*
X0142610Y0058961D01*
X0142292Y0059144D02*
X0151247Y0059144D01*
X0151080Y0059328D02*
X0141975Y0059328D01*
X0141657Y0059511D02*
X0150914Y0059511D01*
X0150748Y0059695D02*
X0141339Y0059695D01*
X0141022Y0059879D02*
X0150582Y0059879D01*
X0150416Y0060062D02*
X0140704Y0060062D01*
X0140386Y0060246D02*
X0150250Y0060246D01*
X0150084Y0060429D02*
X0140069Y0060429D01*
X0139751Y0060613D02*
X0149918Y0060613D01*
X0149752Y0060796D02*
X0139433Y0060796D01*
X0139116Y0060980D02*
X0149586Y0060980D01*
X0149420Y0061163D02*
X0138798Y0061163D01*
X0138480Y0061347D02*
X0149254Y0061347D01*
X0149088Y0061531D02*
X0138163Y0061531D01*
X0137845Y0061714D02*
X0148922Y0061714D01*
X0148756Y0061898D02*
X0137527Y0061898D01*
X0137210Y0062081D02*
X0148589Y0062081D01*
X0148423Y0062265D02*
X0136892Y0062265D01*
X0136574Y0062448D02*
X0148257Y0062448D01*
X0148091Y0062632D02*
X0136257Y0062632D01*
X0135939Y0062815D02*
X0147925Y0062815D01*
X0147759Y0062999D02*
X0135621Y0062999D01*
X0135304Y0063183D02*
X0147576Y0063183D01*
X0147536Y0063366D02*
X0134986Y0063366D01*
X0134668Y0063550D02*
X0147502Y0063550D01*
X0147467Y0063733D02*
X0134351Y0063733D01*
X0134033Y0063917D02*
X0147433Y0063917D01*
X0147398Y0064100D02*
X0133715Y0064100D01*
X0133398Y0064284D02*
X0147364Y0064284D01*
X0147330Y0064467D02*
X0133080Y0064467D01*
X0152985Y0066303D02*
X0154973Y0066303D01*
X0154780Y0066486D02*
X0153108Y0066486D01*
X0153347Y0066670D02*
X0154505Y0066670D01*
X0153885Y0066854D02*
X0153622Y0066854D01*
D20*
X0170542Y0088178D02*
X0131783Y0126937D01*
X0140689Y0116178D02*
X0140761Y0116178D01*
X0140689Y0116178D02*
X0140689Y0099221D01*
X0140689Y0099150D01*
X0140689Y0099079D01*
X0140689Y0099150D02*
X0140689Y0099221D01*
X0140690Y0099078D02*
X0140692Y0099051D01*
X0140697Y0099023D01*
X0140706Y0098997D01*
X0140718Y0098972D01*
X0140734Y0098949D01*
X0140752Y0098928D01*
X0140773Y0098909D01*
X0140796Y0098894D01*
X0140821Y0098881D01*
X0140848Y0098872D01*
X0140875Y0098867D01*
X0140903Y0098865D01*
X0141045Y0098865D01*
X0141259Y0098865D01*
X0141259Y0098864D02*
X0141281Y0098866D01*
X0141303Y0098871D01*
X0141324Y0098880D01*
X0141343Y0098891D01*
X0141360Y0098906D01*
X0141375Y0098923D01*
X0141386Y0098942D01*
X0141395Y0098963D01*
X0141400Y0098985D01*
X0141402Y0099007D01*
X0141402Y0100148D01*
X0141402Y0106275D01*
X0141402Y0112117D01*
X0141402Y0115537D01*
X0141473Y0115110D02*
X0161137Y0113115D01*
X0161779Y0112188D02*
X0161781Y0112251D01*
X0161787Y0112313D01*
X0161797Y0112375D01*
X0161810Y0112436D01*
X0161828Y0112496D01*
X0161849Y0112555D01*
X0161874Y0112613D01*
X0161902Y0112668D01*
X0161934Y0112722D01*
X0161969Y0112774D01*
X0162008Y0112824D01*
X0162049Y0112870D01*
X0162094Y0112915D01*
X0162140Y0112956D01*
X0162190Y0112995D01*
X0162242Y0113030D01*
X0162296Y0113062D01*
X0162351Y0113090D01*
X0162409Y0113115D01*
X0162468Y0113136D01*
X0162528Y0113154D01*
X0162589Y0113167D01*
X0162651Y0113177D01*
X0162713Y0113183D01*
X0162776Y0113185D01*
X0162839Y0113183D01*
X0162901Y0113177D01*
X0162963Y0113167D01*
X0163024Y0113154D01*
X0163084Y0113136D01*
X0163143Y0113115D01*
X0163201Y0113090D01*
X0163256Y0113062D01*
X0163310Y0113030D01*
X0163362Y0112995D01*
X0163412Y0112956D01*
X0163458Y0112915D01*
X0163503Y0112870D01*
X0163544Y0112824D01*
X0163583Y0112774D01*
X0163618Y0112722D01*
X0163650Y0112668D01*
X0163678Y0112613D01*
X0163703Y0112555D01*
X0163724Y0112496D01*
X0163742Y0112436D01*
X0163755Y0112375D01*
X0163765Y0112313D01*
X0163771Y0112251D01*
X0163773Y0112188D01*
X0163771Y0112125D01*
X0163765Y0112063D01*
X0163755Y0112001D01*
X0163742Y0111940D01*
X0163724Y0111880D01*
X0163703Y0111821D01*
X0163678Y0111763D01*
X0163650Y0111708D01*
X0163618Y0111654D01*
X0163583Y0111602D01*
X0163544Y0111552D01*
X0163503Y0111506D01*
X0163458Y0111461D01*
X0163412Y0111420D01*
X0163362Y0111381D01*
X0163310Y0111346D01*
X0163256Y0111314D01*
X0163201Y0111286D01*
X0163143Y0111261D01*
X0163084Y0111240D01*
X0163024Y0111222D01*
X0162963Y0111209D01*
X0162901Y0111199D01*
X0162839Y0111193D01*
X0162776Y0111191D01*
X0162713Y0111193D01*
X0162651Y0111199D01*
X0162589Y0111209D01*
X0162528Y0111222D01*
X0162468Y0111240D01*
X0162409Y0111261D01*
X0162351Y0111286D01*
X0162296Y0111314D01*
X0162242Y0111346D01*
X0162190Y0111381D01*
X0162140Y0111420D01*
X0162094Y0111461D01*
X0162049Y0111506D01*
X0162008Y0111552D01*
X0161969Y0111602D01*
X0161934Y0111654D01*
X0161902Y0111708D01*
X0161874Y0111763D01*
X0161849Y0111821D01*
X0161828Y0111880D01*
X0161810Y0111940D01*
X0161797Y0112001D01*
X0161787Y0112063D01*
X0161781Y0112125D01*
X0161779Y0112188D01*
X0160924Y0112188D02*
X0160926Y0112274D01*
X0160932Y0112359D01*
X0160942Y0112444D01*
X0160956Y0112528D01*
X0160973Y0112612D01*
X0160995Y0112695D01*
X0161020Y0112777D01*
X0161049Y0112857D01*
X0161082Y0112936D01*
X0161118Y0113014D01*
X0161158Y0113089D01*
X0161201Y0113163D01*
X0161248Y0113235D01*
X0161298Y0113304D01*
X0161351Y0113371D01*
X0161407Y0113436D01*
X0161466Y0113498D01*
X0161528Y0113557D01*
X0161593Y0113613D01*
X0161660Y0113666D01*
X0161729Y0113716D01*
X0161801Y0113763D01*
X0161875Y0113806D01*
X0161950Y0113846D01*
X0162028Y0113882D01*
X0162107Y0113915D01*
X0162187Y0113944D01*
X0162269Y0113969D01*
X0162352Y0113991D01*
X0162436Y0114008D01*
X0162520Y0114022D01*
X0162605Y0114032D01*
X0162690Y0114038D01*
X0162776Y0114040D01*
X0162862Y0114038D01*
X0162947Y0114032D01*
X0163032Y0114022D01*
X0163116Y0114008D01*
X0163200Y0113991D01*
X0163283Y0113969D01*
X0163365Y0113944D01*
X0163445Y0113915D01*
X0163524Y0113882D01*
X0163602Y0113846D01*
X0163677Y0113806D01*
X0163751Y0113763D01*
X0163823Y0113716D01*
X0163892Y0113666D01*
X0163959Y0113613D01*
X0164024Y0113557D01*
X0164086Y0113498D01*
X0164145Y0113436D01*
X0164201Y0113371D01*
X0164254Y0113304D01*
X0164304Y0113235D01*
X0164351Y0113163D01*
X0164394Y0113089D01*
X0164434Y0113014D01*
X0164470Y0112936D01*
X0164503Y0112857D01*
X0164532Y0112777D01*
X0164557Y0112695D01*
X0164579Y0112612D01*
X0164596Y0112528D01*
X0164610Y0112444D01*
X0164620Y0112359D01*
X0164626Y0112274D01*
X0164628Y0112188D01*
X0164626Y0112102D01*
X0164620Y0112017D01*
X0164610Y0111932D01*
X0164596Y0111848D01*
X0164579Y0111764D01*
X0164557Y0111681D01*
X0164532Y0111599D01*
X0164503Y0111519D01*
X0164470Y0111440D01*
X0164434Y0111362D01*
X0164394Y0111287D01*
X0164351Y0111213D01*
X0164304Y0111141D01*
X0164254Y0111072D01*
X0164201Y0111005D01*
X0164145Y0110940D01*
X0164086Y0110878D01*
X0164024Y0110819D01*
X0163959Y0110763D01*
X0163892Y0110710D01*
X0163823Y0110660D01*
X0163751Y0110613D01*
X0163677Y0110570D01*
X0163602Y0110530D01*
X0163524Y0110494D01*
X0163445Y0110461D01*
X0163365Y0110432D01*
X0163283Y0110407D01*
X0163200Y0110385D01*
X0163116Y0110368D01*
X0163032Y0110354D01*
X0162947Y0110344D01*
X0162862Y0110338D01*
X0162776Y0110336D01*
X0162690Y0110338D01*
X0162605Y0110344D01*
X0162520Y0110354D01*
X0162436Y0110368D01*
X0162352Y0110385D01*
X0162269Y0110407D01*
X0162187Y0110432D01*
X0162107Y0110461D01*
X0162028Y0110494D01*
X0161950Y0110530D01*
X0161875Y0110570D01*
X0161801Y0110613D01*
X0161729Y0110660D01*
X0161660Y0110710D01*
X0161593Y0110763D01*
X0161528Y0110819D01*
X0161466Y0110878D01*
X0161407Y0110940D01*
X0161351Y0111005D01*
X0161298Y0111072D01*
X0161248Y0111141D01*
X0161201Y0111213D01*
X0161158Y0111287D01*
X0161118Y0111362D01*
X0161082Y0111440D01*
X0161049Y0111519D01*
X0161020Y0111599D01*
X0160995Y0111681D01*
X0160973Y0111764D01*
X0160956Y0111848D01*
X0160942Y0111932D01*
X0160932Y0112017D01*
X0160926Y0112102D01*
X0160924Y0112188D01*
X0162990Y0110265D02*
X0163061Y0103069D01*
X0163204Y0102855D02*
X0164130Y0102855D01*
X0164169Y0102857D01*
X0164209Y0102862D01*
X0164247Y0102871D01*
X0164285Y0102884D01*
X0164321Y0102900D01*
X0164355Y0102919D01*
X0164388Y0102941D01*
X0164418Y0102967D01*
X0164446Y0102995D01*
X0164472Y0103025D01*
X0164494Y0103058D01*
X0164513Y0103092D01*
X0164529Y0103128D01*
X0164542Y0103166D01*
X0164551Y0103204D01*
X0164556Y0103244D01*
X0164558Y0103283D01*
X0164557Y0103283D02*
X0164557Y0103425D01*
X0164555Y0103463D01*
X0164549Y0103499D01*
X0164539Y0103535D01*
X0164526Y0103570D01*
X0164509Y0103603D01*
X0164489Y0103634D01*
X0164465Y0103663D01*
X0164439Y0103690D01*
X0164410Y0103713D01*
X0164379Y0103733D01*
X0164346Y0103750D01*
X0164311Y0103764D01*
X0164275Y0103773D01*
X0164238Y0103779D01*
X0164201Y0103781D01*
X0163204Y0103781D01*
X0162989Y0102641D02*
X0162982Y0102593D01*
X0162972Y0102545D01*
X0162958Y0102499D01*
X0162941Y0102454D01*
X0162920Y0102410D01*
X0162896Y0102368D01*
X0162869Y0102328D01*
X0162839Y0102290D01*
X0162806Y0102254D01*
X0162771Y0102221D01*
X0162733Y0102191D01*
X0162693Y0102164D01*
X0162650Y0102140D01*
X0162607Y0102119D01*
X0162561Y0102102D01*
X0162515Y0102088D01*
X0162468Y0102078D01*
X0162420Y0102071D01*
X0141473Y0100005D01*
X0140476Y0100076D02*
X0140476Y0114825D01*
X0140475Y0115039D02*
X0140440Y0115048D01*
X0140403Y0115054D01*
X0140366Y0115056D01*
X0140329Y0115055D01*
X0140293Y0115050D01*
X0140257Y0115042D01*
X0140222Y0115030D01*
X0140188Y0115015D01*
X0140156Y0114997D01*
X0140125Y0114976D01*
X0140097Y0114952D01*
X0140071Y0114925D01*
X0140048Y0114896D01*
X0139977Y0115395D02*
X0139979Y0115448D01*
X0139985Y0115501D01*
X0139995Y0115553D01*
X0140009Y0115605D01*
X0140026Y0115655D01*
X0140048Y0115704D01*
X0140072Y0115751D01*
X0140101Y0115796D01*
X0140132Y0115839D01*
X0140167Y0115879D01*
X0140205Y0115917D01*
X0140245Y0115952D01*
X0140288Y0115983D01*
X0140333Y0116012D01*
X0140380Y0116036D01*
X0140429Y0116058D01*
X0140479Y0116075D01*
X0140531Y0116089D01*
X0140583Y0116099D01*
X0140636Y0116105D01*
X0140689Y0116107D01*
X0140742Y0116105D01*
X0140795Y0116099D01*
X0140847Y0116089D01*
X0140899Y0116075D01*
X0140949Y0116058D01*
X0140998Y0116036D01*
X0141045Y0116012D01*
X0141090Y0115983D01*
X0141133Y0115952D01*
X0141173Y0115917D01*
X0141211Y0115879D01*
X0141246Y0115839D01*
X0141277Y0115796D01*
X0141306Y0115751D01*
X0141330Y0115704D01*
X0141352Y0115655D01*
X0141369Y0115605D01*
X0141383Y0115553D01*
X0141393Y0115501D01*
X0141399Y0115448D01*
X0141401Y0115395D01*
X0141399Y0115342D01*
X0141393Y0115289D01*
X0141383Y0115237D01*
X0141369Y0115185D01*
X0141352Y0115135D01*
X0141330Y0115086D01*
X0141306Y0115039D01*
X0141277Y0114994D01*
X0141246Y0114951D01*
X0141211Y0114911D01*
X0141173Y0114873D01*
X0141133Y0114838D01*
X0141090Y0114807D01*
X0141045Y0114778D01*
X0140998Y0114754D01*
X0140949Y0114732D01*
X0140899Y0114715D01*
X0140847Y0114701D01*
X0140795Y0114691D01*
X0140742Y0114685D01*
X0140689Y0114683D01*
X0140636Y0114685D01*
X0140583Y0114691D01*
X0140531Y0114701D01*
X0140479Y0114715D01*
X0140429Y0114732D01*
X0140380Y0114754D01*
X0140333Y0114778D01*
X0140288Y0114807D01*
X0140245Y0114838D01*
X0140205Y0114873D01*
X0140167Y0114911D01*
X0140132Y0114951D01*
X0140101Y0114994D01*
X0140072Y0115039D01*
X0140048Y0115086D01*
X0140026Y0115135D01*
X0140009Y0115185D01*
X0139995Y0115237D01*
X0139985Y0115289D01*
X0139979Y0115342D01*
X0139977Y0115395D01*
X0140761Y0116178D02*
X0140809Y0116176D01*
X0140857Y0116171D01*
X0140904Y0116162D01*
X0140950Y0116150D01*
X0140995Y0116134D01*
X0141039Y0116115D01*
X0141082Y0116092D01*
X0141122Y0116067D01*
X0141161Y0116038D01*
X0141197Y0116007D01*
X0141231Y0115973D01*
X0141262Y0115937D01*
X0141291Y0115898D01*
X0141316Y0115858D01*
X0141339Y0115815D01*
X0141358Y0115771D01*
X0141374Y0115726D01*
X0141386Y0115680D01*
X0141395Y0115633D01*
X0141400Y0115585D01*
X0141402Y0115537D01*
X0142685Y0115395D02*
X0142693Y0115347D01*
X0142697Y0115300D01*
X0142699Y0115252D01*
X0142697Y0115204D01*
X0142693Y0115157D01*
X0142685Y0115109D01*
X0142684Y0115394D02*
X0142676Y0115444D01*
X0142672Y0115494D01*
X0142671Y0115545D01*
X0142675Y0115595D01*
X0142682Y0115645D01*
X0142693Y0115694D01*
X0142708Y0115742D01*
X0142727Y0115788D01*
X0142749Y0115834D01*
X0142774Y0115877D01*
X0142803Y0115918D01*
X0142835Y0115957D01*
X0142870Y0115994D01*
X0142907Y0116027D01*
X0142947Y0116058D01*
X0142989Y0116085D01*
X0143034Y0116109D01*
X0143079Y0116130D01*
X0143127Y0116147D01*
X0143175Y0116161D01*
X0143225Y0116170D01*
X0143275Y0116176D01*
X0143325Y0116178D01*
X0143753Y0116178D01*
X0143806Y0116176D01*
X0143859Y0116170D01*
X0143911Y0116160D01*
X0143963Y0116146D01*
X0144013Y0116129D01*
X0144062Y0116108D01*
X0144109Y0116083D01*
X0144154Y0116054D01*
X0144197Y0116023D01*
X0144237Y0115988D01*
X0144275Y0115950D01*
X0144310Y0115910D01*
X0144341Y0115867D01*
X0144370Y0115822D01*
X0144394Y0115775D01*
X0144416Y0115726D01*
X0144433Y0115676D01*
X0144447Y0115625D01*
X0144457Y0115572D01*
X0144463Y0115519D01*
X0144465Y0115466D01*
X0144465Y0114967D01*
X0140048Y0114896D02*
X0140009Y0114840D01*
X0139973Y0114781D01*
X0139940Y0114721D01*
X0139909Y0114660D01*
X0139881Y0114597D01*
X0139856Y0114534D01*
X0139835Y0114468D01*
X0139193Y0110692D02*
X0139122Y0109338D01*
X0138908Y0109267D02*
X0139478Y0109267D01*
X0139478Y0105990D01*
X0138908Y0105990D01*
X0138908Y0109267D01*
X0139122Y0105990D02*
X0139122Y0105634D01*
X0139193Y0101573D02*
X0139279Y0101566D01*
X0139364Y0101562D01*
X0139450Y0101562D01*
X0139535Y0101566D01*
X0139621Y0101573D01*
X0139620Y0101572D02*
X0140333Y0101644D01*
X0139763Y0100361D02*
X0139785Y0100319D01*
X0139809Y0100278D01*
X0139837Y0100239D01*
X0139868Y0100202D01*
X0139901Y0100168D01*
X0139937Y0100136D01*
X0139975Y0100107D01*
X0140015Y0100081D01*
X0140057Y0100058D01*
X0140100Y0100039D01*
X0140145Y0100022D01*
X0140191Y0100009D01*
X0140238Y0100000D01*
X0140285Y0099994D01*
X0140333Y0099991D01*
X0140381Y0099992D01*
X0140428Y0099997D01*
X0140475Y0100005D01*
X0139193Y0101573D02*
X0139168Y0101577D01*
X0139144Y0101585D01*
X0139122Y0101596D01*
X0139101Y0101610D01*
X0139082Y0101626D01*
X0139066Y0101646D01*
X0139053Y0101667D01*
X0139043Y0101690D01*
X0139036Y0101714D01*
X0139032Y0101738D01*
X0139032Y0101764D01*
X0139036Y0101788D01*
X0139043Y0101812D01*
X0139053Y0101835D01*
X0139066Y0101856D01*
X0139082Y0101876D01*
X0139101Y0101892D01*
X0139122Y0101906D01*
X0139144Y0101917D01*
X0139168Y0101925D01*
X0139193Y0101929D01*
X0139478Y0101216D02*
X0139503Y0101106D01*
X0139531Y0100997D01*
X0139562Y0100889D01*
X0139596Y0100781D01*
X0139633Y0100675D01*
X0139674Y0100569D01*
X0139717Y0100465D01*
X0139763Y0100362D01*
X0140261Y0101929D02*
X0140128Y0101941D01*
X0139995Y0101949D01*
X0139861Y0101954D01*
X0139727Y0101956D01*
X0139593Y0101954D01*
X0139459Y0101949D01*
X0139326Y0101941D01*
X0139193Y0101929D01*
X0146817Y0106346D02*
X0147030Y0106346D01*
X0147244Y0106346D01*
X0147283Y0106348D01*
X0147323Y0106353D01*
X0147361Y0106362D01*
X0147399Y0106375D01*
X0147435Y0106391D01*
X0147469Y0106410D01*
X0147502Y0106432D01*
X0147532Y0106458D01*
X0147560Y0106486D01*
X0147586Y0106516D01*
X0147608Y0106549D01*
X0147627Y0106583D01*
X0147643Y0106619D01*
X0147656Y0106657D01*
X0147665Y0106695D01*
X0147670Y0106735D01*
X0147672Y0106774D01*
X0147672Y0110122D01*
X0147670Y0110154D01*
X0147665Y0110185D01*
X0147656Y0110216D01*
X0147644Y0110246D01*
X0147628Y0110274D01*
X0147610Y0110300D01*
X0147589Y0110324D01*
X0147565Y0110345D01*
X0147539Y0110363D01*
X0147511Y0110379D01*
X0147481Y0110391D01*
X0147450Y0110400D01*
X0147419Y0110405D01*
X0147387Y0110407D01*
X0146888Y0110407D01*
X0139478Y0113044D02*
X0139536Y0113332D01*
X0139601Y0113619D01*
X0139672Y0113904D01*
X0139750Y0114187D01*
X0139834Y0114469D01*
X0139336Y0102071D02*
X0139364Y0101856D01*
X0139397Y0101642D01*
X0139435Y0101429D01*
X0139478Y0101216D01*
X0131926Y0088320D02*
X0170400Y0126794D01*
X0139477Y0113044D02*
X0139407Y0112655D01*
X0139347Y0112265D01*
X0139295Y0111873D01*
X0139252Y0111480D01*
X0139217Y0111087D01*
X0139192Y0110693D01*
X0163061Y0103069D02*
X0163038Y0102963D01*
X0163018Y0102856D01*
X0163002Y0102749D01*
X0162990Y0102641D01*
X0139335Y0102071D02*
X0139258Y0102781D01*
X0139198Y0103493D01*
X0139155Y0104206D01*
X0139130Y0104920D01*
X0139121Y0105634D01*
M02*
