%
M48
M72
T01C0.0157
T02C0.0236
T03C0.0350
T04C0.0394
T05C0.1280
%
T01
X9650Y4088
X10025Y3838
X10525Y4588
X12775Y4088
X13025Y4588
X13275Y3838
X14025Y4338
X14025Y5088
X15150Y5713
X15775Y5338
X17150Y5213
X17150Y4463
X17150Y5963
X17400Y6338
X17150Y6713
X14400Y9463
X14150Y8963
X13900Y8463
X13650Y7963
X12900Y5963
X14650Y9963
X14900Y10463
X15150Y10963
X15400Y11463
X13650Y13213
X13900Y13713
X14150Y14213
X14400Y14713
X14650Y15213
X14900Y15713
X15150Y16213
X15400Y16713
X17150Y16463
X17150Y17463
X17150Y15463
X17150Y14463
X13275Y17213
X10338Y12713
X9150Y9963
X8400Y9963
X13107Y11006
X17525Y10588
T02
X10775Y10838
X10775Y7713
X14525Y3963
X8025Y1463
X775Y6213
X17025Y18588
T03
X6900Y17963
X6900Y16963
X6900Y15963
X6900Y14963
X5900Y15463
X5900Y16463
X5900Y17463
X5900Y18463
T04
X775Y1088
X4025Y1088
X5275Y2963
X7650Y10213
X10025Y10213
X5900Y13542
X9650Y17213
X9650Y19338
X5275Y19338
X900Y19338
X900Y15713
X14150Y19338
X16150Y12463
X16900Y10963
X17025Y1088
X13025Y1088
T05
X3400Y14463
X3400Y18963
M30
