G75*
%MOIN*%
%OFA0B0*%
%FSLAX25Y25*%
%IPPOS*%
%LPD*%
%AMOC8*
5,1,8,0,0,1.08239X$1,22.5*
%
%ADD10R,0.33750X1.65000*%
%ADD11R,0.05512X0.06693*%
%ADD12R,0.05512X0.06299*%
%ADD13R,0.31890X0.05118*%
%ADD14C,0.05075*%
%ADD15C,0.13194*%
%ADD16R,0.06299X0.05512*%
%ADD17C,0.05512*%
%ADD18C,0.03150*%
%ADD19C,0.03937*%
D10*
X0195875Y0102130D03*
D11*
X0100315Y0154033D03*
X0092835Y0154033D03*
X0091490Y0120880D03*
X0084010Y0120880D03*
D12*
X0100654Y0138380D03*
X0107346Y0138380D03*
G36*
X0020205Y0061472D02*
X0016307Y0065370D01*
X0020759Y0069822D01*
X0024657Y0065924D01*
X0020205Y0061472D01*
G37*
G36*
X0015472Y0066205D02*
X0011574Y0070103D01*
X0016026Y0074555D01*
X0019924Y0070657D01*
X0015472Y0066205D01*
G37*
D13*
X0194748Y0066874D03*
X0194748Y0074748D03*
X0194748Y0082622D03*
X0194748Y0090496D03*
X0194748Y0098370D03*
X0194748Y0106244D03*
X0194748Y0114118D03*
X0194748Y0121992D03*
X0194748Y0129866D03*
X0194748Y0137740D03*
X0194748Y0145614D03*
X0194748Y0153488D03*
X0194748Y0161363D03*
X0194748Y0169237D03*
X0194748Y0177111D03*
X0194748Y0059000D03*
X0194748Y0051126D03*
X0194748Y0043252D03*
X0194748Y0035378D03*
X0194748Y0027504D03*
D14*
X0069000Y0149630D03*
X0069000Y0159630D03*
X0069000Y0169630D03*
X0069000Y0179630D03*
X0059000Y0184630D03*
X0059000Y0174630D03*
X0059000Y0164630D03*
X0059000Y0154630D03*
D15*
X0034000Y0144630D03*
X0034000Y0189630D03*
D16*
X0100280Y0083439D03*
X0100280Y0076746D03*
X0088616Y0022012D03*
X0088616Y0015319D03*
D17*
X0007750Y0010880D03*
X0040250Y0010880D03*
X0052750Y0029630D03*
X0076500Y0102130D03*
X0100250Y0102130D03*
X0059000Y0135417D03*
X0096500Y0172130D03*
X0096500Y0193380D03*
X0052750Y0193380D03*
X0009000Y0193380D03*
X0009000Y0157130D03*
X0141500Y0193380D03*
X0161500Y0124630D03*
X0169000Y0109630D03*
X0170250Y0010880D03*
X0130250Y0010880D03*
D18*
X0132750Y0038380D03*
X0127750Y0040880D03*
X0130250Y0045880D03*
X0140250Y0043380D03*
X0140250Y0050880D03*
X0151500Y0057130D03*
X0157750Y0053380D03*
X0171500Y0052130D03*
X0171500Y0044630D03*
X0171500Y0059630D03*
X0174000Y0063380D03*
X0171500Y0067130D03*
X0144000Y0094630D03*
X0141500Y0089630D03*
X0139000Y0084630D03*
X0136500Y0079630D03*
X0129000Y0059630D03*
X0105250Y0045880D03*
X0100250Y0038380D03*
X0096500Y0040880D03*
X0091500Y0099630D03*
X0084000Y0099630D03*
X0103375Y0127130D03*
X0131067Y0110063D03*
X0146500Y0099630D03*
X0149000Y0104630D03*
X0151500Y0109630D03*
X0154000Y0114630D03*
X0136500Y0132130D03*
X0139000Y0137130D03*
X0141500Y0142130D03*
X0144000Y0147130D03*
X0146500Y0152130D03*
X0149000Y0157130D03*
X0151500Y0162130D03*
X0154000Y0167130D03*
X0171500Y0164630D03*
X0171500Y0174630D03*
X0171500Y0154630D03*
X0171500Y0144630D03*
X0132750Y0172130D03*
X0175250Y0105880D03*
D19*
X0107750Y0108380D03*
X0107750Y0077130D03*
X0145250Y0039630D03*
X0080250Y0014630D03*
X0007750Y0062130D03*
X0170250Y0185880D03*
M02*
