G75*
%MOIN*%
%OFA0B0*%
%FSLAX25Y25*%
%IPPOS*%
%LPD*%
%AMOC8*
5,1,8,0,0,1.08239X$1,22.5*
%
%ADD10R,0.05118X0.06299*%
%ADD11R,0.05118X0.05906*%
%ADD12R,0.31496X0.04724*%
%ADD13C,0.04681*%
%ADD14R,0.05906X0.05118*%
%ADD15C,0.04724*%
%ADD16C,0.05118*%
%ADD17C,0.01000*%
%ADD18C,0.00787*%
%ADD19C,0.02756*%
%ADD20C,0.02400*%
%ADD21C,0.01600*%
%ADD22C,0.03200*%
%ADD23C,0.03543*%
D10*
X0084010Y0120880D03*
X0091490Y0120880D03*
X0092835Y0154033D03*
X0100315Y0154033D03*
D11*
X0100654Y0138380D03*
X0107346Y0138380D03*
G36*
X0020204Y0061750D02*
X0016585Y0065369D01*
X0020760Y0069544D01*
X0024379Y0065925D01*
X0020204Y0061750D01*
G37*
G36*
X0015471Y0066483D02*
X0011852Y0070102D01*
X0016027Y0074277D01*
X0019646Y0070658D01*
X0015471Y0066483D01*
G37*
D12*
X0194748Y0066874D03*
X0194748Y0074748D03*
X0194748Y0082622D03*
X0194748Y0090496D03*
X0194748Y0098370D03*
X0194748Y0106244D03*
X0194748Y0114118D03*
X0194748Y0121992D03*
X0194748Y0129866D03*
X0194748Y0137740D03*
X0194748Y0145614D03*
X0194748Y0153488D03*
X0194748Y0161363D03*
X0194748Y0169237D03*
X0194748Y0177111D03*
X0194748Y0059000D03*
X0194748Y0051126D03*
X0194748Y0043252D03*
X0194748Y0035378D03*
X0194748Y0027504D03*
D13*
X0069000Y0149630D03*
X0069000Y0159630D03*
X0069000Y0169630D03*
X0069000Y0179630D03*
X0059000Y0184630D03*
X0059000Y0174630D03*
X0059000Y0164630D03*
X0059000Y0154630D03*
D14*
X0100280Y0083439D03*
X0100280Y0076746D03*
X0088616Y0022012D03*
X0088616Y0015319D03*
D15*
X0174000Y0028380D02*
X0174876Y0027504D01*
X0194748Y0027504D01*
X0194748Y0035378D02*
X0174502Y0035378D01*
X0174000Y0035880D01*
X0174000Y0028380D01*
D16*
X0170250Y0010880D03*
X0130250Y0010880D03*
X0052750Y0029630D03*
X0040250Y0010880D03*
X0007750Y0010880D03*
X0076500Y0102130D03*
X0100250Y0102130D03*
X0059000Y0135417D03*
X0096500Y0172130D03*
X0096500Y0193380D03*
X0052750Y0193380D03*
X0009000Y0193380D03*
X0009000Y0157130D03*
X0141500Y0193380D03*
X0161500Y0124630D03*
X0169000Y0109630D03*
D17*
X0003250Y0197880D02*
X0003250Y0006380D01*
X0174750Y0006380D01*
X0174750Y0020355D01*
X0175775Y0021380D01*
X0176500Y0021380D01*
X0176500Y0042736D01*
X0173676Y0042736D01*
X0173130Y0042190D01*
X0172072Y0041752D01*
X0170928Y0041752D01*
X0169870Y0042190D01*
X0169060Y0043000D01*
X0168622Y0044057D01*
X0168622Y0045202D01*
X0169060Y0046260D01*
X0169870Y0047070D01*
X0170928Y0047508D01*
X0172072Y0047508D01*
X0173130Y0047070D01*
X0173676Y0046524D01*
X0176500Y0046524D01*
X0176500Y0050236D01*
X0173676Y0050236D01*
X0173130Y0049690D01*
X0172072Y0049252D01*
X0170928Y0049252D01*
X0169870Y0049690D01*
X0169060Y0050500D01*
X0168622Y0051557D01*
X0168622Y0052702D01*
X0169060Y0053760D01*
X0169870Y0054570D01*
X0170928Y0055008D01*
X0172072Y0055008D01*
X0173130Y0054570D01*
X0173676Y0054024D01*
X0176500Y0054024D01*
X0176500Y0057736D01*
X0173676Y0057736D01*
X0173130Y0057190D01*
X0172072Y0056752D01*
X0170928Y0056752D01*
X0169870Y0057190D01*
X0169060Y0058000D01*
X0168622Y0059057D01*
X0168622Y0060202D01*
X0169060Y0061260D01*
X0169286Y0061486D01*
X0168534Y0061486D01*
X0160628Y0053580D01*
X0160628Y0052807D01*
X0160190Y0051750D01*
X0159380Y0050940D01*
X0158322Y0050502D01*
X0157178Y0050502D01*
X0156120Y0050940D01*
X0155310Y0051750D01*
X0154872Y0052807D01*
X0154872Y0053952D01*
X0155310Y0055010D01*
X0156120Y0055820D01*
X0157178Y0056258D01*
X0157950Y0056258D01*
X0165856Y0064164D01*
X0165856Y0064164D01*
X0166966Y0065274D01*
X0169286Y0065274D01*
X0169060Y0065500D01*
X0168622Y0066557D01*
X0168622Y0067702D01*
X0169060Y0068760D01*
X0169870Y0069570D01*
X0170928Y0070008D01*
X0172072Y0070008D01*
X0173130Y0069570D01*
X0173676Y0069024D01*
X0176500Y0069024D01*
X0176500Y0072854D01*
X0169903Y0072854D01*
X0154378Y0057330D01*
X0154378Y0056557D01*
X0153940Y0055500D01*
X0153130Y0054690D01*
X0152072Y0054252D01*
X0150928Y0054252D01*
X0149870Y0054690D01*
X0149060Y0055500D01*
X0148622Y0056557D01*
X0148622Y0056574D01*
X0143128Y0051080D01*
X0143128Y0050307D01*
X0142690Y0049250D01*
X0141880Y0048440D01*
X0140822Y0048002D01*
X0139678Y0048002D01*
X0138620Y0048440D01*
X0137810Y0049250D01*
X0137372Y0050307D01*
X0137372Y0050324D01*
X0133128Y0046080D01*
X0133128Y0045307D01*
X0133114Y0045274D01*
X0138074Y0045274D01*
X0138620Y0045820D01*
X0139678Y0046258D01*
X0140822Y0046258D01*
X0141880Y0045820D01*
X0142690Y0045010D01*
X0143128Y0043952D01*
X0143128Y0042807D01*
X0142690Y0041750D01*
X0141880Y0040940D01*
X0140822Y0040502D01*
X0139678Y0040502D01*
X0138620Y0040940D01*
X0138074Y0041486D01*
X0130614Y0041486D01*
X0130628Y0041452D01*
X0130628Y0040328D01*
X0131120Y0040820D01*
X0132178Y0041258D01*
X0133322Y0041258D01*
X0134380Y0040820D01*
X0135190Y0040010D01*
X0135628Y0038952D01*
X0135628Y0037807D01*
X0135190Y0036750D01*
X0134380Y0035940D01*
X0133322Y0035502D01*
X0132178Y0035502D01*
X0131120Y0035940D01*
X0130574Y0036486D01*
X0102426Y0036486D01*
X0101880Y0035940D01*
X0100822Y0035502D01*
X0099678Y0035502D01*
X0098620Y0035940D01*
X0097810Y0036750D01*
X0097372Y0037807D01*
X0097372Y0038126D01*
X0097072Y0038002D01*
X0095928Y0038002D01*
X0094870Y0038440D01*
X0094060Y0039250D01*
X0093622Y0040307D01*
X0093622Y0041452D01*
X0094060Y0042510D01*
X0094870Y0043320D01*
X0095928Y0043758D01*
X0097072Y0043758D01*
X0098130Y0043320D01*
X0098676Y0042774D01*
X0105678Y0042774D01*
X0105450Y0043002D01*
X0104678Y0043002D01*
X0103620Y0043440D01*
X0102810Y0044250D01*
X0102372Y0045307D01*
X0102372Y0046452D01*
X0102810Y0047510D01*
X0103620Y0048320D01*
X0104678Y0048758D01*
X0105822Y0048758D01*
X0106880Y0048320D01*
X0107690Y0047510D01*
X0108128Y0046452D01*
X0108128Y0045680D01*
X0108534Y0045274D01*
X0127386Y0045274D01*
X0127372Y0045307D01*
X0127372Y0046452D01*
X0127810Y0047510D01*
X0128620Y0048320D01*
X0129678Y0048758D01*
X0130450Y0048758D01*
X0173531Y0091839D01*
X0174082Y0092390D01*
X0174082Y0092390D01*
X0174719Y0092390D01*
X0176500Y0092390D01*
X0176500Y0103283D01*
X0175822Y0103002D01*
X0175050Y0103002D01*
X0131878Y0059830D01*
X0131878Y0059057D01*
X0131440Y0058000D01*
X0130630Y0057190D01*
X0129572Y0056752D01*
X0128428Y0056752D01*
X0127370Y0057190D01*
X0126560Y0058000D01*
X0126122Y0059057D01*
X0126122Y0060202D01*
X0126560Y0061260D01*
X0127370Y0062070D01*
X0128428Y0062508D01*
X0129200Y0062508D01*
X0172372Y0105680D01*
X0172372Y0106452D01*
X0172810Y0107510D01*
X0173620Y0108320D01*
X0174678Y0108758D01*
X0175822Y0108758D01*
X0176500Y0108477D01*
X0176500Y0142736D01*
X0173676Y0142736D01*
X0173130Y0142190D01*
X0172072Y0141752D01*
X0170928Y0141752D01*
X0169870Y0142190D01*
X0169060Y0143000D01*
X0168622Y0144057D01*
X0168622Y0145202D01*
X0169060Y0146260D01*
X0169870Y0147070D01*
X0170928Y0147508D01*
X0172072Y0147508D01*
X0173130Y0147070D01*
X0173676Y0146524D01*
X0176149Y0146524D01*
X0176500Y0146875D01*
X0176500Y0152149D01*
X0175984Y0152664D01*
X0175912Y0152736D01*
X0173676Y0152736D01*
X0173130Y0152190D01*
X0172072Y0151752D01*
X0170928Y0151752D01*
X0169870Y0152190D01*
X0169060Y0153000D01*
X0168622Y0154057D01*
X0168622Y0155202D01*
X0169060Y0156260D01*
X0169870Y0157070D01*
X0170928Y0157508D01*
X0172072Y0157508D01*
X0173130Y0157070D01*
X0173676Y0156524D01*
X0176500Y0156524D01*
X0176500Y0160023D01*
X0175984Y0160538D01*
X0173786Y0162736D01*
X0173676Y0162736D01*
X0173130Y0162190D01*
X0172072Y0161752D01*
X0170928Y0161752D01*
X0169870Y0162190D01*
X0169060Y0163000D01*
X0168622Y0164057D01*
X0168622Y0165202D01*
X0169060Y0166260D01*
X0169870Y0167070D01*
X0170928Y0167508D01*
X0172072Y0167508D01*
X0173130Y0167070D01*
X0173676Y0166524D01*
X0175355Y0166524D01*
X0176500Y0165379D01*
X0176500Y0167736D01*
X0175716Y0167736D01*
X0174606Y0168845D01*
X0171700Y0171752D01*
X0170928Y0171752D01*
X0169870Y0172190D01*
X0169060Y0173000D01*
X0168622Y0174057D01*
X0168622Y0175202D01*
X0169060Y0176260D01*
X0169870Y0177070D01*
X0170928Y0177508D01*
X0172072Y0177508D01*
X0173130Y0177070D01*
X0173940Y0176260D01*
X0174378Y0175202D01*
X0174378Y0174430D01*
X0176500Y0172308D01*
X0176500Y0175811D01*
X0169703Y0182608D01*
X0169599Y0182608D01*
X0168397Y0183106D01*
X0168323Y0183180D01*
X0123868Y0183180D01*
X0110450Y0169761D01*
X0110450Y0142833D01*
X0110527Y0142833D01*
X0111405Y0141954D01*
X0111405Y0134806D01*
X0110527Y0133927D01*
X0110450Y0133927D01*
X0110450Y0110307D01*
X0110524Y0110233D01*
X0111022Y0109031D01*
X0111022Y0107729D01*
X0110524Y0106527D01*
X0110499Y0106502D01*
X0110499Y0079007D01*
X0110524Y0078983D01*
X0111022Y0077781D01*
X0111022Y0076479D01*
X0110524Y0075277D01*
X0109603Y0074356D01*
X0108401Y0073858D01*
X0107099Y0073858D01*
X0106566Y0074079D01*
X0104732Y0074079D01*
X0104732Y0073566D01*
X0103854Y0072687D01*
X0096705Y0072687D01*
X0095827Y0073566D01*
X0095827Y0074430D01*
X0023868Y0074430D01*
X0020933Y0071494D01*
X0021147Y0071280D01*
X0021147Y0070774D01*
X0021257Y0070744D01*
X0021551Y0070575D01*
X0023127Y0068999D01*
X0020482Y0066354D01*
X0021189Y0065647D01*
X0023555Y0063281D01*
X0025410Y0065135D01*
X0025579Y0065429D01*
X0025667Y0065756D01*
X0025667Y0066095D01*
X0025579Y0066423D01*
X0025410Y0066716D01*
X0023834Y0068292D01*
X0021189Y0065647D01*
X0020482Y0064940D01*
X0022848Y0062574D01*
X0020994Y0060720D01*
X0020701Y0060550D01*
X0020373Y0060463D01*
X0020034Y0060463D01*
X0019707Y0060550D01*
X0019413Y0060720D01*
X0017837Y0062296D01*
X0020482Y0064940D01*
X0019775Y0065647D01*
X0017130Y0063003D01*
X0015554Y0064579D01*
X0015385Y0064872D01*
X0015355Y0064983D01*
X0014850Y0064983D01*
X0014510Y0065322D01*
X0011443Y0062255D01*
X0056368Y0017330D01*
X0078323Y0017330D01*
X0078397Y0017403D01*
X0079599Y0017901D01*
X0080901Y0017901D01*
X0082103Y0017403D01*
X0082177Y0017330D01*
X0084163Y0017330D01*
X0084163Y0018499D01*
X0084521Y0018857D01*
X0084464Y0018956D01*
X0084376Y0019283D01*
X0084376Y0021512D01*
X0088116Y0021512D01*
X0088116Y0022512D01*
X0088116Y0025858D01*
X0085494Y0025858D01*
X0085166Y0025770D01*
X0084873Y0025601D01*
X0084633Y0025361D01*
X0084464Y0025068D01*
X0084376Y0024740D01*
X0084376Y0022512D01*
X0088116Y0022512D01*
X0089116Y0022512D01*
X0089116Y0025858D01*
X0091738Y0025858D01*
X0092066Y0025770D01*
X0092359Y0025601D01*
X0092599Y0025361D01*
X0092769Y0025068D01*
X0092856Y0024740D01*
X0092856Y0022512D01*
X0089116Y0022512D01*
X0089116Y0021512D01*
X0092856Y0021512D01*
X0092856Y0019283D01*
X0092769Y0018956D01*
X0092711Y0018857D01*
X0093069Y0018499D01*
X0093069Y0017330D01*
X0119132Y0017330D01*
X0141978Y0040177D01*
X0141978Y0040281D01*
X0142476Y0041483D01*
X0143397Y0042403D01*
X0144599Y0042901D01*
X0145901Y0042901D01*
X0147103Y0042403D01*
X0148024Y0041483D01*
X0148522Y0040281D01*
X0148522Y0038979D01*
X0148024Y0037777D01*
X0147103Y0036856D01*
X0145901Y0036358D01*
X0145797Y0036358D01*
X0122539Y0013100D01*
X0122539Y0013100D01*
X0121779Y0012341D01*
X0120787Y0011930D01*
X0092860Y0011930D01*
X0092190Y0011260D01*
X0085042Y0011260D01*
X0084372Y0011930D01*
X0082177Y0011930D01*
X0082103Y0011856D01*
X0080901Y0011358D01*
X0079599Y0011358D01*
X0078397Y0011856D01*
X0078323Y0011930D01*
X0054713Y0011930D01*
X0053721Y0012341D01*
X0052961Y0013100D01*
X0007203Y0058858D01*
X0007099Y0058858D01*
X0005897Y0059356D01*
X0004976Y0060277D01*
X0004478Y0061479D01*
X0004478Y0062781D01*
X0004976Y0063983D01*
X0005897Y0064903D01*
X0006849Y0065298D01*
X0010692Y0069141D01*
X0010352Y0069480D01*
X0010352Y0070723D01*
X0015406Y0075777D01*
X0016649Y0075777D01*
X0017114Y0075312D01*
X0020461Y0078659D01*
X0020461Y0078659D01*
X0021221Y0079419D01*
X0022213Y0079830D01*
X0095827Y0079830D01*
X0095827Y0079926D01*
X0096184Y0080284D01*
X0096127Y0080383D01*
X0096039Y0080710D01*
X0096039Y0082939D01*
X0099779Y0082939D01*
X0099779Y0083939D01*
X0096039Y0083939D01*
X0096039Y0086167D01*
X0096127Y0086495D01*
X0096297Y0086788D01*
X0096536Y0087028D01*
X0096830Y0087198D01*
X0097157Y0087285D01*
X0099780Y0087285D01*
X0099780Y0083939D01*
X0100779Y0083939D01*
X0100779Y0087285D01*
X0103402Y0087285D01*
X0103729Y0087198D01*
X0104023Y0087028D01*
X0104262Y0086788D01*
X0104432Y0086495D01*
X0104520Y0086167D01*
X0104520Y0083939D01*
X0100780Y0083939D01*
X0100780Y0082939D01*
X0104520Y0082939D01*
X0104520Y0080710D01*
X0104432Y0080383D01*
X0104375Y0080284D01*
X0104380Y0080279D01*
X0105099Y0080279D01*
X0105099Y0106404D01*
X0104976Y0106527D01*
X0104478Y0107729D01*
X0104478Y0109031D01*
X0104976Y0110233D01*
X0105050Y0110307D01*
X0105050Y0124735D01*
X0105005Y0124690D01*
X0103948Y0124252D01*
X0102803Y0124252D01*
X0101745Y0124690D01*
X0100935Y0125500D01*
X0100497Y0126557D01*
X0100497Y0127702D01*
X0100935Y0128760D01*
X0101375Y0129200D01*
X0101375Y0131301D01*
X0100047Y0132630D01*
X0098875Y0133801D01*
X0098875Y0133927D01*
X0097473Y0133927D01*
X0096594Y0134806D01*
X0096594Y0141954D01*
X0097473Y0142833D01*
X0098654Y0142833D01*
X0098654Y0149384D01*
X0097135Y0149384D01*
X0096424Y0150094D01*
X0096424Y0150093D01*
X0096184Y0149854D01*
X0095891Y0149684D01*
X0095563Y0149596D01*
X0093335Y0149596D01*
X0093335Y0153533D01*
X0092335Y0153533D01*
X0092335Y0149596D01*
X0090106Y0149596D01*
X0089779Y0149684D01*
X0089485Y0149854D01*
X0089245Y0150093D01*
X0089076Y0150387D01*
X0088988Y0150714D01*
X0088988Y0153533D01*
X0092335Y0153533D01*
X0092335Y0154533D01*
X0088988Y0154533D01*
X0088988Y0157352D01*
X0089076Y0157680D01*
X0089245Y0157973D01*
X0089485Y0158213D01*
X0089779Y0158383D01*
X0090106Y0158470D01*
X0092335Y0158470D01*
X0092335Y0154533D01*
X0093335Y0154533D01*
X0093335Y0158470D01*
X0095563Y0158470D01*
X0095891Y0158383D01*
X0096184Y0158213D01*
X0096424Y0157973D01*
X0096424Y0157973D01*
X0097135Y0158683D01*
X0103495Y0158683D01*
X0104374Y0157804D01*
X0104374Y0150262D01*
X0103495Y0149384D01*
X0102654Y0149384D01*
X0102654Y0142833D01*
X0103834Y0142833D01*
X0104000Y0142666D01*
X0104166Y0142833D01*
X0105050Y0142833D01*
X0105050Y0171417D01*
X0105461Y0172409D01*
X0106221Y0173169D01*
X0106221Y0173169D01*
X0121221Y0188169D01*
X0122213Y0188580D01*
X0168323Y0188580D01*
X0168397Y0188653D01*
X0169599Y0189151D01*
X0170901Y0189151D01*
X0172103Y0188653D01*
X0173024Y0187733D01*
X0173522Y0186531D01*
X0173522Y0186427D01*
X0174750Y0185198D01*
X0174750Y0197880D01*
X0003250Y0197880D01*
X0003250Y0197343D02*
X0031976Y0197343D01*
X0032429Y0197530D02*
X0029525Y0196327D01*
X0027303Y0194105D01*
X0026100Y0191201D01*
X0026100Y0188058D01*
X0027303Y0185155D01*
X0029525Y0182933D01*
X0032429Y0181730D01*
X0035571Y0181730D01*
X0038475Y0182933D01*
X0040697Y0185155D01*
X0041900Y0188058D01*
X0041900Y0191201D01*
X0040697Y0194105D01*
X0038475Y0196327D01*
X0035571Y0197530D01*
X0032429Y0197530D01*
X0036024Y0197343D02*
X0174750Y0197343D01*
X0174750Y0196344D02*
X0038434Y0196344D01*
X0039457Y0195345D02*
X0174750Y0195345D01*
X0174750Y0194347D02*
X0040455Y0194347D01*
X0041011Y0193348D02*
X0174750Y0193348D01*
X0174750Y0192350D02*
X0041424Y0192350D01*
X0041838Y0191351D02*
X0174750Y0191351D01*
X0174750Y0190353D02*
X0041900Y0190353D01*
X0041900Y0189354D02*
X0174750Y0189354D01*
X0174750Y0188356D02*
X0172401Y0188356D01*
X0173179Y0187357D02*
X0174750Y0187357D01*
X0174750Y0186359D02*
X0173589Y0186359D01*
X0174588Y0185360D02*
X0174750Y0185360D01*
X0170945Y0181366D02*
X0122055Y0181366D01*
X0121056Y0180368D02*
X0171944Y0180368D01*
X0172942Y0179369D02*
X0120058Y0179369D01*
X0119059Y0178371D02*
X0173941Y0178371D01*
X0174939Y0177372D02*
X0172400Y0177372D01*
X0173826Y0176374D02*
X0175938Y0176374D01*
X0176500Y0175375D02*
X0174306Y0175375D01*
X0174431Y0174377D02*
X0176500Y0174377D01*
X0176500Y0173378D02*
X0175430Y0173378D01*
X0176428Y0172380D02*
X0176500Y0172380D01*
X0174068Y0169384D02*
X0155816Y0169384D01*
X0155630Y0169570D02*
X0154572Y0170008D01*
X0153428Y0170008D01*
X0152370Y0169570D01*
X0151560Y0168760D01*
X0151122Y0167702D01*
X0151122Y0166557D01*
X0151560Y0165500D01*
X0152052Y0165008D01*
X0150928Y0165008D01*
X0149870Y0164570D01*
X0149060Y0163760D01*
X0148622Y0162702D01*
X0148622Y0161557D01*
X0149060Y0160500D01*
X0149552Y0160008D01*
X0148428Y0160008D01*
X0147370Y0159570D01*
X0146560Y0158760D01*
X0146122Y0157702D01*
X0146122Y0156557D01*
X0146560Y0155500D01*
X0147052Y0155008D01*
X0145928Y0155008D01*
X0144870Y0154570D01*
X0144060Y0153760D01*
X0143622Y0152702D01*
X0143622Y0151557D01*
X0144060Y0150500D01*
X0144552Y0150008D01*
X0143428Y0150008D01*
X0142370Y0149570D01*
X0141560Y0148760D01*
X0141122Y0147702D01*
X0141122Y0146557D01*
X0141560Y0145500D01*
X0142052Y0145008D01*
X0140928Y0145008D01*
X0139870Y0144570D01*
X0139060Y0143760D01*
X0138622Y0142702D01*
X0138622Y0141557D01*
X0139060Y0140500D01*
X0139552Y0140008D01*
X0138428Y0140008D01*
X0137370Y0139570D01*
X0136560Y0138760D01*
X0136122Y0137702D01*
X0136122Y0136557D01*
X0136560Y0135500D01*
X0137052Y0135008D01*
X0135928Y0135008D01*
X0134870Y0134570D01*
X0134644Y0134344D01*
X0134644Y0169954D01*
X0135190Y0170500D01*
X0135628Y0171557D01*
X0135628Y0172702D01*
X0135190Y0173760D01*
X0134380Y0174570D01*
X0133322Y0175008D01*
X0132178Y0175008D01*
X0131120Y0174570D01*
X0130310Y0173760D01*
X0129872Y0172702D01*
X0129872Y0171557D01*
X0130310Y0170500D01*
X0130856Y0169954D01*
X0130856Y0112941D01*
X0130494Y0112941D01*
X0129437Y0112503D01*
X0128627Y0111693D01*
X0128189Y0110635D01*
X0128189Y0109490D01*
X0128627Y0108433D01*
X0129437Y0107623D01*
X0130494Y0107185D01*
X0131639Y0107185D01*
X0132697Y0107623D01*
X0133507Y0108433D01*
X0133945Y0109490D01*
X0133945Y0110263D01*
X0134606Y0110924D01*
X0134606Y0081806D01*
X0134060Y0081260D01*
X0133622Y0080202D01*
X0133622Y0079057D01*
X0134060Y0078000D01*
X0134870Y0077190D01*
X0135928Y0076752D01*
X0137072Y0076752D01*
X0138130Y0077190D01*
X0138940Y0078000D01*
X0139378Y0079057D01*
X0139378Y0080202D01*
X0138940Y0081260D01*
X0138448Y0081752D01*
X0139572Y0081752D01*
X0140630Y0082190D01*
X0141440Y0083000D01*
X0141878Y0084057D01*
X0141878Y0085202D01*
X0141440Y0086260D01*
X0140948Y0086752D01*
X0142072Y0086752D01*
X0143130Y0087190D01*
X0143940Y0088000D01*
X0144378Y0089057D01*
X0144378Y0090202D01*
X0143940Y0091260D01*
X0143448Y0091752D01*
X0144572Y0091752D01*
X0145630Y0092190D01*
X0146440Y0093000D01*
X0146878Y0094057D01*
X0146878Y0095202D01*
X0146440Y0096260D01*
X0145948Y0096752D01*
X0147072Y0096752D01*
X0148130Y0097190D01*
X0148940Y0098000D01*
X0149378Y0099057D01*
X0149378Y0100202D01*
X0148940Y0101260D01*
X0148448Y0101752D01*
X0149572Y0101752D01*
X0150630Y0102190D01*
X0151440Y0103000D01*
X0151878Y0104057D01*
X0151878Y0105202D01*
X0151440Y0106260D01*
X0150948Y0106752D01*
X0152072Y0106752D01*
X0153130Y0107190D01*
X0153940Y0108000D01*
X0154378Y0109057D01*
X0154378Y0110202D01*
X0153940Y0111260D01*
X0153448Y0111752D01*
X0154572Y0111752D01*
X0155630Y0112190D01*
X0156440Y0113000D01*
X0156878Y0114057D01*
X0156878Y0115202D01*
X0156440Y0116260D01*
X0155894Y0116806D01*
X0155894Y0164953D01*
X0156440Y0165500D01*
X0156878Y0166557D01*
X0156878Y0167702D01*
X0156440Y0168760D01*
X0155630Y0169570D01*
X0156595Y0168386D02*
X0175066Y0168386D01*
X0176500Y0167387D02*
X0172364Y0167387D01*
X0170636Y0167387D02*
X0156878Y0167387D01*
X0156808Y0166389D02*
X0169189Y0166389D01*
X0168700Y0165390D02*
X0156330Y0165390D01*
X0155894Y0164392D02*
X0168622Y0164392D01*
X0168897Y0163393D02*
X0155894Y0163393D01*
X0155894Y0162395D02*
X0169665Y0162395D01*
X0173335Y0162395D02*
X0174128Y0162395D01*
X0175126Y0161396D02*
X0155894Y0161396D01*
X0155894Y0160398D02*
X0176125Y0160398D01*
X0176500Y0159399D02*
X0155894Y0159399D01*
X0155894Y0158401D02*
X0176500Y0158401D01*
X0176500Y0157402D02*
X0172328Y0157402D01*
X0170672Y0157402D02*
X0155894Y0157402D01*
X0155894Y0156404D02*
X0169204Y0156404D01*
X0168706Y0155405D02*
X0155894Y0155405D01*
X0155894Y0154407D02*
X0168622Y0154407D01*
X0168891Y0153408D02*
X0155894Y0153408D01*
X0155894Y0152410D02*
X0169650Y0152410D01*
X0173350Y0152410D02*
X0176239Y0152410D01*
X0176500Y0151411D02*
X0155894Y0151411D01*
X0155894Y0150412D02*
X0176500Y0150412D01*
X0176500Y0149414D02*
X0155894Y0149414D01*
X0155894Y0148415D02*
X0176500Y0148415D01*
X0176500Y0147417D02*
X0172292Y0147417D01*
X0170708Y0147417D02*
X0155894Y0147417D01*
X0155894Y0146418D02*
X0169219Y0146418D01*
X0168712Y0145420D02*
X0155894Y0145420D01*
X0155894Y0144421D02*
X0168622Y0144421D01*
X0168885Y0143423D02*
X0155894Y0143423D01*
X0155894Y0142424D02*
X0169635Y0142424D01*
X0173365Y0142424D02*
X0176500Y0142424D01*
X0176500Y0141426D02*
X0155894Y0141426D01*
X0155894Y0140427D02*
X0176500Y0140427D01*
X0176500Y0139429D02*
X0155894Y0139429D01*
X0155894Y0138430D02*
X0176500Y0138430D01*
X0176500Y0137432D02*
X0155894Y0137432D01*
X0155894Y0136433D02*
X0176500Y0136433D01*
X0176500Y0135435D02*
X0155894Y0135435D01*
X0155894Y0134436D02*
X0176500Y0134436D01*
X0176500Y0133438D02*
X0155894Y0133438D01*
X0155894Y0132439D02*
X0176500Y0132439D01*
X0176500Y0131441D02*
X0155894Y0131441D01*
X0155894Y0130442D02*
X0176500Y0130442D01*
X0176500Y0129444D02*
X0155894Y0129444D01*
X0155894Y0128445D02*
X0176500Y0128445D01*
X0176500Y0127447D02*
X0155894Y0127447D01*
X0155894Y0126448D02*
X0176500Y0126448D01*
X0176500Y0125450D02*
X0155894Y0125450D01*
X0155894Y0124451D02*
X0176500Y0124451D01*
X0176500Y0123453D02*
X0155894Y0123453D01*
X0155894Y0122454D02*
X0176500Y0122454D01*
X0176500Y0121456D02*
X0155894Y0121456D01*
X0155894Y0120457D02*
X0176500Y0120457D01*
X0176500Y0119459D02*
X0155894Y0119459D01*
X0155894Y0118460D02*
X0176500Y0118460D01*
X0176500Y0117462D02*
X0155894Y0117462D01*
X0156237Y0116463D02*
X0176500Y0116463D01*
X0176500Y0115465D02*
X0156769Y0115465D01*
X0156878Y0114466D02*
X0176500Y0114466D01*
X0176500Y0113468D02*
X0156634Y0113468D01*
X0155909Y0112469D02*
X0176500Y0112469D01*
X0176500Y0111471D02*
X0153729Y0111471D01*
X0154266Y0110472D02*
X0176500Y0110472D01*
X0176500Y0109474D02*
X0154378Y0109474D01*
X0154137Y0108475D02*
X0173995Y0108475D01*
X0172796Y0107477D02*
X0153417Y0107477D01*
X0151222Y0106478D02*
X0172383Y0106478D01*
X0172172Y0105479D02*
X0151763Y0105479D01*
X0151878Y0104481D02*
X0171173Y0104481D01*
X0170175Y0103482D02*
X0151640Y0103482D01*
X0150924Y0102484D02*
X0169176Y0102484D01*
X0168178Y0101485D02*
X0148714Y0101485D01*
X0149260Y0100487D02*
X0167179Y0100487D01*
X0166180Y0099488D02*
X0149378Y0099488D01*
X0149143Y0098490D02*
X0165182Y0098490D01*
X0164183Y0097491D02*
X0148432Y0097491D01*
X0146207Y0096493D02*
X0163185Y0096493D01*
X0162186Y0095494D02*
X0146757Y0095494D01*
X0146878Y0094496D02*
X0161188Y0094496D01*
X0160189Y0093497D02*
X0146646Y0093497D01*
X0145939Y0092499D02*
X0159191Y0092499D01*
X0158192Y0091500D02*
X0143700Y0091500D01*
X0144254Y0090502D02*
X0157194Y0090502D01*
X0156195Y0089503D02*
X0144378Y0089503D01*
X0144149Y0088505D02*
X0155197Y0088505D01*
X0154198Y0087506D02*
X0143446Y0087506D01*
X0141751Y0085509D02*
X0152201Y0085509D01*
X0151203Y0084511D02*
X0141878Y0084511D01*
X0141652Y0083512D02*
X0150204Y0083512D01*
X0149206Y0082514D02*
X0140954Y0082514D01*
X0138685Y0081515D02*
X0148207Y0081515D01*
X0147209Y0080517D02*
X0139248Y0080517D01*
X0139378Y0079518D02*
X0146210Y0079518D01*
X0145212Y0078520D02*
X0139155Y0078520D01*
X0138461Y0077521D02*
X0144213Y0077521D01*
X0143215Y0076523D02*
X0111022Y0076523D01*
X0111022Y0077521D02*
X0134539Y0077521D01*
X0133845Y0078520D02*
X0110716Y0078520D01*
X0110499Y0079518D02*
X0133622Y0079518D01*
X0133752Y0080517D02*
X0110499Y0080517D01*
X0110499Y0081515D02*
X0134315Y0081515D01*
X0134606Y0082514D02*
X0110499Y0082514D01*
X0110499Y0083512D02*
X0134606Y0083512D01*
X0134606Y0084511D02*
X0110499Y0084511D01*
X0110499Y0085509D02*
X0134606Y0085509D01*
X0134606Y0086508D02*
X0110499Y0086508D01*
X0110499Y0087506D02*
X0134606Y0087506D01*
X0134606Y0088505D02*
X0110499Y0088505D01*
X0110499Y0089503D02*
X0134606Y0089503D01*
X0134606Y0090502D02*
X0110499Y0090502D01*
X0110499Y0091500D02*
X0134606Y0091500D01*
X0134606Y0092499D02*
X0110499Y0092499D01*
X0110499Y0093497D02*
X0134606Y0093497D01*
X0134606Y0094496D02*
X0110499Y0094496D01*
X0110499Y0095494D02*
X0134606Y0095494D01*
X0134606Y0096493D02*
X0110499Y0096493D01*
X0110499Y0097491D02*
X0134606Y0097491D01*
X0134606Y0098490D02*
X0110499Y0098490D01*
X0110499Y0099488D02*
X0134606Y0099488D01*
X0134606Y0100487D02*
X0110499Y0100487D01*
X0110499Y0101485D02*
X0134606Y0101485D01*
X0134606Y0102484D02*
X0110499Y0102484D01*
X0110499Y0103482D02*
X0134606Y0103482D01*
X0134606Y0104481D02*
X0110499Y0104481D01*
X0110499Y0105479D02*
X0134606Y0105479D01*
X0134606Y0106478D02*
X0110499Y0106478D01*
X0110917Y0107477D02*
X0129791Y0107477D01*
X0128610Y0108475D02*
X0111022Y0108475D01*
X0110838Y0109474D02*
X0128196Y0109474D01*
X0128189Y0110472D02*
X0110450Y0110472D01*
X0110450Y0111471D02*
X0128535Y0111471D01*
X0129403Y0112469D02*
X0110450Y0112469D01*
X0110450Y0113468D02*
X0130856Y0113468D01*
X0130856Y0114466D02*
X0110450Y0114466D01*
X0110450Y0115465D02*
X0130856Y0115465D01*
X0130856Y0116463D02*
X0110450Y0116463D01*
X0110450Y0117462D02*
X0130856Y0117462D01*
X0130856Y0118460D02*
X0110450Y0118460D01*
X0110450Y0119459D02*
X0130856Y0119459D01*
X0130856Y0120457D02*
X0110450Y0120457D01*
X0110450Y0121456D02*
X0130856Y0121456D01*
X0130856Y0122454D02*
X0110450Y0122454D01*
X0110450Y0123453D02*
X0130856Y0123453D01*
X0130856Y0124451D02*
X0110450Y0124451D01*
X0110450Y0125450D02*
X0130856Y0125450D01*
X0130856Y0126448D02*
X0110450Y0126448D01*
X0110450Y0127447D02*
X0130856Y0127447D01*
X0130856Y0128445D02*
X0110450Y0128445D01*
X0110450Y0129444D02*
X0130856Y0129444D01*
X0130856Y0130442D02*
X0110450Y0130442D01*
X0110450Y0131441D02*
X0130856Y0131441D01*
X0130856Y0132439D02*
X0110450Y0132439D01*
X0110450Y0133438D02*
X0130856Y0133438D01*
X0130856Y0134436D02*
X0111036Y0134436D01*
X0111405Y0135435D02*
X0130856Y0135435D01*
X0130856Y0136433D02*
X0111405Y0136433D01*
X0111405Y0137432D02*
X0130856Y0137432D01*
X0130856Y0138430D02*
X0111405Y0138430D01*
X0111405Y0139429D02*
X0130856Y0139429D01*
X0130856Y0140427D02*
X0111405Y0140427D01*
X0111405Y0141426D02*
X0130856Y0141426D01*
X0130856Y0142424D02*
X0110935Y0142424D01*
X0110450Y0143423D02*
X0130856Y0143423D01*
X0130856Y0144421D02*
X0110450Y0144421D01*
X0110450Y0145420D02*
X0130856Y0145420D01*
X0130856Y0146418D02*
X0110450Y0146418D01*
X0110450Y0147417D02*
X0130856Y0147417D01*
X0130856Y0148415D02*
X0110450Y0148415D01*
X0110450Y0149414D02*
X0130856Y0149414D01*
X0130856Y0150412D02*
X0110450Y0150412D01*
X0110450Y0151411D02*
X0130856Y0151411D01*
X0130856Y0152410D02*
X0110450Y0152410D01*
X0110450Y0153408D02*
X0130856Y0153408D01*
X0130856Y0154407D02*
X0110450Y0154407D01*
X0110450Y0155405D02*
X0130856Y0155405D01*
X0130856Y0156404D02*
X0110450Y0156404D01*
X0110450Y0157402D02*
X0130856Y0157402D01*
X0130856Y0158401D02*
X0110450Y0158401D01*
X0110450Y0159399D02*
X0130856Y0159399D01*
X0130856Y0160398D02*
X0110450Y0160398D01*
X0110450Y0161396D02*
X0130856Y0161396D01*
X0130856Y0162395D02*
X0110450Y0162395D01*
X0110450Y0163393D02*
X0130856Y0163393D01*
X0130856Y0164392D02*
X0110450Y0164392D01*
X0110450Y0165390D02*
X0130856Y0165390D01*
X0130856Y0166389D02*
X0110450Y0166389D01*
X0110450Y0167387D02*
X0130856Y0167387D01*
X0130856Y0168386D02*
X0110450Y0168386D01*
X0110450Y0169384D02*
X0130856Y0169384D01*
X0130427Y0170383D02*
X0111071Y0170383D01*
X0112070Y0171381D02*
X0129945Y0171381D01*
X0129872Y0172380D02*
X0113068Y0172380D01*
X0114067Y0173378D02*
X0130152Y0173378D01*
X0130927Y0174377D02*
X0115065Y0174377D01*
X0116064Y0175375D02*
X0168694Y0175375D01*
X0168622Y0174377D02*
X0134573Y0174377D01*
X0135348Y0173378D02*
X0168903Y0173378D01*
X0169680Y0172380D02*
X0135628Y0172380D01*
X0135555Y0171381D02*
X0172071Y0171381D01*
X0173069Y0170383D02*
X0135073Y0170383D01*
X0134644Y0169384D02*
X0152184Y0169384D01*
X0151405Y0168386D02*
X0134644Y0168386D01*
X0134644Y0167387D02*
X0151122Y0167387D01*
X0151192Y0166389D02*
X0134644Y0166389D01*
X0134644Y0165390D02*
X0151670Y0165390D01*
X0149692Y0164392D02*
X0134644Y0164392D01*
X0134644Y0163393D02*
X0148908Y0163393D01*
X0148622Y0162395D02*
X0134644Y0162395D01*
X0134644Y0161396D02*
X0148689Y0161396D01*
X0149162Y0160398D02*
X0134644Y0160398D01*
X0134644Y0159399D02*
X0147199Y0159399D01*
X0146411Y0158401D02*
X0134644Y0158401D01*
X0134644Y0157402D02*
X0146122Y0157402D01*
X0146186Y0156404D02*
X0134644Y0156404D01*
X0134644Y0155405D02*
X0146655Y0155405D01*
X0144707Y0154407D02*
X0134644Y0154407D01*
X0134644Y0153408D02*
X0143914Y0153408D01*
X0143622Y0152410D02*
X0134644Y0152410D01*
X0134644Y0151411D02*
X0143683Y0151411D01*
X0144147Y0150412D02*
X0134644Y0150412D01*
X0134644Y0149414D02*
X0142214Y0149414D01*
X0141417Y0148415D02*
X0134644Y0148415D01*
X0134644Y0147417D02*
X0141122Y0147417D01*
X0141180Y0146418D02*
X0134644Y0146418D01*
X0134644Y0145420D02*
X0141640Y0145420D01*
X0139722Y0144421D02*
X0134644Y0144421D01*
X0134644Y0143423D02*
X0138921Y0143423D01*
X0138622Y0142424D02*
X0134644Y0142424D01*
X0134644Y0141426D02*
X0138677Y0141426D01*
X0139132Y0140427D02*
X0134644Y0140427D01*
X0134644Y0139429D02*
X0137229Y0139429D01*
X0136424Y0138430D02*
X0134644Y0138430D01*
X0134644Y0137432D02*
X0136122Y0137432D01*
X0136173Y0136433D02*
X0134644Y0136433D01*
X0134644Y0135435D02*
X0136625Y0135435D01*
X0134736Y0134436D02*
X0134644Y0134436D01*
X0134606Y0110472D02*
X0134154Y0110472D01*
X0133938Y0109474D02*
X0134606Y0109474D01*
X0134606Y0108475D02*
X0133524Y0108475D01*
X0134606Y0107477D02*
X0132343Y0107477D01*
X0141192Y0086508D02*
X0153200Y0086508D01*
X0155560Y0083512D02*
X0165204Y0083512D01*
X0164206Y0082514D02*
X0154562Y0082514D01*
X0153563Y0081515D02*
X0163207Y0081515D01*
X0162209Y0080517D02*
X0152565Y0080517D01*
X0151566Y0079518D02*
X0161210Y0079518D01*
X0160212Y0078520D02*
X0150568Y0078520D01*
X0149569Y0077521D02*
X0159213Y0077521D01*
X0158215Y0076523D02*
X0148571Y0076523D01*
X0147572Y0075524D02*
X0157216Y0075524D01*
X0156218Y0074526D02*
X0146574Y0074526D01*
X0145575Y0073527D02*
X0155219Y0073527D01*
X0154221Y0072529D02*
X0144577Y0072529D01*
X0143578Y0071530D02*
X0153222Y0071530D01*
X0152224Y0070532D02*
X0142580Y0070532D01*
X0141581Y0069533D02*
X0151225Y0069533D01*
X0150227Y0068535D02*
X0140583Y0068535D01*
X0139584Y0067536D02*
X0149228Y0067536D01*
X0148230Y0066538D02*
X0138586Y0066538D01*
X0137587Y0065539D02*
X0147231Y0065539D01*
X0146233Y0064541D02*
X0136589Y0064541D01*
X0135590Y0063542D02*
X0145234Y0063542D01*
X0144236Y0062543D02*
X0134592Y0062543D01*
X0133593Y0061545D02*
X0143237Y0061545D01*
X0142239Y0060546D02*
X0132595Y0060546D01*
X0131878Y0059548D02*
X0141240Y0059548D01*
X0140242Y0058549D02*
X0131668Y0058549D01*
X0130991Y0057551D02*
X0139243Y0057551D01*
X0138245Y0056552D02*
X0017146Y0056552D01*
X0018144Y0055554D02*
X0137246Y0055554D01*
X0136247Y0054555D02*
X0019143Y0054555D01*
X0020141Y0053557D02*
X0135249Y0053557D01*
X0134250Y0052558D02*
X0021140Y0052558D01*
X0022138Y0051560D02*
X0133252Y0051560D01*
X0132253Y0050561D02*
X0023137Y0050561D01*
X0024135Y0049563D02*
X0131255Y0049563D01*
X0129211Y0048564D02*
X0106289Y0048564D01*
X0107634Y0047566D02*
X0127866Y0047566D01*
X0127420Y0046567D02*
X0108080Y0046567D01*
X0108239Y0045569D02*
X0127372Y0045569D01*
X0130628Y0040576D02*
X0130876Y0040576D01*
X0134624Y0040576D02*
X0139498Y0040576D01*
X0141002Y0040576D02*
X0142101Y0040576D01*
X0142515Y0041575D02*
X0142568Y0041575D01*
X0143031Y0042573D02*
X0143807Y0042573D01*
X0143128Y0043572D02*
X0168823Y0043572D01*
X0168622Y0044570D02*
X0142872Y0044570D01*
X0142131Y0045569D02*
X0168774Y0045569D01*
X0169367Y0046567D02*
X0133616Y0046567D01*
X0133128Y0045569D02*
X0138369Y0045569D01*
X0138495Y0048564D02*
X0135613Y0048564D01*
X0136611Y0049563D02*
X0137680Y0049563D01*
X0134614Y0047566D02*
X0176500Y0047566D01*
X0176500Y0048564D02*
X0142005Y0048564D01*
X0142820Y0049563D02*
X0170177Y0049563D01*
X0169035Y0050561D02*
X0158466Y0050561D01*
X0157034Y0050561D02*
X0143128Y0050561D01*
X0143608Y0051560D02*
X0155500Y0051560D01*
X0154975Y0052558D02*
X0144607Y0052558D01*
X0145605Y0053557D02*
X0154872Y0053557D01*
X0155122Y0054555D02*
X0152805Y0054555D01*
X0153962Y0055554D02*
X0155854Y0055554D01*
X0154376Y0056552D02*
X0158245Y0056552D01*
X0159243Y0057551D02*
X0154599Y0057551D01*
X0155598Y0058549D02*
X0160242Y0058549D01*
X0161240Y0059548D02*
X0156596Y0059548D01*
X0157595Y0060546D02*
X0162239Y0060546D01*
X0163237Y0061545D02*
X0158593Y0061545D01*
X0159592Y0062543D02*
X0164236Y0062543D01*
X0165234Y0063542D02*
X0160590Y0063542D01*
X0161589Y0064541D02*
X0166233Y0064541D01*
X0169044Y0065539D02*
X0162587Y0065539D01*
X0163586Y0066538D02*
X0168630Y0066538D01*
X0168622Y0067536D02*
X0164584Y0067536D01*
X0165583Y0068535D02*
X0168967Y0068535D01*
X0169833Y0069533D02*
X0166581Y0069533D01*
X0167580Y0070532D02*
X0176500Y0070532D01*
X0176500Y0071530D02*
X0168578Y0071530D01*
X0169577Y0072529D02*
X0176500Y0072529D01*
X0176500Y0069533D02*
X0173167Y0069533D01*
X0168765Y0060546D02*
X0167595Y0060546D01*
X0166596Y0059548D02*
X0168622Y0059548D01*
X0168832Y0058549D02*
X0165598Y0058549D01*
X0164599Y0057551D02*
X0169509Y0057551D01*
X0169856Y0054555D02*
X0161604Y0054555D01*
X0160628Y0053557D02*
X0168976Y0053557D01*
X0168622Y0052558D02*
X0160525Y0052558D01*
X0160000Y0051560D02*
X0168622Y0051560D01*
X0172823Y0049563D02*
X0176500Y0049563D01*
X0176500Y0046567D02*
X0173633Y0046567D01*
X0173513Y0042573D02*
X0176500Y0042573D01*
X0176500Y0041575D02*
X0147932Y0041575D01*
X0148399Y0040576D02*
X0176500Y0040576D01*
X0176500Y0039578D02*
X0148522Y0039578D01*
X0148356Y0038579D02*
X0176500Y0038579D01*
X0176500Y0037581D02*
X0147828Y0037581D01*
X0146442Y0036582D02*
X0176500Y0036582D01*
X0176500Y0035584D02*
X0145022Y0035584D01*
X0144024Y0034585D02*
X0176500Y0034585D01*
X0176500Y0033587D02*
X0143025Y0033587D01*
X0142027Y0032588D02*
X0176500Y0032588D01*
X0176500Y0031590D02*
X0141028Y0031590D01*
X0140030Y0030591D02*
X0176500Y0030591D01*
X0176500Y0029593D02*
X0139031Y0029593D01*
X0138033Y0028594D02*
X0176500Y0028594D01*
X0176500Y0027596D02*
X0137034Y0027596D01*
X0136036Y0026597D02*
X0176500Y0026597D01*
X0176500Y0025599D02*
X0135037Y0025599D01*
X0134039Y0024600D02*
X0176500Y0024600D01*
X0176500Y0023602D02*
X0133040Y0023602D01*
X0132042Y0022603D02*
X0176500Y0022603D01*
X0176500Y0021605D02*
X0131043Y0021605D01*
X0130045Y0020606D02*
X0175001Y0020606D01*
X0174750Y0019608D02*
X0129046Y0019608D01*
X0128048Y0018609D02*
X0174750Y0018609D01*
X0174750Y0017610D02*
X0127049Y0017610D01*
X0126050Y0016612D02*
X0174750Y0016612D01*
X0174750Y0015613D02*
X0125052Y0015613D01*
X0124053Y0014615D02*
X0174750Y0014615D01*
X0174750Y0013616D02*
X0123055Y0013616D01*
X0122056Y0012618D02*
X0174750Y0012618D01*
X0174750Y0011619D02*
X0092550Y0011619D01*
X0093069Y0017610D02*
X0119412Y0017610D01*
X0120411Y0018609D02*
X0092959Y0018609D01*
X0092856Y0019608D02*
X0121409Y0019608D01*
X0122408Y0020606D02*
X0092856Y0020606D01*
X0092856Y0022603D02*
X0124405Y0022603D01*
X0125403Y0023602D02*
X0092856Y0023602D01*
X0092856Y0024600D02*
X0126402Y0024600D01*
X0127400Y0025599D02*
X0092362Y0025599D01*
X0089116Y0025599D02*
X0088116Y0025599D01*
X0088116Y0024600D02*
X0089116Y0024600D01*
X0089116Y0023602D02*
X0088116Y0023602D01*
X0088116Y0022603D02*
X0089116Y0022603D01*
X0089116Y0021605D02*
X0123406Y0021605D01*
X0128399Y0026597D02*
X0047101Y0026597D01*
X0046103Y0027596D02*
X0129397Y0027596D01*
X0130396Y0028594D02*
X0045104Y0028594D01*
X0044106Y0029593D02*
X0131394Y0029593D01*
X0132393Y0030591D02*
X0043107Y0030591D01*
X0042109Y0031590D02*
X0133391Y0031590D01*
X0134390Y0032588D02*
X0041110Y0032588D01*
X0040112Y0033587D02*
X0135388Y0033587D01*
X0136387Y0034585D02*
X0039113Y0034585D01*
X0038115Y0035584D02*
X0099480Y0035584D01*
X0101020Y0035584D02*
X0131980Y0035584D01*
X0133520Y0035584D02*
X0137385Y0035584D01*
X0138384Y0036582D02*
X0135022Y0036582D01*
X0135534Y0037581D02*
X0139383Y0037581D01*
X0140381Y0038579D02*
X0135628Y0038579D01*
X0135369Y0039578D02*
X0141380Y0039578D01*
X0146693Y0042573D02*
X0169487Y0042573D01*
X0173144Y0054555D02*
X0176500Y0054555D01*
X0176500Y0055554D02*
X0162602Y0055554D01*
X0163601Y0056552D02*
X0176500Y0056552D01*
X0176500Y0057551D02*
X0173491Y0057551D01*
X0150195Y0054555D02*
X0146604Y0054555D01*
X0147602Y0055554D02*
X0149038Y0055554D01*
X0148624Y0056552D02*
X0148601Y0056552D01*
X0135227Y0068535D02*
X0022662Y0068535D01*
X0022593Y0069533D02*
X0136225Y0069533D01*
X0137224Y0070532D02*
X0021594Y0070532D01*
X0020969Y0071530D02*
X0138222Y0071530D01*
X0139221Y0072529D02*
X0021967Y0072529D01*
X0022966Y0073527D02*
X0095865Y0073527D01*
X0096091Y0080517D02*
X0003250Y0080517D01*
X0003250Y0081515D02*
X0096039Y0081515D01*
X0096039Y0082514D02*
X0003250Y0082514D01*
X0003250Y0083512D02*
X0099779Y0083512D01*
X0099780Y0084511D02*
X0100779Y0084511D01*
X0100779Y0085509D02*
X0099780Y0085509D01*
X0099780Y0086508D02*
X0100779Y0086508D01*
X0100780Y0083512D02*
X0105099Y0083512D01*
X0105099Y0082514D02*
X0104520Y0082514D01*
X0104520Y0081515D02*
X0105099Y0081515D01*
X0105099Y0080517D02*
X0104468Y0080517D01*
X0104520Y0084511D02*
X0105099Y0084511D01*
X0105099Y0085509D02*
X0104520Y0085509D01*
X0104424Y0086508D02*
X0105099Y0086508D01*
X0105099Y0087506D02*
X0003250Y0087506D01*
X0003250Y0086508D02*
X0096135Y0086508D01*
X0096039Y0085509D02*
X0003250Y0085509D01*
X0003250Y0084511D02*
X0096039Y0084511D01*
X0105099Y0088505D02*
X0003250Y0088505D01*
X0003250Y0089503D02*
X0105099Y0089503D01*
X0105099Y0090502D02*
X0003250Y0090502D01*
X0003250Y0091500D02*
X0105099Y0091500D01*
X0105099Y0092499D02*
X0003250Y0092499D01*
X0003250Y0093497D02*
X0105099Y0093497D01*
X0105099Y0094496D02*
X0003250Y0094496D01*
X0003250Y0095494D02*
X0105099Y0095494D01*
X0105099Y0096493D02*
X0003250Y0096493D01*
X0003250Y0097491D02*
X0082068Y0097491D01*
X0082370Y0097190D02*
X0083428Y0096752D01*
X0084572Y0096752D01*
X0085630Y0097190D01*
X0086440Y0098000D01*
X0086878Y0099057D01*
X0086878Y0100202D01*
X0086440Y0101260D01*
X0086010Y0101690D01*
X0086010Y0116230D01*
X0087190Y0116230D01*
X0087750Y0116790D01*
X0088310Y0116230D01*
X0089500Y0116230D01*
X0089500Y0101700D01*
X0089060Y0101260D01*
X0088622Y0100202D01*
X0088622Y0099057D01*
X0089060Y0098000D01*
X0089870Y0097190D01*
X0090928Y0096752D01*
X0092072Y0096752D01*
X0093130Y0097190D01*
X0093940Y0098000D01*
X0094378Y0099057D01*
X0094378Y0100202D01*
X0093940Y0101260D01*
X0093500Y0101700D01*
X0093500Y0116230D01*
X0094671Y0116230D01*
X0095549Y0117109D01*
X0095549Y0124651D01*
X0094671Y0125529D01*
X0093500Y0125529D01*
X0093500Y0130872D01*
X0093501Y0131696D01*
X0093500Y0131697D01*
X0093500Y0131698D01*
X0093490Y0131708D01*
X0093490Y0137968D01*
X0074828Y0156630D01*
X0074678Y0156630D01*
X0072724Y0158584D01*
X0072841Y0158866D01*
X0072841Y0160394D01*
X0072256Y0161805D01*
X0071175Y0162886D01*
X0069764Y0163470D01*
X0068236Y0163470D01*
X0066824Y0162886D01*
X0065744Y0161805D01*
X0065159Y0160394D01*
X0065159Y0158866D01*
X0065744Y0157454D01*
X0066824Y0156374D01*
X0068236Y0155789D01*
X0069764Y0155789D01*
X0070046Y0155906D01*
X0072000Y0153952D01*
X0072000Y0153801D01*
X0089490Y0136311D01*
X0089490Y0125529D01*
X0088310Y0125529D01*
X0087750Y0124970D01*
X0087190Y0125529D01*
X0086010Y0125529D01*
X0086010Y0127948D01*
X0068121Y0145837D01*
X0068236Y0145789D01*
X0069764Y0145789D01*
X0071175Y0146374D01*
X0072256Y0147454D01*
X0072841Y0148866D01*
X0072841Y0150394D01*
X0072256Y0151805D01*
X0071175Y0152886D01*
X0069764Y0153470D01*
X0068236Y0153470D01*
X0066824Y0152886D01*
X0065744Y0151805D01*
X0065159Y0150394D01*
X0065159Y0148866D01*
X0065313Y0148495D01*
X0061805Y0152003D01*
X0062256Y0152454D01*
X0062841Y0153866D01*
X0062841Y0155394D01*
X0062256Y0156805D01*
X0061175Y0157886D01*
X0059764Y0158470D01*
X0058236Y0158470D01*
X0056824Y0157886D01*
X0055744Y0156805D01*
X0055159Y0155394D01*
X0055159Y0153866D01*
X0055744Y0152454D01*
X0056824Y0151374D01*
X0057257Y0151195D01*
X0058216Y0150236D01*
X0064490Y0143962D01*
X0064490Y0143811D01*
X0082010Y0126292D01*
X0082010Y0125529D01*
X0080829Y0125529D01*
X0079951Y0124651D01*
X0079951Y0117109D01*
X0080829Y0116230D01*
X0082010Y0116230D01*
X0082010Y0101710D01*
X0081560Y0101260D01*
X0081122Y0100202D01*
X0081122Y0099057D01*
X0081560Y0098000D01*
X0082370Y0097190D01*
X0081357Y0098490D02*
X0003250Y0098490D01*
X0003250Y0099488D02*
X0081122Y0099488D01*
X0081240Y0100487D02*
X0003250Y0100487D01*
X0003250Y0101485D02*
X0081786Y0101485D01*
X0082010Y0102484D02*
X0003250Y0102484D01*
X0003250Y0103482D02*
X0082010Y0103482D01*
X0082010Y0104481D02*
X0003250Y0104481D01*
X0003250Y0105479D02*
X0082010Y0105479D01*
X0082010Y0106478D02*
X0003250Y0106478D01*
X0003250Y0107477D02*
X0082010Y0107477D01*
X0082010Y0108475D02*
X0003250Y0108475D01*
X0003250Y0109474D02*
X0082010Y0109474D01*
X0082010Y0110472D02*
X0003250Y0110472D01*
X0003250Y0111471D02*
X0082010Y0111471D01*
X0082010Y0112469D02*
X0003250Y0112469D01*
X0003250Y0113468D02*
X0082010Y0113468D01*
X0082010Y0114466D02*
X0003250Y0114466D01*
X0003250Y0115465D02*
X0082010Y0115465D01*
X0080597Y0116463D02*
X0003250Y0116463D01*
X0003250Y0117462D02*
X0079951Y0117462D01*
X0079951Y0118460D02*
X0003250Y0118460D01*
X0003250Y0119459D02*
X0079951Y0119459D01*
X0079951Y0120457D02*
X0003250Y0120457D01*
X0003250Y0121456D02*
X0079951Y0121456D01*
X0079951Y0122454D02*
X0003250Y0122454D01*
X0003250Y0123453D02*
X0079951Y0123453D01*
X0079951Y0124451D02*
X0003250Y0124451D01*
X0003250Y0125450D02*
X0080750Y0125450D01*
X0081853Y0126448D02*
X0003250Y0126448D01*
X0003250Y0127447D02*
X0080855Y0127447D01*
X0079856Y0128445D02*
X0003250Y0128445D01*
X0003250Y0129444D02*
X0078858Y0129444D01*
X0077859Y0130442D02*
X0003250Y0130442D01*
X0003250Y0131441D02*
X0076861Y0131441D01*
X0075862Y0132439D02*
X0003250Y0132439D01*
X0003250Y0133438D02*
X0074864Y0133438D01*
X0073865Y0134436D02*
X0003250Y0134436D01*
X0003250Y0135435D02*
X0072867Y0135435D01*
X0071868Y0136433D02*
X0003250Y0136433D01*
X0003250Y0137432D02*
X0030734Y0137432D01*
X0029525Y0137933D02*
X0032429Y0136730D01*
X0035571Y0136730D01*
X0038475Y0137933D01*
X0040697Y0140155D01*
X0041900Y0143058D01*
X0041900Y0146201D01*
X0040697Y0149105D01*
X0038475Y0151327D01*
X0035571Y0152530D01*
X0032429Y0152530D01*
X0029525Y0151327D01*
X0027303Y0149105D01*
X0026100Y0146201D01*
X0026100Y0143058D01*
X0027303Y0140155D01*
X0029525Y0137933D01*
X0029027Y0138430D02*
X0003250Y0138430D01*
X0003250Y0139429D02*
X0028029Y0139429D01*
X0027190Y0140427D02*
X0003250Y0140427D01*
X0003250Y0141426D02*
X0026776Y0141426D01*
X0026363Y0142424D02*
X0003250Y0142424D01*
X0003250Y0143423D02*
X0026100Y0143423D01*
X0026100Y0144421D02*
X0003250Y0144421D01*
X0003250Y0145420D02*
X0026100Y0145420D01*
X0026190Y0146418D02*
X0003250Y0146418D01*
X0003250Y0147417D02*
X0026604Y0147417D01*
X0027017Y0148415D02*
X0003250Y0148415D01*
X0003250Y0149414D02*
X0027612Y0149414D01*
X0028610Y0150412D02*
X0003250Y0150412D01*
X0003250Y0151411D02*
X0029728Y0151411D01*
X0032138Y0152410D02*
X0003250Y0152410D01*
X0003250Y0153408D02*
X0055349Y0153408D01*
X0055159Y0154407D02*
X0003250Y0154407D01*
X0003250Y0155405D02*
X0055164Y0155405D01*
X0055578Y0156404D02*
X0003250Y0156404D01*
X0003250Y0157402D02*
X0056341Y0157402D01*
X0058068Y0158401D02*
X0003250Y0158401D01*
X0003250Y0159399D02*
X0065159Y0159399D01*
X0065161Y0160398D02*
X0003250Y0160398D01*
X0003250Y0161396D02*
X0056802Y0161396D01*
X0056824Y0161374D02*
X0058236Y0160789D01*
X0059764Y0160789D01*
X0061175Y0161374D01*
X0062256Y0162454D01*
X0062841Y0163866D01*
X0062841Y0165394D01*
X0062256Y0166805D01*
X0061175Y0167886D01*
X0059764Y0168470D01*
X0058236Y0168470D01*
X0056824Y0167886D01*
X0055744Y0166805D01*
X0055159Y0165394D01*
X0055159Y0163866D01*
X0055744Y0162454D01*
X0056824Y0161374D01*
X0055804Y0162395D02*
X0003250Y0162395D01*
X0003250Y0163393D02*
X0055355Y0163393D01*
X0055159Y0164392D02*
X0003250Y0164392D01*
X0003250Y0165390D02*
X0055159Y0165390D01*
X0055572Y0166389D02*
X0003250Y0166389D01*
X0003250Y0167387D02*
X0056326Y0167387D01*
X0058032Y0168386D02*
X0003250Y0168386D01*
X0003250Y0169384D02*
X0065159Y0169384D01*
X0065159Y0168866D02*
X0065744Y0167454D01*
X0066824Y0166374D01*
X0068236Y0165789D01*
X0069764Y0165789D01*
X0071175Y0166374D01*
X0072256Y0167454D01*
X0072841Y0168866D01*
X0072841Y0170394D01*
X0072256Y0171805D01*
X0071175Y0172886D01*
X0069764Y0173470D01*
X0068236Y0173470D01*
X0066824Y0172886D01*
X0065744Y0171805D01*
X0065159Y0170394D01*
X0065159Y0168866D01*
X0065358Y0168386D02*
X0059968Y0168386D01*
X0061674Y0167387D02*
X0065811Y0167387D01*
X0066810Y0166389D02*
X0062428Y0166389D01*
X0062841Y0165390D02*
X0105050Y0165390D01*
X0105050Y0164392D02*
X0062841Y0164392D01*
X0062645Y0163393D02*
X0068050Y0163393D01*
X0069950Y0163393D02*
X0105050Y0163393D01*
X0105050Y0162395D02*
X0071667Y0162395D01*
X0072425Y0161396D02*
X0105050Y0161396D01*
X0105050Y0160398D02*
X0072839Y0160398D01*
X0072841Y0159399D02*
X0105050Y0159399D01*
X0105050Y0158401D02*
X0103778Y0158401D01*
X0104374Y0157402D02*
X0105050Y0157402D01*
X0105050Y0156404D02*
X0104374Y0156404D01*
X0104374Y0155405D02*
X0105050Y0155405D01*
X0105050Y0154407D02*
X0104374Y0154407D01*
X0104374Y0153408D02*
X0105050Y0153408D01*
X0105050Y0152410D02*
X0104374Y0152410D01*
X0104374Y0151411D02*
X0105050Y0151411D01*
X0105050Y0150412D02*
X0104374Y0150412D01*
X0105050Y0149414D02*
X0103526Y0149414D01*
X0102654Y0148415D02*
X0105050Y0148415D01*
X0105050Y0147417D02*
X0102654Y0147417D01*
X0102654Y0146418D02*
X0105050Y0146418D01*
X0105050Y0145420D02*
X0102654Y0145420D01*
X0102654Y0144421D02*
X0105050Y0144421D01*
X0105050Y0143423D02*
X0102654Y0143423D01*
X0098654Y0143423D02*
X0088035Y0143423D01*
X0087037Y0144421D02*
X0098654Y0144421D01*
X0098654Y0145420D02*
X0086038Y0145420D01*
X0085040Y0146418D02*
X0098654Y0146418D01*
X0098654Y0147417D02*
X0084041Y0147417D01*
X0083043Y0148415D02*
X0098654Y0148415D01*
X0097104Y0149414D02*
X0082044Y0149414D01*
X0081046Y0150412D02*
X0089069Y0150412D01*
X0088988Y0151411D02*
X0080047Y0151411D01*
X0079049Y0152410D02*
X0088988Y0152410D01*
X0088988Y0153408D02*
X0078050Y0153408D01*
X0077052Y0154407D02*
X0092335Y0154407D01*
X0092335Y0155405D02*
X0093335Y0155405D01*
X0093335Y0156404D02*
X0092335Y0156404D01*
X0092335Y0157402D02*
X0093335Y0157402D01*
X0093335Y0158401D02*
X0092335Y0158401D01*
X0095824Y0158401D02*
X0096852Y0158401D01*
X0100315Y0154033D02*
X0100654Y0153315D01*
X0100654Y0138380D01*
X0100875Y0138158D01*
X0100875Y0134630D01*
X0103375Y0132130D01*
X0103375Y0127130D01*
X0102322Y0124451D02*
X0095549Y0124451D01*
X0095549Y0123453D02*
X0105050Y0123453D01*
X0105050Y0124451D02*
X0104429Y0124451D01*
X0105050Y0122454D02*
X0095549Y0122454D01*
X0095549Y0121456D02*
X0105050Y0121456D01*
X0105050Y0120457D02*
X0095549Y0120457D01*
X0095549Y0119459D02*
X0105050Y0119459D01*
X0105050Y0118460D02*
X0095549Y0118460D01*
X0095549Y0117462D02*
X0105050Y0117462D01*
X0105050Y0116463D02*
X0094903Y0116463D01*
X0093500Y0115465D02*
X0105050Y0115465D01*
X0105050Y0114466D02*
X0093500Y0114466D01*
X0093500Y0113468D02*
X0105050Y0113468D01*
X0105050Y0112469D02*
X0093500Y0112469D01*
X0093500Y0111471D02*
X0105050Y0111471D01*
X0105050Y0110472D02*
X0093500Y0110472D01*
X0093500Y0109474D02*
X0104662Y0109474D01*
X0104478Y0108475D02*
X0093500Y0108475D01*
X0093500Y0107477D02*
X0104583Y0107477D01*
X0105025Y0106478D02*
X0093500Y0106478D01*
X0093500Y0105479D02*
X0105099Y0105479D01*
X0105099Y0104481D02*
X0093500Y0104481D01*
X0093500Y0103482D02*
X0105099Y0103482D01*
X0105099Y0102484D02*
X0093500Y0102484D01*
X0093714Y0101485D02*
X0105099Y0101485D01*
X0105099Y0100487D02*
X0094260Y0100487D01*
X0094378Y0099488D02*
X0105099Y0099488D01*
X0105099Y0098490D02*
X0094143Y0098490D01*
X0093432Y0097491D02*
X0105099Y0097491D01*
X0091500Y0099630D02*
X0091500Y0130870D01*
X0091490Y0120880D01*
X0091490Y0137140D01*
X0074000Y0154630D01*
X0072393Y0153408D02*
X0069914Y0153408D01*
X0068086Y0153408D02*
X0062651Y0153408D01*
X0062841Y0154407D02*
X0071545Y0154407D01*
X0070547Y0155405D02*
X0062836Y0155405D01*
X0062422Y0156404D02*
X0066795Y0156404D01*
X0065796Y0157402D02*
X0061659Y0157402D01*
X0059932Y0158401D02*
X0065352Y0158401D01*
X0065575Y0161396D02*
X0061198Y0161396D01*
X0062196Y0162395D02*
X0066333Y0162395D01*
X0071190Y0166389D02*
X0105050Y0166389D01*
X0105050Y0167387D02*
X0072189Y0167387D01*
X0072642Y0168386D02*
X0105050Y0168386D01*
X0105050Y0169384D02*
X0072841Y0169384D01*
X0072841Y0170383D02*
X0105050Y0170383D01*
X0105050Y0171381D02*
X0072432Y0171381D01*
X0071681Y0172380D02*
X0105449Y0172380D01*
X0106430Y0173378D02*
X0069986Y0173378D01*
X0068014Y0173378D02*
X0062639Y0173378D01*
X0062841Y0173866D02*
X0062256Y0172454D01*
X0061175Y0171374D01*
X0059764Y0170789D01*
X0058236Y0170789D01*
X0056824Y0171374D01*
X0055744Y0172454D01*
X0055159Y0173866D01*
X0055159Y0175394D01*
X0055744Y0176805D01*
X0056824Y0177886D01*
X0058236Y0178470D01*
X0059764Y0178470D01*
X0061175Y0177886D01*
X0062256Y0176805D01*
X0062841Y0175394D01*
X0062841Y0173866D01*
X0062841Y0174377D02*
X0107429Y0174377D01*
X0108427Y0175375D02*
X0062841Y0175375D01*
X0062435Y0176374D02*
X0066825Y0176374D01*
X0066824Y0176374D02*
X0068236Y0175789D01*
X0069764Y0175789D01*
X0071175Y0176374D01*
X0109426Y0176374D01*
X0110424Y0177372D02*
X0072174Y0177372D01*
X0072256Y0177454D02*
X0072841Y0178866D01*
X0072841Y0180394D01*
X0072256Y0181805D01*
X0071175Y0182886D01*
X0069764Y0183470D01*
X0068236Y0183470D01*
X0066824Y0182886D01*
X0065744Y0181805D01*
X0065159Y0180394D01*
X0065159Y0178866D01*
X0065744Y0177454D01*
X0066824Y0176374D01*
X0065826Y0177372D02*
X0061689Y0177372D01*
X0060004Y0178371D02*
X0065365Y0178371D01*
X0065159Y0179369D02*
X0003250Y0179369D01*
X0003250Y0178371D02*
X0057996Y0178371D01*
X0056311Y0177372D02*
X0003250Y0177372D01*
X0003250Y0176374D02*
X0055565Y0176374D01*
X0055159Y0175375D02*
X0003250Y0175375D01*
X0003250Y0174377D02*
X0055159Y0174377D01*
X0055361Y0173378D02*
X0003250Y0173378D01*
X0003250Y0172380D02*
X0055819Y0172380D01*
X0056817Y0171381D02*
X0003250Y0171381D01*
X0003250Y0170383D02*
X0065159Y0170383D01*
X0065568Y0171381D02*
X0061183Y0171381D01*
X0062181Y0172380D02*
X0066319Y0172380D01*
X0071175Y0176374D02*
X0072256Y0177454D01*
X0072635Y0178371D02*
X0111423Y0178371D01*
X0112421Y0179369D02*
X0072841Y0179369D01*
X0072841Y0180368D02*
X0113420Y0180368D01*
X0114418Y0181366D02*
X0072438Y0181366D01*
X0071696Y0182365D02*
X0115417Y0182365D01*
X0116415Y0183363D02*
X0070022Y0183363D01*
X0067978Y0183363D02*
X0062632Y0183363D01*
X0062841Y0183866D02*
X0062256Y0182454D01*
X0061175Y0181374D01*
X0059764Y0180789D01*
X0058236Y0180789D01*
X0056824Y0181374D01*
X0055744Y0182454D01*
X0055159Y0183866D01*
X0055159Y0185394D01*
X0055744Y0186805D01*
X0056824Y0187886D01*
X0058236Y0188470D01*
X0059764Y0188470D01*
X0061175Y0187886D01*
X0062256Y0186805D01*
X0062841Y0185394D01*
X0062841Y0183866D01*
X0062841Y0184362D02*
X0117414Y0184362D01*
X0118412Y0185360D02*
X0062841Y0185360D01*
X0062441Y0186359D02*
X0119411Y0186359D01*
X0120409Y0187357D02*
X0061704Y0187357D01*
X0060040Y0188356D02*
X0121672Y0188356D01*
X0123053Y0182365D02*
X0169947Y0182365D01*
X0170600Y0177372D02*
X0118061Y0177372D01*
X0117062Y0176374D02*
X0169174Y0176374D01*
X0175490Y0166389D02*
X0176500Y0166389D01*
X0176489Y0165390D02*
X0176500Y0165390D01*
X0176500Y0102484D02*
X0174532Y0102484D01*
X0173534Y0101485D02*
X0176500Y0101485D01*
X0176500Y0100487D02*
X0172535Y0100487D01*
X0171537Y0099488D02*
X0176500Y0099488D01*
X0176500Y0098490D02*
X0170538Y0098490D01*
X0169540Y0097491D02*
X0176500Y0097491D01*
X0176500Y0096493D02*
X0168541Y0096493D01*
X0167543Y0095494D02*
X0176500Y0095494D01*
X0176500Y0094496D02*
X0166544Y0094496D01*
X0165546Y0093497D02*
X0176500Y0093497D01*
X0176500Y0092499D02*
X0164547Y0092499D01*
X0163549Y0091500D02*
X0173192Y0091500D01*
X0174082Y0092390D02*
X0174082Y0092390D01*
X0172194Y0090502D02*
X0162550Y0090502D01*
X0161552Y0089503D02*
X0171195Y0089503D01*
X0170197Y0088505D02*
X0160553Y0088505D01*
X0159555Y0087506D02*
X0169198Y0087506D01*
X0168200Y0086508D02*
X0158556Y0086508D01*
X0157557Y0085509D02*
X0167201Y0085509D01*
X0166203Y0084511D02*
X0156559Y0084511D01*
X0142216Y0075524D02*
X0110626Y0075524D01*
X0109773Y0074526D02*
X0141218Y0074526D01*
X0140219Y0073527D02*
X0104694Y0073527D01*
X0126122Y0059548D02*
X0014150Y0059548D01*
X0013152Y0060546D02*
X0019721Y0060546D01*
X0020686Y0060546D02*
X0126265Y0060546D01*
X0126845Y0061545D02*
X0021819Y0061545D01*
X0022818Y0062543D02*
X0129236Y0062543D01*
X0130234Y0063542D02*
X0023816Y0063542D01*
X0023294Y0063542D02*
X0021880Y0063542D01*
X0022296Y0064541D02*
X0020882Y0064541D01*
X0020082Y0064541D02*
X0018668Y0064541D01*
X0019084Y0063542D02*
X0017670Y0063542D01*
X0016591Y0063542D02*
X0012730Y0063542D01*
X0011732Y0062543D02*
X0018085Y0062543D01*
X0018588Y0061545D02*
X0012153Y0061545D01*
X0013728Y0064541D02*
X0015592Y0064541D01*
X0019667Y0065539D02*
X0019883Y0065539D01*
X0021081Y0065539D02*
X0021297Y0065539D01*
X0020665Y0066538D02*
X0022079Y0066538D01*
X0021664Y0067536D02*
X0023078Y0067536D01*
X0024590Y0067536D02*
X0134228Y0067536D01*
X0133230Y0066538D02*
X0025513Y0066538D01*
X0025609Y0065539D02*
X0132231Y0065539D01*
X0131233Y0064541D02*
X0024815Y0064541D01*
X0016147Y0057551D02*
X0127009Y0057551D01*
X0126332Y0058549D02*
X0015149Y0058549D01*
X0011506Y0054555D02*
X0003250Y0054555D01*
X0003250Y0053557D02*
X0012505Y0053557D01*
X0013503Y0052558D02*
X0003250Y0052558D01*
X0003250Y0051560D02*
X0014502Y0051560D01*
X0015500Y0050561D02*
X0003250Y0050561D01*
X0003250Y0049563D02*
X0016499Y0049563D01*
X0017497Y0048564D02*
X0003250Y0048564D01*
X0003250Y0047566D02*
X0018496Y0047566D01*
X0019494Y0046567D02*
X0003250Y0046567D01*
X0003250Y0045569D02*
X0020493Y0045569D01*
X0021491Y0044570D02*
X0003250Y0044570D01*
X0003250Y0043572D02*
X0022490Y0043572D01*
X0023488Y0042573D02*
X0003250Y0042573D01*
X0003250Y0041575D02*
X0024487Y0041575D01*
X0025485Y0040576D02*
X0003250Y0040576D01*
X0003250Y0039578D02*
X0026484Y0039578D01*
X0027482Y0038579D02*
X0003250Y0038579D01*
X0003250Y0037581D02*
X0028481Y0037581D01*
X0029479Y0036582D02*
X0003250Y0036582D01*
X0003250Y0035584D02*
X0030478Y0035584D01*
X0031476Y0034585D02*
X0003250Y0034585D01*
X0003250Y0033587D02*
X0032475Y0033587D01*
X0033473Y0032588D02*
X0003250Y0032588D01*
X0003250Y0031590D02*
X0034472Y0031590D01*
X0035470Y0030591D02*
X0003250Y0030591D01*
X0003250Y0029593D02*
X0036469Y0029593D01*
X0037467Y0028594D02*
X0003250Y0028594D01*
X0003250Y0027596D02*
X0038466Y0027596D01*
X0039464Y0026597D02*
X0003250Y0026597D01*
X0003250Y0025599D02*
X0040463Y0025599D01*
X0041461Y0024600D02*
X0003250Y0024600D01*
X0003250Y0023602D02*
X0042460Y0023602D01*
X0043458Y0022603D02*
X0003250Y0022603D01*
X0003250Y0021605D02*
X0044457Y0021605D01*
X0045455Y0020606D02*
X0003250Y0020606D01*
X0003250Y0019608D02*
X0046454Y0019608D01*
X0047452Y0018609D02*
X0003250Y0018609D01*
X0003250Y0017610D02*
X0048451Y0017610D01*
X0049449Y0016612D02*
X0003250Y0016612D01*
X0003250Y0015613D02*
X0050448Y0015613D01*
X0051447Y0014615D02*
X0003250Y0014615D01*
X0003250Y0013616D02*
X0052445Y0013616D01*
X0053444Y0012618D02*
X0003250Y0012618D01*
X0003250Y0011619D02*
X0078969Y0011619D01*
X0081531Y0011619D02*
X0084682Y0011619D01*
X0084163Y0017610D02*
X0081603Y0017610D01*
X0084273Y0018609D02*
X0055089Y0018609D01*
X0054091Y0019608D02*
X0084376Y0019608D01*
X0084376Y0020606D02*
X0053092Y0020606D01*
X0052094Y0021605D02*
X0088116Y0021605D01*
X0084376Y0022603D02*
X0051095Y0022603D01*
X0050097Y0023602D02*
X0084376Y0023602D01*
X0084376Y0024600D02*
X0049098Y0024600D01*
X0048100Y0025599D02*
X0084871Y0025599D01*
X0078897Y0017610D02*
X0056088Y0017610D01*
X0037116Y0036582D02*
X0097978Y0036582D01*
X0097466Y0037581D02*
X0036117Y0037581D01*
X0035119Y0038579D02*
X0094731Y0038579D01*
X0093924Y0039578D02*
X0034120Y0039578D01*
X0033122Y0040576D02*
X0093622Y0040576D01*
X0093673Y0041575D02*
X0032123Y0041575D01*
X0031125Y0042573D02*
X0094123Y0042573D01*
X0095478Y0043572D02*
X0030126Y0043572D01*
X0029128Y0044570D02*
X0102677Y0044570D01*
X0102372Y0045569D02*
X0028129Y0045569D01*
X0027131Y0046567D02*
X0102420Y0046567D01*
X0102866Y0047566D02*
X0026132Y0047566D01*
X0025134Y0048564D02*
X0104211Y0048564D01*
X0103488Y0043572D02*
X0097522Y0043572D01*
X0089568Y0097491D02*
X0085932Y0097491D01*
X0086643Y0098490D02*
X0088857Y0098490D01*
X0088622Y0099488D02*
X0086878Y0099488D01*
X0086760Y0100487D02*
X0088740Y0100487D01*
X0089286Y0101485D02*
X0086214Y0101485D01*
X0086010Y0102484D02*
X0089500Y0102484D01*
X0089500Y0103482D02*
X0086010Y0103482D01*
X0086010Y0104481D02*
X0089500Y0104481D01*
X0089500Y0105479D02*
X0086010Y0105479D01*
X0086010Y0106478D02*
X0089500Y0106478D01*
X0089500Y0107477D02*
X0086010Y0107477D01*
X0086010Y0108475D02*
X0089500Y0108475D01*
X0089500Y0109474D02*
X0086010Y0109474D01*
X0086010Y0110472D02*
X0089500Y0110472D01*
X0089500Y0111471D02*
X0086010Y0111471D01*
X0086010Y0112469D02*
X0089500Y0112469D01*
X0089500Y0113468D02*
X0086010Y0113468D01*
X0086010Y0114466D02*
X0089500Y0114466D01*
X0089500Y0115465D02*
X0086010Y0115465D01*
X0087423Y0116463D02*
X0088077Y0116463D01*
X0084010Y0120880D02*
X0084010Y0127120D01*
X0066490Y0144640D01*
X0064878Y0143423D02*
X0041900Y0143423D01*
X0041900Y0144421D02*
X0064030Y0144421D01*
X0063032Y0145420D02*
X0041900Y0145420D01*
X0041810Y0146418D02*
X0062033Y0146418D01*
X0061035Y0147417D02*
X0041396Y0147417D01*
X0040983Y0148415D02*
X0060036Y0148415D01*
X0059038Y0149414D02*
X0040388Y0149414D01*
X0039390Y0150412D02*
X0058039Y0150412D01*
X0056787Y0151411D02*
X0038272Y0151411D01*
X0035862Y0152410D02*
X0055789Y0152410D01*
X0062211Y0152410D02*
X0066348Y0152410D01*
X0065581Y0151411D02*
X0062397Y0151411D01*
X0063395Y0150412D02*
X0065167Y0150412D01*
X0065159Y0149414D02*
X0064394Y0149414D01*
X0068538Y0145420D02*
X0080381Y0145420D01*
X0079383Y0146418D02*
X0071220Y0146418D01*
X0072218Y0147417D02*
X0078384Y0147417D01*
X0077386Y0148415D02*
X0072654Y0148415D01*
X0072841Y0149414D02*
X0076387Y0149414D01*
X0075389Y0150412D02*
X0072833Y0150412D01*
X0072419Y0151411D02*
X0074390Y0151411D01*
X0073392Y0152410D02*
X0071652Y0152410D01*
X0075055Y0156404D02*
X0088988Y0156404D01*
X0089001Y0157402D02*
X0073906Y0157402D01*
X0072907Y0158401D02*
X0089846Y0158401D01*
X0088988Y0155405D02*
X0076053Y0155405D01*
X0081380Y0144421D02*
X0069537Y0144421D01*
X0070535Y0143423D02*
X0082378Y0143423D01*
X0083377Y0142424D02*
X0071534Y0142424D01*
X0072532Y0141426D02*
X0084376Y0141426D01*
X0085374Y0140427D02*
X0073531Y0140427D01*
X0074529Y0139429D02*
X0086373Y0139429D01*
X0087371Y0138430D02*
X0075528Y0138430D01*
X0076526Y0137432D02*
X0088370Y0137432D01*
X0089368Y0136433D02*
X0077525Y0136433D01*
X0078523Y0135435D02*
X0089490Y0135435D01*
X0089490Y0134436D02*
X0079522Y0134436D01*
X0080520Y0133438D02*
X0089490Y0133438D01*
X0089490Y0132439D02*
X0081519Y0132439D01*
X0082517Y0131441D02*
X0089490Y0131441D01*
X0089490Y0130442D02*
X0083516Y0130442D01*
X0084514Y0129444D02*
X0089490Y0129444D01*
X0089490Y0128445D02*
X0085513Y0128445D01*
X0086010Y0127447D02*
X0089490Y0127447D01*
X0089490Y0126448D02*
X0086010Y0126448D01*
X0087270Y0125450D02*
X0088230Y0125450D01*
X0093500Y0126448D02*
X0100542Y0126448D01*
X0100497Y0127447D02*
X0093500Y0127447D01*
X0093500Y0128445D02*
X0100805Y0128445D01*
X0101375Y0129444D02*
X0093500Y0129444D01*
X0093500Y0130442D02*
X0101375Y0130442D01*
X0101236Y0131441D02*
X0093501Y0131441D01*
X0093490Y0132439D02*
X0100237Y0132439D01*
X0099239Y0133438D02*
X0093490Y0133438D01*
X0093490Y0134436D02*
X0096964Y0134436D01*
X0096594Y0135435D02*
X0093490Y0135435D01*
X0093490Y0136433D02*
X0096594Y0136433D01*
X0096594Y0137432D02*
X0093490Y0137432D01*
X0093028Y0138430D02*
X0096594Y0138430D01*
X0096594Y0139429D02*
X0092029Y0139429D01*
X0091031Y0140427D02*
X0096594Y0140427D01*
X0096594Y0141426D02*
X0090032Y0141426D01*
X0089034Y0142424D02*
X0097065Y0142424D01*
X0093335Y0150412D02*
X0092335Y0150412D01*
X0092335Y0151411D02*
X0093335Y0151411D01*
X0093335Y0152410D02*
X0092335Y0152410D01*
X0092335Y0153408D02*
X0093335Y0153408D01*
X0070870Y0137432D02*
X0037266Y0137432D01*
X0038973Y0138430D02*
X0069871Y0138430D01*
X0068873Y0139429D02*
X0039971Y0139429D01*
X0040810Y0140427D02*
X0067874Y0140427D01*
X0066876Y0141426D02*
X0041224Y0141426D01*
X0041637Y0142424D02*
X0065877Y0142424D01*
X0084010Y0120880D02*
X0084010Y0099630D01*
X0084000Y0099630D01*
X0094750Y0125450D02*
X0100985Y0125450D01*
X0065159Y0180368D02*
X0003250Y0180368D01*
X0003250Y0181366D02*
X0056843Y0181366D01*
X0055834Y0182365D02*
X0037104Y0182365D01*
X0038906Y0183363D02*
X0055368Y0183363D01*
X0055159Y0184362D02*
X0039904Y0184362D01*
X0040782Y0185360D02*
X0055159Y0185360D01*
X0055559Y0186359D02*
X0041196Y0186359D01*
X0041610Y0187357D02*
X0056296Y0187357D01*
X0057960Y0188356D02*
X0041900Y0188356D01*
X0030896Y0182365D02*
X0003250Y0182365D01*
X0003250Y0183363D02*
X0029094Y0183363D01*
X0028096Y0184362D02*
X0003250Y0184362D01*
X0003250Y0185360D02*
X0027218Y0185360D01*
X0026804Y0186359D02*
X0003250Y0186359D01*
X0003250Y0187357D02*
X0026390Y0187357D01*
X0026100Y0188356D02*
X0003250Y0188356D01*
X0003250Y0189354D02*
X0026100Y0189354D01*
X0026100Y0190353D02*
X0003250Y0190353D01*
X0003250Y0191351D02*
X0026162Y0191351D01*
X0026576Y0192350D02*
X0003250Y0192350D01*
X0003250Y0193348D02*
X0026989Y0193348D01*
X0027545Y0194347D02*
X0003250Y0194347D01*
X0003250Y0195345D02*
X0028543Y0195345D01*
X0029566Y0196344D02*
X0003250Y0196344D01*
X0061157Y0181366D02*
X0065562Y0181366D01*
X0066304Y0182365D02*
X0062166Y0182365D01*
X0021461Y0079518D02*
X0003250Y0079518D01*
X0003250Y0078520D02*
X0020321Y0078520D01*
X0019323Y0077521D02*
X0003250Y0077521D01*
X0003250Y0076523D02*
X0018324Y0076523D01*
X0017326Y0075524D02*
X0016902Y0075524D01*
X0015153Y0075524D02*
X0003250Y0075524D01*
X0003250Y0074526D02*
X0014155Y0074526D01*
X0013156Y0073527D02*
X0003250Y0073527D01*
X0003250Y0072529D02*
X0012158Y0072529D01*
X0011159Y0071530D02*
X0003250Y0071530D01*
X0003250Y0070532D02*
X0010352Y0070532D01*
X0010352Y0069533D02*
X0003250Y0069533D01*
X0003250Y0068535D02*
X0010086Y0068535D01*
X0009087Y0067536D02*
X0003250Y0067536D01*
X0003250Y0066538D02*
X0008089Y0066538D01*
X0007090Y0065539D02*
X0003250Y0065539D01*
X0003250Y0064541D02*
X0005534Y0064541D01*
X0004794Y0063542D02*
X0003250Y0063542D01*
X0003250Y0062543D02*
X0004478Y0062543D01*
X0004478Y0061545D02*
X0003250Y0061545D01*
X0003250Y0060546D02*
X0004865Y0060546D01*
X0005705Y0059548D02*
X0003250Y0059548D01*
X0003250Y0058549D02*
X0007512Y0058549D01*
X0008511Y0057551D02*
X0003250Y0057551D01*
X0003250Y0056552D02*
X0009509Y0056552D01*
X0010508Y0055554D02*
X0003250Y0055554D01*
X0003250Y0010621D02*
X0174750Y0010621D01*
X0174750Y0009622D02*
X0003250Y0009622D01*
X0003250Y0008624D02*
X0174750Y0008624D01*
X0174750Y0007625D02*
X0003250Y0007625D01*
X0003250Y0006627D02*
X0174750Y0006627D01*
D18*
X0194748Y0043252D02*
X0193370Y0044630D01*
X0171500Y0044630D01*
X0171500Y0052130D02*
X0193744Y0052130D01*
X0194748Y0051126D01*
X0194748Y0059000D02*
X0194118Y0059630D01*
X0171500Y0059630D01*
X0174000Y0063380D02*
X0167750Y0063380D01*
X0157750Y0053380D01*
X0151500Y0057130D02*
X0169118Y0074748D01*
X0194748Y0074748D01*
X0194492Y0067130D02*
X0171500Y0067130D01*
X0171992Y0082622D02*
X0140250Y0050880D01*
X0140250Y0043380D02*
X0107750Y0043380D01*
X0105250Y0045880D01*
X0100250Y0038380D02*
X0132750Y0038380D01*
X0127750Y0040880D02*
X0096500Y0040880D01*
X0130250Y0045880D02*
X0174866Y0090496D01*
X0194748Y0090496D01*
X0194748Y0082622D02*
X0171992Y0082622D01*
X0194492Y0067130D02*
X0194748Y0066874D01*
X0175250Y0105880D02*
X0129000Y0059630D01*
X0136500Y0079630D02*
X0136500Y0132130D01*
X0139000Y0137130D02*
X0139000Y0084630D01*
X0141500Y0089630D02*
X0141500Y0142130D01*
X0144000Y0147130D02*
X0144000Y0094630D01*
X0146500Y0099630D02*
X0146500Y0152130D01*
X0149000Y0157130D02*
X0149000Y0104630D01*
X0151500Y0109630D02*
X0151500Y0162130D01*
X0154000Y0167130D02*
X0154000Y0114630D01*
X0132750Y0111746D02*
X0131067Y0110063D01*
X0132750Y0111746D02*
X0132750Y0172130D01*
X0171500Y0174630D02*
X0176500Y0169630D01*
X0194354Y0169630D01*
X0194748Y0169237D01*
X0194748Y0161363D02*
X0193016Y0159630D01*
X0191323Y0161323D01*
X0177878Y0161323D01*
X0174571Y0164630D01*
X0171500Y0164630D01*
X0171500Y0154630D02*
X0176697Y0154630D01*
X0177878Y0153449D01*
X0194709Y0153449D01*
X0194748Y0153488D01*
X0193606Y0154630D01*
X0194748Y0145614D02*
X0194709Y0145575D01*
X0177878Y0145575D01*
X0176933Y0144630D01*
X0171500Y0144630D01*
X0193764Y0144630D02*
X0194748Y0145614D01*
X0075260Y0153370D02*
X0074000Y0154630D01*
X0069000Y0159630D01*
X0059000Y0154630D02*
X0059000Y0152130D01*
X0066490Y0144640D01*
D19*
X0103375Y0127130D03*
X0091500Y0099630D03*
X0084000Y0099630D03*
X0129000Y0059630D03*
X0140250Y0050880D03*
X0140250Y0043380D03*
X0132750Y0038380D03*
X0127750Y0040880D03*
X0130250Y0045880D03*
X0151500Y0057130D03*
X0157750Y0053380D03*
X0171500Y0052130D03*
X0171500Y0044630D03*
X0171500Y0059630D03*
X0174000Y0063380D03*
X0171500Y0067130D03*
X0144000Y0094630D03*
X0141500Y0089630D03*
X0139000Y0084630D03*
X0136500Y0079630D03*
X0146500Y0099630D03*
X0149000Y0104630D03*
X0151500Y0109630D03*
X0154000Y0114630D03*
X0136500Y0132130D03*
X0139000Y0137130D03*
X0141500Y0142130D03*
X0144000Y0147130D03*
X0146500Y0152130D03*
X0149000Y0157130D03*
X0151500Y0162130D03*
X0154000Y0167130D03*
X0171500Y0164630D03*
X0171500Y0174630D03*
X0171500Y0154630D03*
X0171500Y0144630D03*
X0132750Y0172130D03*
X0131067Y0110063D03*
X0175250Y0105880D03*
X0105250Y0045880D03*
X0100250Y0038380D03*
X0096500Y0040880D03*
D20*
X0088616Y0014630D02*
X0080250Y0014630D01*
X0055250Y0014630D01*
X0007750Y0062130D01*
X0007750Y0062380D02*
X0015749Y0070380D01*
X0016000Y0070380D02*
X0022750Y0077130D01*
X0099896Y0077130D01*
X0107799Y0077179D02*
X0107799Y0108380D01*
X0107750Y0108380D02*
X0107750Y0138380D01*
X0107750Y0170880D01*
X0122750Y0185880D01*
X0170250Y0185880D01*
X0179020Y0177110D01*
X0194748Y0177111D01*
X0145250Y0039630D02*
X0120250Y0014630D01*
X0088616Y0014630D01*
D21*
X0088616Y0015319D01*
X0100280Y0076746D02*
X0099896Y0077130D01*
X0100280Y0076746D02*
X0100713Y0077179D01*
X0107750Y0077130D02*
X0107799Y0077179D01*
X0107799Y0077130D02*
X0107750Y0077130D01*
X0107799Y0108380D02*
X0107750Y0108380D01*
X0107750Y0138380D02*
X0107346Y0138380D01*
X0016000Y0070380D02*
X0015749Y0070380D01*
X0007750Y0062380D02*
X0007750Y0062130D01*
D22*
X0100713Y0077179D02*
X0107799Y0077179D01*
D23*
X0107750Y0077130D03*
X0107750Y0108380D03*
X0145250Y0039630D03*
X0080250Y0014630D03*
X0007750Y0062130D03*
X0170250Y0185880D03*
M02*
